<?xml version="1.0" encoding="utf-8"?>
<!-- Generator: Adobe Illustrator 16.0.0, SVG Export Plug-In . SVG Version: 6.00 Build 0)  -->
<!DOCTYPE svg PUBLIC "-//W3C//DTD SVG 1.1//EN" "http://www.w3.org/Graphics/SVG/1.1/DTD/svg11.dtd">
<svg version="1.1" id="Layer_1" xmlns="http://www.w3.org/2000/svg" xmlns:xlink="http://www.w3.org/1999/xlink" x="0px" y="0px"
	 width="302.027px" height="275.992px" viewBox="0 0 302.027 275.992" enable-background="new 0 0 302.027 275.992"
	 xml:space="preserve">
<g>
	<ellipse opacity="0.51" fill="#8F60A8" cx="134.316" cy="272.22" rx="123.111" ry="3.772"/>
	<g>
		<g>
			<path fill="#4F429A" d="M188.57,272.476h-29.274c-4.353,0-7.882-3.529-7.882-7.883v-50c0-4.354,3.529-7.882,7.882-7.882h29.274
				c4.353,0,7.882,3.528,7.882,7.882v50C196.452,268.946,192.923,272.476,188.57,272.476z"/>
			<path fill="#9279B7" d="M188.567,199.161h-29.269c-0.788,0-1.427,0.64-1.427,1.428v4.7c0,0.789,0.639,1.428,1.428,1.428h29.268
				c0.788,0,1.427-0.639,1.427-1.427v-4.701C189.994,199.801,189.355,199.161,188.567,199.161z"/>
			<rect x="151.414" y="221.537" fill="#C3E3F7" width="45.038" height="36.112"/>
			<path fill="#4F429A" d="M160.199,205.986c-0.257,0-0.465-0.209-0.465-0.466v-5.163c0-0.257,0.208-0.465,0.465-0.465
				s0.466,0.208,0.466,0.465v5.163C160.665,205.777,160.456,205.986,160.199,205.986z M163.411,205.521v-5.163
				c0-0.257-0.208-0.465-0.465-0.465s-0.465,0.208-0.465,0.465v5.163c0,0.257,0.208,0.466,0.465,0.466
				S163.411,205.777,163.411,205.521z M166.158,205.521v-5.163c0-0.257-0.208-0.465-0.465-0.465s-0.466,0.208-0.466,0.465v5.163
				c0,0.257,0.209,0.466,0.466,0.466S166.158,205.777,166.158,205.521z M168.905,205.521v-5.163c0-0.257-0.209-0.465-0.466-0.465
				s-0.465,0.208-0.465,0.465v5.163c0,0.257,0.208,0.466,0.465,0.466S168.905,205.777,168.905,205.521z M171.651,205.521v-5.163
				c0-0.257-0.208-0.465-0.465-0.465s-0.465,0.208-0.465,0.465v5.163c0,0.257,0.208,0.466,0.465,0.466
				S171.651,205.777,171.651,205.521z M174.398,205.521v-5.163c0-0.257-0.209-0.465-0.465-0.465c-0.257,0-0.466,0.208-0.466,0.465
				v5.163c0,0.257,0.209,0.466,0.466,0.466C174.189,205.986,174.398,205.777,174.398,205.521z M177.145,205.521v-5.163
				c0-0.257-0.208-0.465-0.465-0.465s-0.465,0.208-0.465,0.465v5.163c0,0.257,0.208,0.466,0.465,0.466
				S177.145,205.777,177.145,205.521z M179.892,205.521v-5.163c0-0.257-0.208-0.465-0.465-0.465s-0.465,0.208-0.465,0.465v5.163
				c0,0.257,0.208,0.466,0.465,0.466S179.892,205.777,179.892,205.521z M182.639,205.521v-5.163c0-0.257-0.209-0.465-0.466-0.465
				c-0.256,0-0.465,0.208-0.465,0.465v5.163c0,0.257,0.209,0.466,0.465,0.466C182.43,205.986,182.639,205.777,182.639,205.521z
				 M185.385,205.521v-5.163c0-0.257-0.208-0.465-0.465-0.465s-0.465,0.208-0.465,0.465v5.163c0,0.257,0.208,0.466,0.465,0.466
				S185.385,205.777,185.385,205.521z M188.132,205.521v-5.163c0-0.257-0.208-0.465-0.465-0.465s-0.465,0.208-0.465,0.465v5.163
				c0,0.257,0.208,0.466,0.465,0.466S188.132,205.777,188.132,205.521z"/>
			<path fill="#4F429A" d="M182.705,234.997h-5.297V229.7c0-0.967-0.784-1.75-1.751-1.75h-3.448c-0.967,0-1.75,0.783-1.75,1.75
				v5.297h-5.298c-0.966,0-1.75,0.783-1.75,1.75v3.449c0,0.967,0.784,1.75,1.75,1.75h5.298v5.297c0,0.967,0.783,1.75,1.75,1.75
				h3.448c0.967,0,1.751-0.783,1.751-1.75v-5.297h5.297c0.967,0,1.75-0.783,1.75-1.75v-3.449
				C184.455,235.78,183.672,234.997,182.705,234.997z"/>
			<path fill="#C6D4ED" d="M189.417,206.711h-11.018c3.885,0,7.034,3.149,7.034,7.034v51.695c0,3.886-3.149,7.035-7.034,7.035
				h11.018c3.886,0,7.035-3.149,7.035-7.035v-51.695C196.452,209.86,193.303,206.711,189.417,206.711z"/>
			<path fill="#C6D4ED" d="M188.721,199.161h-10.497c0.703,0,1.274,0.571,1.274,1.274v5.008c0,0.703-0.571,1.273-1.274,1.273h10.497
				c0.703,0,1.273-0.57,1.273-1.273v-5.008C189.994,199.732,189.424,199.161,188.721,199.161z"/>
		</g>
		<g>
			<g>
				<path fill="#645FAA" d="M243.102,272.476h-47.98c-6.17,0-11.171-5.002-11.171-11.172v-44.891c0-6.17,5.001-11.172,11.171-11.172
					h47.98c6.17,0,11.171,5.002,11.171,11.172v44.891C254.272,267.474,249.271,272.476,243.102,272.476z"/>
				<path fill="#ABABD6" d="M249.302,190.053h-60.381c-1.159,0-2.099,0.939-2.099,2.098v10.993c0,1.159,0.939,2.098,2.099,2.098
					h60.381c1.159,0,2.099-0.938,2.099-2.098V192.15C251.4,190.992,250.461,190.053,249.302,190.053z"/>
				<path fill="#E8F6F9" d="M254.121,257.318h-70.02c-0.084,0-0.151-0.068-0.151-0.152v-36.615c0-0.084,0.067-0.151,0.151-0.151
					h70.02c0.084,0,0.151,0.067,0.151,0.151v36.615C254.272,257.25,254.205,257.318,254.121,257.318z"/>
				<path fill="#645FAA" d="M191.502,203.771c-0.516,0-0.935-0.418-0.935-0.935v-10.38c0-0.516,0.419-0.935,0.935-0.935
					c0.517,0,0.935,0.419,0.935,0.935v10.38C192.437,203.354,192.019,203.771,191.502,203.771z M197.959,202.837v-10.38
					c0-0.516-0.419-0.935-0.936-0.935c-0.516,0-0.935,0.419-0.935,0.935v10.38c0,0.517,0.419,0.935,0.935,0.935
					C197.54,203.771,197.959,203.354,197.959,202.837z M203.48,202.837v-10.38c0-0.516-0.419-0.935-0.935-0.935
					c-0.517,0-0.936,0.419-0.936,0.935v10.38c0,0.517,0.419,0.935,0.936,0.935C203.062,203.771,203.48,203.354,203.48,202.837z
					 M209.002,202.837v-10.38c0-0.516-0.418-0.935-0.935-0.935c-0.516,0-0.935,0.419-0.935,0.935v10.38
					c0,0.517,0.419,0.935,0.935,0.935C208.584,203.771,209.002,203.354,209.002,202.837z M214.524,202.837v-10.38
					c0-0.516-0.419-0.935-0.936-0.935c-0.516,0-0.935,0.419-0.935,0.935v10.38c0,0.517,0.419,0.935,0.935,0.935
					C214.105,203.771,214.524,203.354,214.524,202.837z M220.046,202.837v-10.38c0-0.516-0.419-0.935-0.935-0.935
					c-0.517,0-0.935,0.419-0.935,0.935v10.38c0,0.517,0.418,0.935,0.935,0.935C219.627,203.771,220.046,203.354,220.046,202.837z
					 M225.567,202.837v-10.38c0-0.516-0.418-0.935-0.935-0.935c-0.516,0-0.935,0.419-0.935,0.935v10.38
					c0,0.517,0.419,0.935,0.935,0.935C225.149,203.771,225.567,203.354,225.567,202.837z M231.09,202.837v-10.38
					c0-0.516-0.419-0.935-0.935-0.935c-0.517,0-0.936,0.419-0.936,0.935v10.38c0,0.517,0.419,0.935,0.936,0.935
					C230.671,203.771,231.09,203.354,231.09,202.837z M236.611,202.837v-10.38c0-0.516-0.419-0.935-0.935-0.935
					c-0.517,0-0.935,0.419-0.935,0.935v10.38c0,0.517,0.418,0.935,0.935,0.935C236.192,203.771,236.611,203.354,236.611,202.837z
					 M242.133,202.837v-10.38c0-0.516-0.418-0.935-0.935-0.935c-0.516,0-0.935,0.419-0.935,0.935v10.38
					c0,0.517,0.419,0.935,0.935,0.935C241.715,203.771,242.133,203.354,242.133,202.837z M247.655,202.837v-10.38
					c0-0.516-0.419-0.935-0.935-0.935c-0.517,0-0.936,0.419-0.936,0.935v10.38c0,0.517,0.419,0.935,0.936,0.935
					C247.236,203.771,247.655,203.354,247.655,202.837z"/>
				<path fill="#EAEDF7" d="M244.943,205.241h-15.637c5.152,0,9.329,4.916,9.329,10.98v45.273c0,6.064-4.177,10.98-9.329,10.98
					h15.637c2.754,0,9.329-2.458,9.329-10.102v-46.152C254.272,210.157,250.096,205.241,244.943,205.241z"/>
				<path fill="#EAEDF7" d="M248.785,190.053h-17.5c1.443,0,2.614,1.171,2.614,2.615v9.959c0,1.444-1.171,2.614-2.614,2.614h17.5
					c1.444,0,2.615-1.17,2.615-2.614v-9.959C251.4,191.224,250.229,190.053,248.785,190.053z"/>
			</g>
			<path fill="#645FAA" d="M229.753,233.497h-6.427v-6.426c0-1.173-0.95-2.123-2.123-2.123h-4.184c-1.173,0-2.123,0.95-2.123,2.123
				v6.426h-6.427c-1.173,0-2.123,0.95-2.123,2.123v4.185c0,1.172,0.95,2.123,2.123,2.123h6.427v6.426
				c0,1.173,0.95,2.123,2.123,2.123h4.184c1.173,0,2.123-0.95,2.123-2.123v-6.426h6.427c1.172,0,2.123-0.951,2.123-2.123v-4.185
				C231.876,234.447,230.925,233.497,229.753,233.497z"/>
		</g>
	</g>
	<g>
		<linearGradient id="SVGID_1_" gradientUnits="userSpaceOnUse" x1="60.25" y1="186.5127" x2="60.25" y2="262.8284">
			<stop  offset="0.0094" style="stop-color:#FFFFFF;stop-opacity:0.2"/>
			<stop  offset="1" style="stop-color:#FFFFFF"/>
		</linearGradient>
		<path fill="url(#SVGID_1_)" d="M66.394,224.774v-30.344H54.107v30.344c-10.357,2.718-18,12.141-18,23.352
			c0,13.333,10.81,24.143,24.143,24.143c13.334,0,24.143-10.81,24.143-24.143C84.393,236.915,76.751,227.492,66.394,224.774z"/>
		<g>
			<linearGradient id="SVGID_2_" gradientUnits="userSpaceOnUse" x1="60.25" y1="192.1104" x2="60.25" y2="271.1872">
				<stop  offset="0.0056" style="stop-color:#8BD7F6"/>
				<stop  offset="1" style="stop-color:#CE83B7"/>
			</linearGradient>
			<path fill="url(#SVGID_2_)" d="M38.355,243.556c-0.309,1.483-0.489,3.009-0.489,4.57c0,12.343,10.042,22.384,22.384,22.384
				c12.343,0,22.385-10.041,22.385-22.384c0-1.562-0.181-3.087-0.489-4.57H38.355z"/>
			<linearGradient id="SVGID_3_" gradientUnits="userSpaceOnUse" x1="60.25" y1="227.7495" x2="60.25" y2="279.4351">
				<stop  offset="0.0056" style="stop-color:#8BD7F6"/>
				<stop  offset="1" style="stop-color:#5F5EAA"/>
			</linearGradient>
			<path fill="url(#SVGID_3_)" d="M38.355,243.556c-0.309,1.483-0.489,3.009-0.489,4.57c0,12.343,10.042,22.384,22.384,22.384
				c12.343,0,22.385-10.041,22.385-22.384c0-1.562-0.181-3.087-0.489-4.57H38.355z"/>
		</g>
		<linearGradient id="SVGID_4_" gradientUnits="userSpaceOnUse" x1="60.25" y1="197.4517" x2="60.25" y2="188.3444">
			<stop  offset="0.0094" style="stop-color:#FFFFFF;stop-opacity:0.2"/>
			<stop  offset="1" style="stop-color:#FFFFFF"/>
		</linearGradient>
		<path fill="url(#SVGID_4_)" d="M67.108,194.431H53.393c-0.624,0-1.13-0.506-1.13-1.13l0,0c0-0.624,0.506-1.13,1.13-1.13h13.716
			c0.624,0,1.13,0.506,1.13,1.13l0,0C68.238,193.925,67.732,194.431,67.108,194.431z"/>
		<path fill="#4E6DB4" d="M44.046,248.533c0,0.315-0.256,0.571-0.571,0.571c-0.316,0-0.572-0.256-0.572-0.571
			c0-0.316,0.256-0.572,0.572-0.572C43.79,247.961,44.046,248.217,44.046,248.533z M49.817,252.594
			c-0.315,0-0.571,0.256-0.571,0.572c0,0.315,0.256,0.571,0.571,0.571s0.571-0.256,0.571-0.571
			C50.389,252.85,50.133,252.594,49.817,252.594z M57.483,247.961c-0.316,0-0.572,0.256-0.572,0.572
			c0,0.315,0.256,0.571,0.572,0.571c0.315,0,0.571-0.256,0.571-0.571C58.055,248.217,57.799,247.961,57.483,247.961z
			 M58.321,254.839c-0.463,0-0.838,0.375-0.838,0.839c0,0.463,0.375,0.838,0.838,0.838c0.464,0,0.839-0.375,0.839-0.838
			C59.16,255.214,58.785,254.839,58.321,254.839z M49.688,259.794c-0.582,0-1.054,0.472-1.054,1.054
			c0,0.583,0.472,1.055,1.054,1.055s1.055-0.472,1.055-1.055C50.742,260.266,50.27,259.794,49.688,259.794z M60.099,263.566
			c-0.817,0-1.479,0.662-1.479,1.479c0,0.816,0.662,1.479,1.479,1.479c0.816,0,1.479-0.662,1.479-1.479
			C61.577,264.229,60.915,263.566,60.099,263.566z M66.884,248.256c-0.344,0-0.622,0.279-0.622,0.623s0.278,0.622,0.622,0.622
			s0.623-0.278,0.623-0.622S67.228,248.256,66.884,248.256z M65.041,256.516c-0.442,0-0.801,0.359-0.801,0.802
			s0.358,0.801,0.801,0.801s0.801-0.358,0.801-0.801S65.483,256.516,65.041,256.516z M72.931,246.185
			c-0.347,0-0.629,0.282-0.629,0.629c0,0.348,0.282,0.629,0.629,0.629c0.348,0,0.629-0.281,0.629-0.629
			C73.56,246.467,73.278,246.185,72.931,246.185z M72.514,252.594c-0.431,0-0.779,0.35-0.779,0.78s0.349,0.779,0.779,0.779
			s0.78-0.349,0.78-0.779S72.944,252.594,72.514,252.594z M70.693,259.794c-0.419,0-0.758,0.34-0.758,0.759
			c0,0.418,0.339,0.758,0.758,0.758s0.758-0.34,0.758-0.758C71.451,260.134,71.112,259.794,70.693,259.794z M77.391,251.199
			c-0.114,0-0.207,0.093-0.207,0.207s0.093,0.207,0.207,0.207s0.208-0.093,0.208-0.207S77.505,251.199,77.391,251.199z
			 M49.033,246.185c-0.221,0-0.399,0.179-0.399,0.399s0.179,0.399,0.399,0.399s0.399-0.179,0.399-0.399
			S49.254,246.185,49.033,246.185z"/>
		<g>
			
				<linearGradient id="SVGID_5_" gradientUnits="userSpaceOnUse" x1="-1150.1992" y1="228.645" x2="-1150.1992" y2="249.9683" gradientTransform="matrix(-1 0 0 1 -1099.1914 0)">
				<stop  offset="0.0094" style="stop-color:#FFFFFF;stop-opacity:0.2"/>
				<stop  offset="1" style="stop-color:#FFFFFF"/>
			</linearGradient>
			<path fill="url(#SVGID_5_)" d="M42.544,249.968c1.214,0,2.198-0.983,2.198-2.197c0-8.122,6.607-14.729,14.729-14.729
				c1.215,0,2.198-0.984,2.198-2.198s-0.983-2.198-2.198-2.198c-10.545,0-19.125,8.58-19.125,19.126
				C40.346,248.984,41.33,249.968,42.544,249.968z"/>
		</g>
	</g>
	<g>
		<g>
			
				<linearGradient id="SVGID_6_" gradientUnits="userSpaceOnUse" x1="-1236.0586" y1="179.3447" x2="-1236.0586" y2="248.0298" gradientTransform="matrix(-1 0 0 1 -1189.8613 0)">
				<stop  offset="0" style="stop-color:#FFFFFF;stop-opacity:0"/>
				<stop  offset="1" style="stop-color:#FFFFFF"/>
			</linearGradient>
			<path fill="url(#SVGID_6_)" d="M46.298,272.473L46.298,272.473c3.398-0.01,6.146-2.773,6.136-6.172l-0.166-55.53
				c-0.003-0.909-0.742-1.644-1.651-1.641l-9.015,0.026c-0.91,0.003-1.645,0.742-1.642,1.651l0.165,55.529
				C40.136,269.735,42.898,272.482,46.298,272.473z"/>
			
				<linearGradient id="SVGID_7_" gradientUnits="userSpaceOnUse" x1="-1236.103" y1="227.8994" x2="-1236.103" y2="266.493" gradientTransform="matrix(-1 0 0 1 -1189.8613 0)">
				<stop  offset="0.0157" style="stop-color:#F3EAE3"/>
				<stop  offset="0.9944" style="stop-color:#F2749A"/>
			</linearGradient>
			<path fill="url(#SVGID_7_)" d="M46.295,271.396c1.355-0.005,2.629-0.536,3.585-1.497c0.956-0.962,1.48-2.238,1.476-3.595
				l-0.098-32.798H41.127l0.076,32.829c0.008,2.79,2.285,5.061,5.075,5.061H46.295z"/>
			<path fill="#F4838A" d="M48.821,239.103c0.257-0.033,0.491,0.148,0.524,0.404c0.033,0.257-0.148,0.491-0.404,0.524
				c-0.257,0.033-0.492-0.147-0.525-0.404C48.384,239.37,48.564,239.136,48.821,239.103z M44.215,246.757
				c0.045,0.348,0.362,0.593,0.71,0.549c0.347-0.045,0.593-0.363,0.548-0.711s-0.363-0.593-0.71-0.548
				C44.415,246.092,44.17,246.409,44.215,246.757z M42.562,242.125c0.06,0.46,0.481,0.785,0.941,0.727
				c0.461-0.06,0.786-0.481,0.727-0.941c-0.06-0.461-0.48-0.786-0.941-0.727C42.828,241.243,42.502,241.664,42.562,242.125z
				 M47.475,252.76c0.055,0.426,0.445,0.727,0.871,0.672s0.727-0.444,0.672-0.871c-0.055-0.426-0.445-0.728-0.871-0.672
				C47.721,251.943,47.42,252.333,47.475,252.76z M49.021,244.317c0.032,0.257,0.268,0.438,0.523,0.404
				c0.257-0.032,0.438-0.268,0.404-0.524c-0.032-0.256-0.268-0.438-0.523-0.404C49.169,243.826,48.988,244.061,49.021,244.317z
				 M42.236,253.019c0.026,0.2,0.209,0.342,0.41,0.316c0.2-0.026,0.342-0.21,0.315-0.41c-0.025-0.2-0.209-0.342-0.409-0.315
				C42.352,252.635,42.211,252.818,42.236,253.019z"/>
			
				<linearGradient id="SVGID_8_" gradientUnits="userSpaceOnUse" x1="-1236.0649" y1="206.5708" x2="-1236.0649" y2="269.9864" gradientTransform="matrix(-1 0 0 1 -1189.8613 0)">
				<stop  offset="0" style="stop-color:#FFFFFF;stop-opacity:0"/>
				<stop  offset="1" style="stop-color:#FFFFFF"/>
			</linearGradient>
			<path fill="url(#SVGID_8_)" d="M49.427,271.582c-0.63,0.377-1.329,0.644-2.079,0.775c-2.875-0.51-5.064-3.012-5.074-6.035
				l-0.164-55.03c-0.003-1.185,0.955-2.148,2.14-2.151l5.926-0.019c0.042,0.002,0.081,0.009,0.122,0.013l-1.922,0.006
				c-1.186,0.003-2.143,0.967-2.14,2.151l0.165,55.03C46.406,268.568,47.625,270.515,49.427,271.582z"/>
		</g>
		<g>
			
				<linearGradient id="SVGID_9_" gradientUnits="userSpaceOnUse" x1="-1217.9316" y1="166.6475" x2="-1217.9316" y2="253.8011" gradientTransform="matrix(-1 0 0 1 -1189.8613 0)">
				<stop  offset="0" style="stop-color:#FFFFFF;stop-opacity:0"/>
				<stop  offset="1" style="stop-color:#FFFFFF"/>
			</linearGradient>
			<path fill="url(#SVGID_9_)" d="M28.178,272.476L28.178,272.476c3.576-0.011,6.467-2.918,6.456-6.495l-0.177-59.077
				c-0.002-0.602-0.49-1.087-1.092-1.085l-10.774,0.032c-0.601,0.001-1.087,0.49-1.085,1.091l0.177,59.077
				C21.693,269.596,24.602,272.486,28.178,272.476z"/>
			
				<linearGradient id="SVGID_10_" gradientUnits="userSpaceOnUse" x1="-1217.98" y1="226.6504" x2="-1217.98" y2="268.7626" gradientTransform="matrix(-1 0 0 1 -1189.8613 0)">
				<stop  offset="0.0056" style="stop-color:#8BD7F6"/>
				<stop  offset="1" style="stop-color:#CE83B7"/>
			</linearGradient>
			<path fill="url(#SVGID_10_)" d="M28.174,271.342c1.428-0.005,2.768-0.563,3.773-1.575c1.006-1.013,1.557-2.356,1.553-3.783
				l-0.104-34.513h-10.66l0.08,34.546c0.008,2.936,2.404,5.325,5.34,5.325H28.174z"/>
			<path fill="#815EA8" d="M30.832,237.36c0.271-0.035,0.518,0.155,0.553,0.426c0.035,0.27-0.156,0.517-0.426,0.552
				c-0.271,0.035-0.518-0.156-0.553-0.426C30.372,237.642,30.563,237.395,30.832,237.36z M25.984,245.415
				c0.047,0.366,0.383,0.624,0.748,0.577c0.365-0.048,0.624-0.382,0.576-0.748c-0.047-0.365-0.381-0.624-0.747-0.576
				C26.195,244.715,25.938,245.049,25.984,245.415z M24.246,240.541c0.063,0.484,0.506,0.826,0.99,0.764s0.827-0.506,0.765-0.99
				s-0.506-0.827-0.991-0.765C24.525,239.612,24.184,240.056,24.246,240.541z M29.416,251.731c0.057,0.448,0.468,0.765,0.916,0.707
				c0.449-0.058,0.766-0.468,0.707-0.916c-0.057-0.449-0.468-0.766-0.916-0.708C29.674,250.872,29.357,251.283,29.416,251.731z
				 M31.043,242.848c0.035,0.271,0.281,0.461,0.552,0.426c0.27-0.035,0.46-0.281,0.426-0.552c-0.034-0.27-0.282-0.46-0.552-0.426
				C31.199,242.331,31.008,242.578,31.043,242.848z M23.904,252.004c0.027,0.211,0.22,0.359,0.43,0.333
				c0.211-0.027,0.36-0.221,0.333-0.432c-0.026-0.211-0.22-0.359-0.431-0.332S23.877,251.793,23.904,252.004z"/>
			
				<linearGradient id="SVGID_11_" gradientUnits="userSpaceOnUse" x1="-1217.9463" y1="203.5552" x2="-1217.9463" y2="270.2868" gradientTransform="matrix(-1 0 0 1 -1189.8613 0)">
				<stop  offset="0" style="stop-color:#FFFFFF;stop-opacity:0"/>
				<stop  offset="1" style="stop-color:#FFFFFF"/>
			</linearGradient>
			<path fill="url(#SVGID_11_)" d="M31.477,271.554c-0.662,0.396-1.4,0.678-2.188,0.816c-3.026-0.536-5.33-3.17-5.34-6.351
				l-0.172-57.908c-0.004-1.247,1.004-2.261,2.25-2.265l6.236-0.019c0.043,0.001,0.085,0.009,0.128,0.013l-2.022,0.006
				c-1.247,0.004-2.255,1.018-2.251,2.265l0.173,57.908C28.299,268.383,29.581,270.43,31.477,271.554z"/>
		</g>
	</g>
	<g>
		<g>
			<path fill="#F3F6FB" d="M219.854,126.785L219.854,126.785c-7.661-15.215-26.206-21.338-41.421-13.677l-45.219,22.771
				l27.744,55.096l45.22-22.77C221.393,160.543,227.516,141.999,219.854,126.785z"/>
			<linearGradient id="SVGID_12_" gradientUnits="userSpaceOnUse" x1="220.0313" y1="119.0547" x2="141.295" y2="145.1563">
				<stop  offset="0" style="stop-color:#FFFFFF;stop-opacity:0"/>
				<stop  offset="1" style="stop-color:#FFFFFF"/>
			</linearGradient>
			<path opacity="0.74" fill="url(#SVGID_12_)" d="M141.406,148.08l45.219-22.77c12.236-6.162,26.622-3.402,35.772,5.827
				c-8.152-13.948-25.854-19.331-40.482-11.964l-45.219,22.77L141.406,148.08z"/>
			<path fill="#DAE2F3" d="M219.854,126.785L219.854,126.785c-1.321-2.625-2.973-4.972-4.869-7.031
				c1.43,12.479-4.906,25.084-16.778,31.063l-45.219,22.771l-19.146-38.024l-0.627,0.316l27.744,55.096l45.22-22.77
				C221.393,160.543,227.516,141.999,219.854,126.785z"/>
			
				<ellipse transform="matrix(0.4498 0.8932 -0.8932 0.4498 226.8982 -41.4464)" fill="#B9C2DB" cx="147.087" cy="163.427" rx="30.843" ry="2.747"/>
		</g>
		<g>
			<ellipse fill="#F172A6" cx="130.387" cy="191.003" rx="30.844" ry="2.747"/>
			<path fill="#EF5795" d="M130.387,193.75c-17.034,0-30.844-1.229-30.844-2.747v50.629c0,17.034,13.81,30.844,30.844,30.844l0,0
				c17.035,0,30.844-13.81,30.844-30.844v-50.629C161.23,192.521,147.422,193.75,130.387,193.75z"/>
			<path fill="#EE3B82" d="M130.387,193.75c-17.034,0-30.844-1.229-30.844-2.747v50.629c0,17.034,13.81,30.844,30.844,30.844l0,0
				c17.035,0,30.844-13.81,30.844-30.844v-50.629C161.23,192.521,147.422,193.75,130.387,193.75z"/>
			<linearGradient id="SVGID_13_" gradientUnits="userSpaceOnUse" x1="122.0801" y1="268.1328" x2="122.0801" y2="188.335">
				<stop  offset="0" style="stop-color:#FFFFFF;stop-opacity:0"/>
				<stop  offset="1" style="stop-color:#FFFFFF"/>
			</linearGradient>
			<path opacity="0.74" fill="url(#SVGID_13_)" d="M133.079,272.352c2.12-0.184,4.178-0.579,6.152-1.17
				c-12.718-3.806-21.988-15.594-21.988-29.55v-48.144c-4.98-0.209-9.229-0.533-12.314-0.935v49.078
				C104.929,257.758,117.307,270.986,133.079,272.352z"/>
			<path opacity="0.5" fill="#F388B4" d="M141.873,193.553v48.079c0,13.652-8.874,25.225-21.165,29.285
				c3.045,1.006,6.297,1.559,9.679,1.559l0,0c17.035,0,30.844-13.81,30.844-30.844v-50.629
				C161.23,192.158,153.217,193.146,141.873,193.553z"/>
		</g>
	</g>
	<g>
		<g>
			<path fill="#FFFFFF" d="M234.974,272.476h-15.889c-2.997,0-5.427-2.43-5.427-5.427l0,0c0-2.997,2.43-5.427,5.427-5.427h15.889
				c2.998,0,5.428,2.43,5.428,5.427l0,0C240.401,270.046,237.972,272.476,234.974,272.476z"/>
			<path fill="#A865A9" d="M227.029,272.476h-7.944c-2.997,0-5.427-2.43-5.427-5.427l0,0c0-2.997,2.43-5.427,5.427-5.427h7.944
				V272.476z"/>
			<path fill="#EAEDF7" d="M234.974,270.106h-15.889c-2.59,0-4.753-1.815-5.294-4.242c-0.085,0.382-0.133,0.777-0.133,1.185
				c0,2.997,2.43,5.427,5.427,5.427h15.889c2.998,0,5.428-2.43,5.428-5.427c0-0.407-0.049-0.803-0.134-1.185
				C239.727,268.291,237.563,270.106,234.974,270.106z"/>
		</g>
		<g>
			<path fill="#FFFFFF" d="M125.163,272.476h-15.889c-2.997,0-5.427-2.43-5.427-5.427l0,0c0-2.997,2.43-5.427,5.427-5.427h15.89
				c2.997,0,5.427,2.43,5.427,5.427l0,0C130.591,270.046,128.161,272.476,125.163,272.476z"/>
			<path fill="#3EC5E7" d="M117.219,272.476h-7.944c-2.997,0-5.427-2.43-5.427-5.427l0,0c0-2.997,2.43-5.427,5.427-5.427h7.944
				V272.476z"/>
			<path fill="#EAEDF7" d="M125.164,270.106h-15.89c-2.59,0-4.753-1.815-5.293-4.242c-0.086,0.382-0.134,0.777-0.134,1.185
				c0,2.997,2.43,5.427,5.427,5.427h15.89c2.997,0,5.427-2.43,5.427-5.427c0-0.407-0.049-0.803-0.134-1.185
				C129.916,268.291,127.754,270.106,125.164,270.106z"/>
		</g>
	</g>
	<g>
		<path fill="#DAE2F3" d="M193.18,155.236c-4.371-0.421-9.806,8.221-9.806,8.221l-8.178-9.074l-4.192-0.736
			c0,0,6.897,17.954,10.126,19.158s8.095-5.332,8.095-5.332L193.18,155.236z"/>
		<path fill="#FACACA" d="M176.519,155.926c-1.875-4.178-4.915-4.863-5.432-4.603c-0.518,0.261,0.671,1.272,0.671,1.272
			c-0.665,0.617-4.102-0.454-4.569-0.454c-1.135-0.001,2.992,4.29,7.306,4.341C176.28,156.504,176.519,155.926,176.519,155.926z"/>
		<g>
			
				<linearGradient id="SVGID_14_" gradientUnits="userSpaceOnUse" x1="-62.2432" y1="880.0322" x2="-56.7377" y2="921.0175" gradientTransform="matrix(0.3536 -0.9354 0.9354 0.3536 -672.1785 -229.0084)">
				<stop  offset="0" style="stop-color:#FFFFFF;stop-opacity:0"/>
				<stop  offset="1" style="stop-color:#FFFFFF"/>
			</linearGradient>
			<path fill="url(#SVGID_14_)" d="M182.985,153.092L182.985,153.092c-0.484,2.012-2.508,3.25-4.52,2.766l-32.485-7.822
				c-0.748-0.18-1.208-0.934-1.028-1.682l1.102-4.574c0.181-0.748,0.933-1.209,1.682-1.029l32.484,7.822
				C182.231,149.057,183.47,151.08,182.985,153.092z"/>
			
				<linearGradient id="SVGID_15_" gradientUnits="userSpaceOnUse" x1="-884.9795" y1="-118.8291" x2="-840.2198" y2="-97.3517" gradientTransform="matrix(-0.8787 -0.4774 -0.4774 0.8787 -645.5639 -162.1769)">
				<stop  offset="0.0056" style="stop-color:#8BD7F6"/>
				<stop  offset="1" style="stop-color:#CE83B7"/>
			</linearGradient>
			<path fill="url(#SVGID_15_)" d="M146.155,146.913c1.765,0.083,30.438,1.461,30.438,1.461l3.474,0.837
				c1.657,0.398,2.68,2.07,2.281,3.728c-0.03,0.128-0.069,0.253-0.115,0.374c-0.548,1.451-2.102,2.271-3.612,1.907
				c0,0-32.151-7.794-32.864-7.8c-3.889-0.035,0.287,12.401-2.23,13.074C140.922,161.19,140.591,146.653,146.155,146.913z"/>
			<path fill="#FFFFFF" d="M163.233,149.725c0.147,0.055,0.222,0.22,0.166,0.367c-0.056,0.146-0.221,0.221-0.368,0.166
				c-0.147-0.057-0.222-0.221-0.165-0.368C162.921,149.742,163.086,149.668,163.233,149.725z M167.55,148.463
				c-0.075,0.2,0.025,0.423,0.225,0.498c0.199,0.076,0.423-0.025,0.498-0.225s-0.025-0.422-0.225-0.498
				C167.849,148.163,167.625,148.264,167.55,148.463z M175.527,151.863c-0.1,0.265,0.033,0.561,0.298,0.66s0.56-0.033,0.66-0.298
				c0.1-0.265-0.033-0.56-0.298-0.66C175.923,151.466,175.628,151.6,175.527,151.863z M170.533,151.29
				c-0.093,0.245,0.031,0.519,0.275,0.61c0.245,0.093,0.519-0.031,0.611-0.275c0.092-0.244-0.031-0.518-0.276-0.611
				C170.899,150.922,170.626,151.045,170.533,151.29z M165.559,150.908c-0.056,0.146,0.019,0.312,0.166,0.367
				s0.312-0.019,0.367-0.166c0.056-0.146-0.019-0.312-0.166-0.367C165.779,150.687,165.614,150.761,165.559,150.908z
				 M172.454,148.75c-0.044,0.115,0.015,0.244,0.129,0.287c0.115,0.044,0.244-0.014,0.287-0.129
				c0.044-0.115-0.015-0.244-0.129-0.287C172.626,148.578,172.497,148.635,172.454,148.75z"/>
			
				<linearGradient id="SVGID_16_" gradientUnits="userSpaceOnUse" x1="-116.7656" y1="968.708" x2="-116.7656" y2="1007.3128" gradientTransform="matrix(0.2256 -0.9742 0.9742 0.2256 -760.874 -185.6293)">
				<stop  offset="0" style="stop-color:#FFFFFF;stop-opacity:0"/>
				<stop  offset="1" style="stop-color:#FFFFFF"/>
			</linearGradient>
			<path fill="url(#SVGID_16_)" d="M182.094,154.604c0.311-0.322,0.564-0.701,0.746-1.127c0.093-1.775-1.091-3.417-2.883-3.838
				l-32.615-7.653c-0.702-0.165-1.405,0.271-1.569,0.974l-0.824,3.512c-0.006,0.024-0.007,0.049-0.01,0.074l0.267-1.14
				c0.165-0.702,0.868-1.138,1.57-0.974l32.615,7.654C180.722,152.398,181.708,153.389,182.094,154.604z"/>
		</g>
		<g>
			<path fill="#FACACA" d="M192.085,149.859c1.218,1.241,4.268,6.174,3.026,6.629c-1.242,0.455-2.571,1.251-2.571,1.251
				l-3.188-7.109L192.085,149.859z"/>
			<path fill="#332A79" d="M203.685,265.351c-4.314,1.952-11.543,5.846-11.264,6.791c0.279,0.946,10.828-1.271,17.058-3.039
				l-0.64-5.167L203.685,265.351z"/>
			<path fill="#34C1D2" d="M203.439,215.396c0.177,0.993,6.039,48.923,6.039,48.923l-6.856,1.222l-9.289-48.344L203.439,215.396z"/>
			<path fill="#332A79" d="M186.034,267.432c0,0-12.279,3.96-12.279,4.71c0,0.751,17.326,0,17.326,0l-0.606-4.71H186.034z"/>
			<path fill="#3EC5E7" d="M191.922,228.908c0,1.01-0.148,39.448-0.148,39.448l-7.577-0.22l-1.862-40.91L191.922,228.908z"/>
			<path fill="#FACACA" d="M165.315,154.11c-0.977-4.475-4.97-6.224-5.529-6.075c-0.56,0.149,0.396,1.383,0.396,1.383
				c-0.777,0.468-3.92-1.286-4.378-1.383c-1.111-0.233,1.975,5.234,6.258,5.75C166.344,154.301,165.315,154.11,165.315,154.11z"/>
			<path fill="#FFFFFF" d="M197.746,155.223c-4.315-3.954-7.852,0.623-10.618,3.462c-8.783,9.014-12.764,9.153-12.764,9.153
				l-8.397-14.379l-5.811-0.027c0,0,9.139,23.905,12.871,23.788s11.79-3.438,11.79-3.438l-5.146,57.528l21.022,0.257l1.033-16.172
				l3.271,16.225l4.479,0.056C209.479,231.676,208.056,164.672,197.746,155.223z"/>
			<path fill="#DAE2F3" d="M203.827,170.68c-0.958,20.926-6.654,42.447-17.37,60.714l14.237,0.174l1.033-16.172l3.271,16.225
				l4.479,0.055C209.479,231.675,208.666,193.459,203.827,170.68z"/>
			<g>
				<path fill="#FACACA" d="M193.493,147.645c0.253,1.888-0.064,2.877-1.371,3.736c-1.306,0.859-3.574,1.832-5.047,0.485
					c-1.558-1.427-2.797-3.407-3.551-5.518c-1.192-3.341-1.84-6.962-1.146-10.101l8.221,1.623l3.812,4.211L193.493,147.645z"/>
				<path opacity="0.4" fill="#FACACA" d="M182.107,139.215c0.032,2.344,0.586,4.805,1.417,7.134
					c0.754,2.11,1.993,4.091,3.551,5.518c1.271,1.162,3.13,0.597,4.456-0.132C186.975,148.973,183.443,144.331,182.107,139.215z"/>
				<path fill="#4A439B" d="M184.269,138.143c-1.678-0.172-2.925,1.23-5.688-0.137c-2.188-1.082-3.828-6.181,1.511-6.861
					c1.873-0.239,3.532-1.389,5.393-1.719c1.3-0.23,2.644-0.213,3.938,0.053c2.26,0.465,4.56,1.998,4.87,4.285
					c1.963-0.667,4.274,0.414,5.41,2.148c1.126,1.719,2.93,5.463,3.87,8.954c0.941,3.488,5.961,4.952,4.019,8.228
					c-1.564,2.639-7.545,5.981-10.603,5.746c-4.353-0.335-4.172-7.438-4.146-8.715c0.078-3.869,0.484-4.605,0.858-6.135
					c0.09-0.365,0.179-0.75,0.076-1.111c-0.481-1.697-2.234-0.607-2.99,1.272c-0.628,1.561-0.339-1.665-1.499-3.423
					C187.885,138.604,187.037,138.426,184.269,138.143z"/>
				<path opacity="0.4" fill="#4A439B" d="M189.286,140.729c1.16,1.758,0.871,4.983,1.499,3.423
					c0.566-1.407,1.691-2.372,2.423-2.056c-0.649-4.662-5.309-6.959-9.53-6.371c-2.049,0.285-4.84,1.018-6.833,0.236
					c0.374,0.912,1.023,1.693,1.735,2.045c2.764,1.367,4.011-0.035,5.688,0.137C187.037,138.426,187.885,138.604,189.286,140.729z"
					/>
			</g>
		</g>
	</g>
	<g>
		<path fill="#FDE1E1" d="M115.039,162.7c3.271,0.097,5.527-0.313,5.874,0.193s-2.04,1.872-2.04,1.872
			c0.302,0.912,3.384,0.555,3.818,0.794c1.054,0.579-3.168,4.119-6.965,1.577C111.929,164.594,115.039,162.7,115.039,162.7z"/>
		<path fill="#FACACA" d="M109.571,165.41c3.236-0.489,4.812-0.142,5.243,0.295c0.432,0.436-1.102,1.052-1.102,1.052
			c0.46,0.845,4.271,0.925,4.742,1.082c1.14,0.382-3.225,3.636-7.415,1.813C106.85,167.828,109.571,165.41,109.571,165.41z"/>
		<path fill="#DAE2F3" d="M85.063,149.492c5.852,5.627,16.203,19.379,16.203,19.379l7.416-2.282l6.758,2.044
			c0,0-12.615,7.551-17.312,7.036c-4.695-0.516-12.216-13.141-12.216-13.141L85.063,149.492z"/>
		<g>
			
				<linearGradient id="SVGID_17_" gradientUnits="userSpaceOnUse" x1="-179.7705" y1="-104.8672" x2="-174.265" y2="-63.882" gradientTransform="matrix(0.1797 -0.9837 -0.9837 -0.1797 78.8585 -20.2029)">
				<stop  offset="0" style="stop-color:#FFFFFF;stop-opacity:0"/>
				<stop  offset="1" style="stop-color:#FFFFFF"/>
			</linearGradient>
			<path fill="url(#SVGID_17_)" d="M96.911,158.502L96.911,158.502c-0.623,1.973,0.471,4.078,2.444,4.701l31.862,10.062
				c0.734,0.231,1.517-0.176,1.749-0.909l1.417-4.488c0.231-0.732-0.176-1.516-0.909-1.748l-31.863-10.061
				C99.639,155.436,97.534,156.529,96.911,158.502z"/>
			
				<linearGradient id="SVGID_18_" gradientUnits="userSpaceOnUse" x1="74.7832" y1="129.9785" x2="125.3316" y2="154.2336" gradientTransform="matrix(0.999 0.0445 -0.0445 0.999 21.6426 22.7846)">
				<stop  offset="0.0056" style="stop-color:#8BD7F6"/>
				<stop  offset="1" style="stop-color:#CE83B7"/>
			</linearGradient>
			<path fill="url(#SVGID_18_)" d="M132.06,171.896c-1.478-0.968-27.238-14.138-27.238-14.138l-3.407-1.075
				c-1.625-0.514-3.364,0.391-3.878,2.016c-0.04,0.126-0.071,0.252-0.094,0.38c-0.279,1.526,0.628,3.03,2.11,3.499
				c0,0,31.563,9.912,32.176,10.274c3.349,1.978-0.992,11.933,2.545,12.797C136.523,186.2,137.536,175.481,132.06,171.896z"/>
			<path fill="#FFFFFF" d="M115.798,166.141c-0.028,0.155-0.177,0.258-0.332,0.229s-0.258-0.177-0.229-0.332
				s0.177-0.257,0.332-0.229C115.724,165.838,115.826,165.986,115.798,166.141z M112.211,162.053
				c-0.21-0.039-0.411,0.101-0.449,0.311c-0.039,0.209,0.101,0.41,0.31,0.449c0.21,0.038,0.411-0.101,0.45-0.311
				C112.56,162.292,112.421,162.091,112.211,162.053z M103.521,160.702c-0.278-0.051-0.545,0.134-0.596,0.411
				c-0.051,0.279,0.134,0.545,0.412,0.596s0.545-0.133,0.596-0.411S103.8,160.754,103.521,160.702z M108.126,162.832
				c-0.257-0.047-0.504,0.124-0.551,0.381c-0.047,0.258,0.123,0.504,0.381,0.551c0.257,0.048,0.504-0.123,0.551-0.38
				C108.554,163.126,108.384,162.879,108.126,162.832z M112.736,165.291c-0.155-0.027-0.304,0.074-0.332,0.23
				c-0.028,0.154,0.074,0.303,0.229,0.331c0.154,0.028,0.304-0.074,0.332-0.229C112.993,165.469,112.891,165.32,112.736,165.291z
				 M107.993,159.959c-0.121-0.022-0.237,0.058-0.259,0.178c-0.022,0.121,0.058,0.238,0.179,0.26s0.237-0.059,0.259-0.18
				C108.194,160.097,108.114,159.98,107.993,159.959z"/>
			
				<linearGradient id="SVGID_19_" gradientUnits="userSpaceOnUse" x1="-103.2148" y1="-22.4102" x2="-103.2148" y2="16.1956" gradientTransform="matrix(0.3095 -0.9509 -0.9509 -0.3095 133.5507 61.5784)">
				<stop  offset="0" style="stop-color:#FFFFFF;stop-opacity:0"/>
				<stop  offset="1" style="stop-color:#FFFFFF"/>
			</linearGradient>
			<path fill="url(#SVGID_19_)" d="M96.895,160.257c-0.1-0.436-0.122-0.892-0.058-1.351c0.837-1.568,2.698-2.363,4.45-1.799
				l31.887,10.272c0.687,0.222,1.063,0.957,0.843,1.644l-1.106,3.434c-0.009,0.023-0.021,0.045-0.03,0.068l0.359-1.113
				c0.221-0.688-0.156-1.423-0.843-1.645l-31.887-10.272C99.208,159.076,97.852,159.415,96.895,160.257z"/>
		</g>
		<g>
			<path fill="#FACACA" d="M84.021,141.635c-0.854,1.728-4.521,6.541-3.205,7.022c1.315,0.482,4.057,1.491,4.057,1.491l3.137-6.855
				L84.021,141.635z"/>
			<path fill="#FACACA" d="M84.702,138.533c-1.056,1.566-1.244,3.469-0.474,4.773s2.468,1.956,4.259,1.636
				c2.056-0.368,3.966-1.853,5.56-3.407c2.523-2.461,4.69-5.396,5.465-8.466l-7.95-1.984l-5.213,2.143L84.702,138.533z"/>
			<path opacity="0.4" fill="#FACACA" d="M98.184,132.738c-1.839,5.41-6.099,9.488-11.222,12.234
				c0.487,0.064,1.001,0.063,1.525-0.03c2.056-0.368,3.966-1.853,5.56-3.407c2.523-2.461,4.69-5.396,5.465-8.466L98.184,132.738z"/>
			<polygon fill="#332A79" points="79.309,267.034 90.021,272.269 74.392,272.269 74.606,266.945 			"/>
			<path fill="#464FA2" d="M71.265,214.727c-0.02,1.068,3.342,52.219,3.342,52.219l6.732,0.127l0.8-52.141L71.265,214.727z"/>
			<polygon fill="#332A79" points="89.839,267.278 102.848,272.269 84.492,272.269 85.135,267.278 			"/>
			<path fill="#4B56A5" d="M83.602,227.539c0,1.069,1.533,39.739,1.533,39.739h6.734l1.89-41.521L83.602,227.539z"/>
			<path fill="#FACACA" d="M119.571,169.41c3.236-0.489,4.718-1.463,5.149-1.027c0.431,0.437-1.008,2.374-1.008,2.374
				c0.46,0.845,4.944,1.69,5.415,1.847c1.14,0.382-3.897,2.871-8.088,1.048S119.571,169.41,119.571,169.41z"/>
			<path fill="#FFFFFF" d="M80.332,146.734c4.251-2.242,9.894,2.756,12.333,6.174c8.178,11.463,12.306,13.506,12.306,13.506
				l15.034,2.758l1.406,4.867c0,0-13.188,0.598-19.717-1.365c-3.315-0.997-9.307-7.193-9.307-7.193l6.985,64.603l-22.271,0.273
				l-1.095-17.133l-3.466,17.188l-4.746,0.059C67.796,230.471,67.229,153.646,80.332,146.734z"/>
			<path fill="#DAE2F3" d="M78.211,148.598c-10.916,13.624-10.415,81.873-10.415,81.873l4.746-0.059l3.466-17.188l1.095,17.133
				l10.698-0.131C77.434,204.836,75.818,175.467,78.211,148.598z"/>
			<path fill="#4A439B" d="M97.296,134.591c1.679,0.612,2.218,2.526,5.483,2.503c2.587-0.018,6.509-4.119,1.737-7.238
				c-1.676-1.095-2.725-2.957-4.344-4.133c-1.132-0.822-2.421-1.428-3.776-1.772c-2.369-0.604-5.271-0.207-6.625,1.828
				c-1.562-1.543-4.137-1.333-6.149-0.456c-4.968,2.168-0.081,17.685,0.484,16.457c1.717-3.725,1.145-4.35,1.495-5.98
				c0.084-0.389,0.178-0.798,0.442-1.095c1.244-1.395,2.41,0.456,2.261,2.597c-0.124,1.777,1.094-1.43,3.012-2.567
				C93.636,133.357,94.526,133.58,97.296,134.591z"/>
			<path opacity="0.4" fill="#4A439B" d="M105.188,130.357c-0.902,1.271-2.21,2.2-4.084,2.494c-2.905,0.455-5.726-2.471-8.43-1.25
				c-1.999,0.901-2.994,3.949-3.851,5.807c0.518-0.68,1.388-2.02,2.493-2.675c2.319-1.376,3.21-1.153,5.979-0.143
				c1.679,0.612,2.218,2.526,5.483,2.503C105.229,137.076,108.865,133.397,105.188,130.357z"/>
		</g>
	</g>
</g>
</svg>
