<?xml version="1.0" encoding="utf-8"?>
<!-- Generator: Adobe Illustrator 16.0.0, SVG Export Plug-In . SVG Version: 6.00 Build 0)  -->
<!DOCTYPE svg PUBLIC "-//W3C//DTD SVG 1.1//EN" "http://www.w3.org/Graphics/SVG/1.1/DTD/svg11.dtd">
<svg version="1.1" id="Layer_1" xmlns="http://www.w3.org/2000/svg" xmlns:xlink="http://www.w3.org/1999/xlink" x="0px" y="0px"
	 width="302.027px" height="275.992px" viewBox="0 0 302.027 275.992" enable-background="new 0 0 302.027 275.992"
	 xml:space="preserve">
<g>
	<g opacity="0.65">
		<g>
			<path fill="#FFFFFF" d="M176.764,94.773h-2.917c-0.21,0-0.381-0.171-0.381-0.382v-2.917c0-0.21-0.171-0.381-0.382-0.381h-2.865
				c-0.211,0-0.382,0.171-0.382,0.381v2.917c0,0.211-0.17,0.382-0.381,0.382h-2.916c-0.211,0-0.382,0.17-0.382,0.381v2.865
				c0,0.211,0.171,0.382,0.382,0.382h2.916c0.211,0,0.381,0.171,0.381,0.382v2.916c0,0.211,0.171,0.381,0.382,0.381h2.865
				c0.211,0,0.382-0.17,0.382-0.381v-2.916c0-0.211,0.171-0.382,0.381-0.382h2.917c0.21,0,0.381-0.171,0.381-0.382v-2.865
				C177.145,94.943,176.974,94.773,176.764,94.773z"/>
			<path fill="#FFFFFF" d="M53.597,158.92h-3.268c-0.235,0-0.427-0.192-0.427-0.428v-3.268c0-0.236-0.191-0.428-0.428-0.428h-3.21
				c-0.236,0-0.428,0.191-0.428,0.428v3.268c0,0.235-0.19,0.428-0.427,0.428h-3.268c-0.236,0-0.428,0.19-0.428,0.427v3.21
				c0,0.236,0.191,0.428,0.428,0.428h3.268c0.236,0,0.427,0.191,0.427,0.427v3.268c0,0.235,0.191,0.427,0.428,0.427h3.21
				c0.236,0,0.428-0.191,0.428-0.427v-3.268c0-0.235,0.191-0.427,0.427-0.427h3.268c0.235,0,0.427-0.191,0.427-0.428v-3.21
				C54.023,159.11,53.832,158.92,53.597,158.92z"/>
			<path fill="#FFFFFF" d="M237.844,155.162h-2.061c-0.235,0-0.427-0.191-0.427-0.428v-2.061c0-0.236-0.191-0.428-0.428-0.428h-2.02
				c-0.236,0-0.428,0.191-0.428,0.428v2.061c0,0.236-0.191,0.428-0.428,0.428h-2.06c-0.236,0-0.428,0.191-0.428,0.427v2.021
				c0,0.235,0.191,0.427,0.428,0.427h2.06c0.236,0,0.428,0.191,0.428,0.428v2.06c0,0.236,0.191,0.428,0.428,0.428h2.02
				c0.236,0,0.428-0.191,0.428-0.428v-2.06c0-0.236,0.191-0.428,0.427-0.428h2.061c0.236,0,0.428-0.191,0.428-0.427v-2.021
				C238.271,155.354,238.08,155.162,237.844,155.162z"/>
			<path fill="#FFFFFF" d="M110.459,105.419h-1.237c-0.236,0-0.427-0.191-0.427-0.427v-1.238c0-0.236-0.191-0.428-0.428-0.428
				h-1.209c-0.235,0-0.427,0.191-0.427,0.428v1.238c0,0.235-0.191,0.427-0.428,0.427h-1.237c-0.236,0-0.428,0.191-0.428,0.428v1.208
				c0,0.236,0.191,0.428,0.428,0.428h1.237c0.236,0,0.428,0.191,0.428,0.428v1.237c0,0.236,0.191,0.428,0.427,0.428h1.209
				c0.236,0,0.428-0.191,0.428-0.428v-1.237c0-0.236,0.19-0.428,0.427-0.428h1.237c0.236,0,0.428-0.191,0.428-0.428v-1.208
				C110.887,105.61,110.695,105.419,110.459,105.419z"/>
		</g>
		<g>
			<circle fill="#FFFFFF" cx="157.06" cy="128.793" r="3.092"/>
			<circle fill="#FFFFFF" cx="224.633" cy="100.203" r="1.808"/>
			<circle fill="#FFFFFF" cx="58.012" cy="120.617" r="1.808"/>
			<circle fill="#FFFFFF" cx="119.994" cy="142.701" r="1.808"/>
			<circle fill="#FFFFFF" cx="59.771" cy="187.581" r="1.808"/>
			<circle fill="#FFFFFF" cx="131.21" cy="92.24" r="1.808"/>
			<circle fill="#FFFFFF" cx="252.289" cy="175.092" r="1.808"/>
			<circle fill="#FFFFFF" cx="29.823" cy="148.722" r="1.808"/>
			<circle fill="#FFFFFF" cx="222.825" cy="173.284" r="1.808"/>
		</g>
	</g>
</g>
</svg>
