<?xml version="1.0" encoding="utf-8"?>
<!-- Generator: Adobe Illustrator 16.0.0, SVG Export Plug-In . SVG Version: 6.00 Build 0)  -->
<!DOCTYPE svg PUBLIC "-//W3C//DTD SVG 1.1//EN" "http://www.w3.org/Graphics/SVG/1.1/DTD/svg11.dtd">
<svg version="1.1" id="Layer_1" xmlns="http://www.w3.org/2000/svg" xmlns:xlink="http://www.w3.org/1999/xlink" x="0px" y="0px"
	 width="500px" height="188.136px" viewBox="0 0 500 188.136" enable-background="new 0 0 500 188.136" xml:space="preserve">
<g>
	<path fill="#009999" d="M224.258,135.414l-13.245-12.958c-2.197-2.153-5.88-1.34-6.972,1.536l-9.567,25.195l-1.718,4.532
		c-1.483,3.903,2.949,7.395,6.397,5.034l24.53-16.771C225.903,140.468,226.182,137.297,224.258,135.414z"/>
	<path fill="#009999" d="M389.663,4.325L105.037,60.548c-4.402,0.87-4.653,7.076-0.335,8.298l60.106,17
		c0.809,0.231,1.667,0.21,2.468-0.045l131.682-42.34c4.732-1.524,7.805,4.906,3.647,7.634l-87.128,57.16
		c-2.27,1.489-2.591,4.686-0.667,6.595l53.237,52.875c1.828,1.813,4.832,1.606,6.397-0.439L393.879,11.104
		C396.269,7.979,393.519,3.563,389.663,4.325z"/>
	<path fill="#009999" d="M279.247,55.765L174.061,92.543c-1.943,0.675-3.124,2.65-2.807,4.681l7.488,48.145
		c0.673,4.328,6.65,4.952,8.206,0.859l13.827-36.414l0.695-1.833l2.021-1.267l77.032-48.294
		C282.017,57.479,280.911,55.182,279.247,55.765z"/>
</g>
<g>
	<path fill="#009999" d="M446.752,57.806h-56.53c-1.18,0-2.134-0.952-2.134-2.132c0-1.183,0.954-2.135,2.134-2.135h56.53
		c1.179,0,2.134,0.953,2.134,2.135C448.886,56.854,447.931,57.806,446.752,57.806z"/>
</g>
<g>
	<path fill="#009999" d="M112.669,162.026h-62.64c-1.18,0-2.134-0.951-2.134-2.128c0-1.182,0.954-2.137,2.134-2.137h62.64
		c1.181,0,2.134,0.955,2.134,2.137C114.803,161.075,113.85,162.026,112.669,162.026z"/>
</g>
<g>
	<path fill="#009999" d="M126.909,104.463H5.938c-1.179,0-2.133-0.957-2.133-2.139c0-1.176,0.954-2.127,2.133-2.127h120.972
		c1.18,0,2.134,0.952,2.134,2.127C129.043,103.506,128.089,104.463,126.909,104.463z"/>
</g>
<g>
	<path fill="#009999" d="M362.07,129.648h-23.742c-1.181,0-2.136-0.956-2.136-2.134c0-1.177,0.955-2.134,2.136-2.134h23.742
		c1.178,0,2.132,0.957,2.132,2.134C364.202,128.692,363.248,129.648,362.07,129.648z"/>
</g>
<g>
	<path fill="#009999" d="M73.81,67.118H16.18c-1.18,0-2.133-0.953-2.133-2.134c0-1.182,0.954-2.133,2.133-2.133h57.63
		c1.179,0,2.133,0.951,2.133,2.133C75.943,66.165,74.989,67.118,73.81,67.118z"/>
</g>
<g>
	<path fill="#009999" d="M493.612,16.593h-73.485c-1.18,0-2.133-0.957-2.133-2.139c0-1.176,0.953-2.128,2.133-2.128h73.485
		c1.181,0,2.134,0.953,2.134,2.128C495.746,15.637,494.793,16.593,493.612,16.593z"/>
</g>
<g>
	<path fill="#009999" d="M482.474,93.475h-77.971c-1.179,0-2.135-0.958-2.135-2.139c0-1.177,0.956-2.133,2.135-2.133h77.971
		c1.178,0,2.135,0.956,2.135,2.133C484.608,92.517,483.651,93.475,482.474,93.475z"/>
</g>
<g>
	<path fill="#009999" d="M384.682,183.917h-57.661c-1.18,0-2.133-0.956-2.133-2.134c0-1.176,0.953-2.133,2.133-2.133h57.661
		c1.18,0,2.134,0.957,2.134,2.133C386.815,182.961,385.861,183.917,384.682,183.917z"/>
</g>
</svg>
