<?xml version="1.0" encoding="utf-8"?>
<!-- Generator: Adobe Illustrator 16.0.0, SVG Export Plug-In . SVG Version: 6.00 Build 0)  -->
<!DOCTYPE svg PUBLIC "-//W3C//DTD SVG 1.1//EN" "http://www.w3.org/Graphics/SVG/1.1/DTD/svg11.dtd">
<svg version="1.1" id="Layer_1" xmlns="http://www.w3.org/2000/svg" xmlns:xlink="http://www.w3.org/1999/xlink" x="0px" y="0px"
	 width="500px" height="406px" viewBox="0 0 500 406" enable-background="new 0 0 500 406" xml:space="preserve">
<path fill="#FCE8F1" d="M107.717,365.622c0,0-31.293-27.586-72.76-119.151C-6.511,154.906,9.272,47.091,83.797,36.724
	c74.524-10.367,132.392,33.774,132.392,33.774s83.122-26.555,149.469-8.395c66.348,18.161,59.818,107.153,59.818,107.153
	s41.838,24.712,58.912,80.859c17.074,56.146-41.662,115.267-41.662,115.267L107.717,365.622z"/>
<path fill="#08B3BF" d="M-217.197,448.818h-669.126c-3.702,0-6.703-3.001-6.703-6.703v-0.187c0-3.702,3.001-6.703,6.703-6.703
	h669.126c3.702,0,6.703,3.001,6.703,6.703v0.187C-210.494,445.817-213.496,448.818-217.197,448.818z"/>
<path fill="#EAE8F2" d="M395.131,313.663H128.819c-4.614,0-8.354-3.489-8.354-7.793l-5.066-182.319c0-4.305,3.74-7.794,8.354-7.794
	h278.975c4.615,0,8.354,3.489,8.354,7.794l-7.6,182.319C403.482,310.174,399.742,313.663,395.131,313.663z"/>
<path fill="#686E9C" d="M407.838,117.385c0.887,1.238,1.404,2.725,1.404,4.326l-7.598,182.319c0,4.305-3.742,7.793-8.355,7.793
	H126.979c-1.924,0-3.696-0.606-5.109-1.628c1.499,2.091,4.053,3.468,6.95,3.468h266.312c4.611,0,8.352-3.489,8.352-7.793
	l7.6-182.319C411.082,121.042,409.813,118.81,407.838,117.385z"/>
<path fill="#85B2DE" d="M132.047,292.321l-5.066-163.427c0-4.304,3.74-7.793,8.354-7.793h258.724c4.613,0,8.354,3.489,8.354,7.793
	l-7.598,163.427c0,4.304-3.742,7.793-8.355,7.793H140.4C135.787,300.114,132.047,296.625,132.047,292.321z"/>
<linearGradient id="SVGID_1_" gradientUnits="userSpaceOnUse" x1="274.916" y1="338.7354" x2="261.2467" y2="128.3816">
	<stop  offset="0" style="stop-color:#0982C1"/>
	<stop  offset="1" style="stop-color:#93D9F8"/>
</linearGradient>
<path fill="url(#SVGID_1_)" d="M131.667,296.329l-5.066-163.426c0-4.304,3.74-7.793,8.354-7.793H393.68
	c4.613,0,8.354,3.489,8.354,7.793l-7.6,163.426c0,4.305-3.74,7.793-8.354,7.793H140.021
	C135.407,304.122,131.667,300.634,131.667,296.329z"/>
<linearGradient id="SVGID_2_" gradientUnits="userSpaceOnUse" x1="271.3613" y1="328.2588" x2="263.0401" y2="200.2055">
	<stop  offset="0" style="stop-color:#0982C1"/>
	<stop  offset="1" style="stop-color:#93D9F8"/>
</linearGradient>
<path opacity="0.32" fill="url(#SVGID_2_)" d="M349.816,222.556c-31.391,55.209-86.07,30.859-160.45,19.479
	c-24.986-3.822-44.27,4.306-58.861,16.788l1.163,37.506c0,4.305,3.74,7.793,8.354,7.793H386.08c4.613,0,8.354-3.488,8.354-7.793
	l5.209-112.002C376.686,195.268,358.07,208.038,349.816,222.556z"/>
<g>
	<path fill="#B3D4F0" d="M384.646,294.249h-4.662c-0.141,0-0.254-0.112-0.254-0.253c0-0.14,0.113-0.253,0.254-0.253h4.18
		l0.064-1.412c0.006-0.14,0.129-0.26,0.266-0.241c0.139,0.007,0.248,0.125,0.24,0.266L384.646,294.249z M373.91,294.249h-6.076
		c-0.141,0-0.254-0.112-0.254-0.253c0-0.14,0.113-0.253,0.254-0.253h6.076c0.139,0,0.252,0.113,0.252,0.253
		C374.162,294.137,374.049,294.249,373.91,294.249z M361.76,294.249h-6.078c-0.139,0-0.252-0.112-0.252-0.253
		c0-0.14,0.113-0.253,0.252-0.253h6.078c0.139,0,0.252,0.113,0.252,0.253C362.012,294.137,361.898,294.249,361.76,294.249z
		 M349.607,294.249h-6.076c-0.139,0-0.252-0.112-0.252-0.253c0-0.14,0.113-0.253,0.252-0.253h6.076c0.139,0,0.254,0.113,0.254,0.253
		C349.861,294.137,349.746,294.249,349.607,294.249z M337.455,294.249h-6.074c-0.141,0-0.254-0.112-0.254-0.253
		c0-0.14,0.113-0.253,0.254-0.253h6.074c0.141,0,0.256,0.113,0.256,0.253C337.711,294.137,337.596,294.249,337.455,294.249z
		 M325.305,294.249h-6.074c-0.141,0-0.254-0.112-0.254-0.253c0-0.14,0.113-0.253,0.254-0.253h6.074c0.141,0,0.254,0.113,0.254,0.253
		C325.559,294.137,325.445,294.249,325.305,294.249z M313.154,294.249h-6.076c-0.139,0-0.252-0.112-0.252-0.253
		c0-0.14,0.113-0.253,0.252-0.253h6.076c0.139,0,0.252,0.113,0.252,0.253C313.406,294.137,313.293,294.249,313.154,294.249z
		 M301.004,294.249h-6.078c-0.137,0-0.252-0.112-0.252-0.253c0-0.14,0.115-0.253,0.252-0.253h6.078c0.139,0,0.252,0.113,0.252,0.253
		C301.256,294.137,301.143,294.249,301.004,294.249z M288.852,294.249h-6.074c-0.141,0-0.254-0.112-0.254-0.253
		c0-0.14,0.113-0.253,0.254-0.253h6.074c0.141,0,0.254,0.113,0.254,0.253C289.105,294.137,288.992,294.249,288.852,294.249z
		 M276.701,294.249h-6.076c-0.139,0-0.252-0.112-0.252-0.253c0-0.14,0.113-0.253,0.252-0.253h6.076c0.141,0,0.252,0.113,0.252,0.253
		C276.953,294.137,276.842,294.249,276.701,294.249z M264.551,294.249h-6.076c-0.141,0-0.254-0.112-0.254-0.253
		c0-0.14,0.113-0.253,0.254-0.253h6.076c0.139,0,0.252,0.113,0.252,0.253C264.803,294.137,264.689,294.249,264.551,294.249z
		 M252.398,294.249h-6.075c-0.14,0-0.253-0.112-0.253-0.253c0-0.14,0.113-0.253,0.253-0.253h6.075c0.141,0,0.254,0.113,0.254,0.253
		C252.652,294.137,252.539,294.249,252.398,294.249z M240.248,294.249h-6.075c-0.14,0-0.254-0.112-0.254-0.253
		c0-0.14,0.114-0.253,0.254-0.253h6.075c0.139,0,0.253,0.113,0.253,0.253C240.501,294.137,240.387,294.249,240.248,294.249z
		 M228.097,294.249h-6.075c-0.14,0-0.253-0.112-0.253-0.253c0-0.14,0.113-0.253,0.253-0.253h6.075c0.14,0,0.253,0.113,0.253,0.253
		C228.35,294.137,228.237,294.249,228.097,294.249z M215.946,294.249h-6.076c-0.14,0-0.253-0.112-0.253-0.253
		c0-0.14,0.113-0.253,0.253-0.253h6.076c0.14,0,0.253,0.113,0.253,0.253C216.199,294.137,216.086,294.249,215.946,294.249z
		 M203.795,294.249h-6.076c-0.14,0-0.253-0.112-0.253-0.253c0-0.14,0.113-0.253,0.253-0.253h6.076c0.14,0,0.253,0.113,0.253,0.253
		C204.048,294.137,203.935,294.249,203.795,294.249z M191.644,294.249h-6.075c-0.141,0-0.254-0.112-0.254-0.253
		c0-0.14,0.113-0.253,0.254-0.253h6.075c0.14,0,0.253,0.113,0.253,0.253C191.897,294.137,191.784,294.249,191.644,294.249z
		 M179.494,294.249h-6.076c-0.141,0-0.253-0.112-0.253-0.253c0-0.14,0.113-0.253,0.253-0.253h6.076c0.139,0,0.252,0.113,0.252,0.253
		C179.746,294.137,179.633,294.249,179.494,294.249z M167.342,294.249h-6.076c-0.14,0-0.253-0.112-0.253-0.253
		c0-0.14,0.113-0.253,0.253-0.253h6.076c0.14,0,0.253,0.113,0.253,0.253C167.595,294.137,167.482,294.249,167.342,294.249z
		 M155.191,294.249h-6.076c-0.14,0-0.254-0.112-0.254-0.253c0-0.14,0.114-0.253,0.254-0.253h6.076c0.14,0,0.253,0.113,0.253,0.253
		C155.444,294.137,155.331,294.249,155.191,294.249z M143.04,294.249h-1.56l-0.196-6.317c-0.004-0.14,0.105-0.256,0.245-0.261
		c0.144,0.005,0.257,0.105,0.261,0.245l0.18,5.827h1.069c0.139,0,0.252,0.113,0.252,0.253
		C143.292,294.137,143.179,294.249,143.04,294.249z M384.766,286.526c-0.006,0-0.01,0-0.014,0c-0.139-0.006-0.248-0.125-0.242-0.263
		l0.283-6.07c0.008-0.14,0.135-0.261,0.266-0.24c0.139,0.006,0.248,0.125,0.24,0.264l-0.283,6.069
		C385.012,286.422,384.898,286.526,384.766,286.526z M141.349,282.104c-0.136,0-0.249-0.107-0.253-0.245l-0.188-6.072
		c-0.004-0.141,0.105-0.257,0.245-0.261c0.145,0.002,0.257,0.105,0.261,0.245l0.188,6.073c0.005,0.14-0.104,0.255-0.245,0.26
		C141.354,282.104,141.352,282.104,141.349,282.104z M385.33,274.39c-0.006,0-0.01,0-0.014,0c-0.139-0.007-0.248-0.126-0.24-0.266
		l0.283-6.068c0.004-0.14,0.123-0.253,0.264-0.241c0.141,0.006,0.248,0.124,0.24,0.265l-0.281,6.069
		C385.574,274.283,385.463,274.39,385.33,274.39z M140.973,269.96c-0.136,0-0.249-0.109-0.252-0.246l-0.188-6.071
		c-0.005-0.141,0.105-0.258,0.246-0.263c0.139,0,0.256,0.107,0.26,0.246l0.188,6.073c0.004,0.139-0.105,0.256-0.245,0.261
		C140.978,269.96,140.976,269.96,140.973,269.96z M385.893,262.251c-0.004,0-0.008,0-0.012,0c-0.139-0.006-0.248-0.124-0.24-0.265
		l0.281-6.067c0.006-0.141,0.131-0.257,0.266-0.242c0.139,0.007,0.246,0.125,0.24,0.265l-0.281,6.068
		C386.139,262.146,386.027,262.251,385.893,262.251z M140.596,257.813c-0.136,0-0.248-0.107-0.253-0.245l-0.188-6.072
		c-0.004-0.141,0.106-0.257,0.246-0.261c0.141,0.008,0.256,0.104,0.261,0.245l0.188,6.072c0.004,0.14-0.105,0.257-0.245,0.261
		C140.602,257.813,140.599,257.813,140.596,257.813z M386.457,250.114c-0.004,0-0.008,0-0.012,0
		c-0.139-0.009-0.246-0.125-0.24-0.265l0.281-6.069c0.008-0.14,0.121-0.257,0.266-0.241c0.139,0.007,0.248,0.123,0.24,0.264
		l-0.283,6.07C386.705,250.009,386.592,250.114,386.457,250.114z M140.22,245.669c-0.136,0-0.249-0.108-0.252-0.246l-0.188-6.072
		c-0.004-0.14,0.105-0.257,0.245-0.26c0.151-0.009,0.257,0.105,0.261,0.244l0.188,6.073c0.004,0.14-0.105,0.256-0.245,0.261
		C140.225,245.669,140.222,245.669,140.22,245.669z M387.021,237.975c-0.004,0-0.008,0-0.012,0c-0.141-0.006-0.248-0.123-0.24-0.264
		l0.281-6.069c0.006-0.14,0.127-0.259,0.266-0.24c0.139,0.007,0.248,0.124,0.24,0.265l-0.281,6.068
		C387.27,237.869,387.156,237.975,387.021,237.975z M139.843,233.524c-0.136,0-0.249-0.109-0.253-0.246l-0.188-6.072
		c-0.004-0.139,0.106-0.257,0.246-0.261c0.148-0.002,0.256,0.105,0.261,0.244l0.188,6.072c0.004,0.141-0.105,0.258-0.246,0.263
		C139.849,233.524,139.845,233.524,139.843,233.524z M387.586,225.838c-0.004,0-0.008,0-0.012-0.001
		c-0.139-0.006-0.248-0.124-0.24-0.265l0.281-6.068c0.008-0.14,0.135-0.26,0.266-0.241c0.139,0.006,0.248,0.125,0.24,0.265
		l-0.283,6.069C387.832,225.732,387.721,225.838,387.586,225.838z M139.467,221.378c-0.136,0-0.249-0.107-0.253-0.245l-0.188-6.07
		c-0.004-0.143,0.105-0.259,0.245-0.263c0.155-0.002,0.256,0.105,0.261,0.245l0.188,6.072c0.004,0.141-0.105,0.257-0.245,0.261
		C139.472,221.378,139.469,221.378,139.467,221.378z M388.15,213.7c-0.004,0-0.008,0-0.012,0c-0.139-0.007-0.248-0.125-0.242-0.266
		l0.285-6.068c0.004-0.141,0.121-0.254,0.262-0.241c0.141,0.006,0.25,0.126,0.242,0.265l-0.283,6.068
		C388.396,213.594,388.285,213.7,388.15,213.7z M139.09,209.233c-0.136,0-0.248-0.108-0.252-0.245l-0.188-6.072
		c-0.004-0.141,0.105-0.256,0.245-0.261c0.144,0,0.256,0.104,0.261,0.245l0.188,6.072c0.004,0.141-0.105,0.256-0.246,0.261
		C139.096,209.233,139.093,209.233,139.09,209.233z M388.715,201.563c-0.004,0-0.008,0-0.012-0.002
		c-0.141-0.007-0.248-0.124-0.24-0.264l0.281-6.069c0.008-0.141,0.145-0.248,0.266-0.242c0.139,0.008,0.246,0.127,0.24,0.265
		l-0.281,6.07C388.961,201.456,388.85,201.563,388.715,201.563z M138.713,197.089c-0.136,0-0.249-0.109-0.253-0.246l-0.188-6.072
		c-0.004-0.14,0.105-0.257,0.245-0.26c0.142-0.017,0.257,0.104,0.261,0.245l0.188,6.072c0.005,0.138-0.105,0.256-0.244,0.261
		C138.719,197.089,138.716,197.089,138.713,197.089z M389.279,189.424c-0.002,0-0.008,0-0.012,0
		c-0.139-0.007-0.248-0.125-0.24-0.266l0.281-6.067c0.006-0.141,0.119-0.247,0.266-0.241c0.139,0.005,0.246,0.125,0.24,0.264
		l-0.281,6.07C389.525,189.318,389.414,189.424,389.279,189.424z M138.337,184.942c-0.136,0-0.249-0.107-0.253-0.243l-0.188-6.075
		c-0.003-0.14,0.106-0.256,0.245-0.261c0.141,0.002,0.256,0.106,0.261,0.246l0.188,6.072c0.004,0.14-0.105,0.257-0.246,0.261
		C138.343,184.942,138.34,184.942,138.337,184.942z M389.844,177.286c-0.004,0-0.008,0-0.012,0c-0.141-0.007-0.248-0.125-0.24-0.266
		l0.281-6.068c0.008-0.14,0.125-0.248,0.266-0.241c0.139,0.007,0.248,0.125,0.24,0.265l-0.283,6.068
		C390.092,177.181,389.977,177.286,389.844,177.286z M137.961,172.798c-0.136,0-0.249-0.108-0.253-0.245l-0.189-6.072
		c-0.004-0.141,0.106-0.257,0.246-0.261c0.137-0.003,0.256,0.105,0.261,0.244l0.188,6.073c0.004,0.141-0.105,0.257-0.245,0.261
		C137.966,172.798,137.963,172.798,137.961,172.798z M390.408,165.148c-0.004,0-0.008,0-0.012,0
		c-0.141-0.007-0.248-0.125-0.24-0.265l0.281-6.069c0.008-0.14,0.133-0.25,0.264-0.241c0.141,0.007,0.248,0.126,0.242,0.265
		l-0.281,6.069C390.656,165.043,390.543,165.148,390.408,165.148z M137.584,160.652c-0.136,0-0.249-0.107-0.252-0.245l-0.188-6.073
		c-0.004-0.139,0.105-0.256,0.245-0.26c0.151-0.007,0.256,0.105,0.261,0.245l0.188,6.072c0.004,0.141-0.105,0.258-0.245,0.262
		C137.589,160.652,137.587,160.652,137.584,160.652z M390.973,153.011c-0.004,0-0.008,0-0.012,0
		c-0.141-0.006-0.248-0.125-0.24-0.265l0.281-6.069c0.006-0.139,0.123-0.251,0.266-0.241c0.139,0.007,0.246,0.125,0.24,0.265
		l-0.283,6.069C391.219,152.905,391.107,153.011,390.973,153.011z M137.208,148.507c-0.136,0-0.248-0.108-0.252-0.246l-0.188-6.072
		c-0.004-0.141,0.105-0.257,0.246-0.261c0.135-0.012,0.256,0.105,0.26,0.246l0.189,6.072c0.004,0.14-0.106,0.256-0.246,0.261
		C137.213,148.507,137.211,148.507,137.208,148.507z M391.537,140.873c-0.004,0-0.008,0-0.012,0
		c-0.139-0.006-0.248-0.125-0.242-0.264l0.238-5.12h-0.42c-0.141,0-0.254-0.113-0.254-0.253s0.113-0.253,0.254-0.253h0.951
		l-0.264,5.648C391.785,140.767,391.672,140.873,391.537,140.873z M136.832,136.362c-0.137,0-0.249-0.107-0.253-0.245l-0.036-1.135
		h5.462c0.141,0,0.253,0.113,0.253,0.253s-0.113,0.253-0.253,0.253h-4.94l0.019,0.613c0.004,0.14-0.105,0.257-0.245,0.261
		C136.836,136.362,136.834,136.362,136.832,136.362z M385.025,135.488h-6.074c-0.141,0-0.254-0.113-0.254-0.253
		s0.113-0.253,0.254-0.253h6.074c0.141,0,0.254,0.113,0.254,0.253S385.166,135.488,385.025,135.488z M372.875,135.488h-6.076
		c-0.141,0-0.254-0.113-0.254-0.253s0.113-0.253,0.254-0.253h6.076c0.141,0,0.254,0.113,0.254,0.253
		S373.016,135.488,372.875,135.488z M360.725,135.488h-6.076c-0.139,0-0.254-0.113-0.254-0.253s0.115-0.253,0.254-0.253h6.076
		c0.139,0,0.252,0.113,0.252,0.253S360.863,135.488,360.725,135.488z M348.572,135.488h-6.074c-0.141,0-0.254-0.113-0.254-0.253
		s0.113-0.253,0.254-0.253h6.074c0.141,0,0.254,0.113,0.254,0.253S348.713,135.488,348.572,135.488z M336.422,135.488h-6.074
		c-0.141,0-0.254-0.113-0.254-0.253s0.113-0.253,0.254-0.253h6.074c0.141,0,0.254,0.113,0.254,0.253
		S336.563,135.488,336.422,135.488z M324.27,135.488h-6.074c-0.139,0-0.252-0.113-0.252-0.253s0.113-0.253,0.252-0.253h6.074
		c0.141,0,0.254,0.113,0.254,0.253S324.41,135.488,324.27,135.488z M312.119,135.488h-6.076c-0.139,0-0.252-0.113-0.252-0.253
		s0.113-0.253,0.252-0.253h6.076c0.141,0,0.254,0.113,0.254,0.253S312.26,135.488,312.119,135.488z M299.969,135.488h-6.076
		c-0.139,0-0.252-0.113-0.252-0.253s0.113-0.253,0.252-0.253h6.076c0.141,0,0.252,0.113,0.252,0.253
		S300.109,135.488,299.969,135.488z M287.818,135.488h-6.076c-0.141,0-0.254-0.113-0.254-0.253s0.113-0.253,0.254-0.253h6.076
		c0.141,0,0.254,0.113,0.254,0.253S287.959,135.488,287.818,135.488z M275.666,135.488h-6.074c-0.141,0-0.254-0.113-0.254-0.253
		s0.113-0.253,0.254-0.253h6.074c0.141,0,0.254,0.113,0.254,0.253S275.807,135.488,275.666,135.488z M263.516,135.488h-6.076
		c-0.139,0-0.252-0.113-0.252-0.253s0.113-0.253,0.252-0.253h6.076c0.141,0,0.254,0.113,0.254,0.253
		S263.656,135.488,263.516,135.488z M251.365,135.488h-6.076c-0.14,0-0.253-0.113-0.253-0.253s0.113-0.253,0.253-0.253h6.076
		c0.139,0,0.252,0.113,0.252,0.253S251.504,135.488,251.365,135.488z M239.214,135.488h-6.076c-0.14,0-0.253-0.113-0.253-0.253
		s0.113-0.253,0.253-0.253h6.076c0.14,0,0.254,0.113,0.254,0.253S239.354,135.488,239.214,135.488z M227.063,135.488h-6.076
		c-0.14,0-0.253-0.113-0.253-0.253s0.113-0.253,0.253-0.253h6.076c0.14,0,0.253,0.113,0.253,0.253S227.203,135.488,227.063,135.488z
		 M214.912,135.488h-6.076c-0.14,0-0.253-0.113-0.253-0.253s0.113-0.253,0.253-0.253h6.076c0.14,0,0.253,0.113,0.253,0.253
		S215.052,135.488,214.912,135.488z M202.761,135.488h-6.076c-0.14,0-0.253-0.113-0.253-0.253s0.113-0.253,0.253-0.253h6.076
		c0.14,0,0.253,0.113,0.253,0.253S202.901,135.488,202.761,135.488z M190.61,135.488h-6.076c-0.14,0-0.253-0.113-0.253-0.253
		s0.113-0.253,0.253-0.253h6.076c0.14,0,0.253,0.113,0.253,0.253S190.75,135.488,190.61,135.488z M178.459,135.488h-6.076
		c-0.14,0-0.253-0.113-0.253-0.253s0.113-0.253,0.253-0.253h6.076c0.14,0,0.253,0.113,0.253,0.253S178.599,135.488,178.459,135.488z
		 M166.308,135.488h-6.076c-0.14,0-0.253-0.113-0.253-0.253s0.113-0.253,0.253-0.253h6.076c0.14,0,0.253,0.113,0.253,0.253
		S166.448,135.488,166.308,135.488z M154.156,135.488h-6.075c-0.14,0-0.253-0.113-0.253-0.253s0.113-0.253,0.253-0.253h6.075
		c0.14,0,0.254,0.113,0.254,0.253S154.296,135.488,154.156,135.488z"/>
</g>
<linearGradient id="SVGID_3_" gradientUnits="userSpaceOnUse" x1="287.6846" y1="302.7881" x2="290.7223" y2="159.0014">
	<stop  offset="0" style="stop-color:#73A6D9"/>
	<stop  offset="1" style="stop-color:#A1CFF0"/>
</linearGradient>
<path fill="url(#SVGID_3_)" d="M256.152,160.51c0,0,3.6,36.454,2.053,48.857l-8.888,94.17h76.704c0,0-4.303-80.247-4.303-86.321
	c0-6.077-1.266-56.706-1.266-56.706l-12.025-6.075l-30.252-0.38L256.152,160.51z"/>
<g>
	<path fill="#86A2C2" d="M276.91,154.625l-15.139,4.239c0,0,6.061,30.264,9.678,33.882c3.615,3.615-0.615,6.328,2.424,9.366
		c3.037,3.037,19.871,25.863,19.871,25.863L276.91,154.625z"/>
	<path fill="#86A2C2" d="M309.188,155.616l-15.443,72.359c0,0,16.42-29.017,17.822-30.421c1.404-1.404,0-7.342,0-10.126
		s8.734-26.994,8.734-26.994S312.326,155.616,309.188,155.616z"/>
</g>
<g>
	<path fill="#BDD9F2" d="M278.176,154.055l-16.201,1.646c0,0,5.857,29.8,9.475,33.415c3.615,3.617-0.615,6.329,2.424,9.366
		c3.037,3.038,19.871,29.493,19.871,29.493L278.176,154.055z"/>
	<path fill="#BDD9F2" d="M308.428,154.435l-14.684,73.54c0,0,16.42-32.644,17.822-34.049c1.404-1.405,0-7.342,0-10.127
		c0-2.783,8.887-25.82,8.887-25.82S311.566,154.435,308.428,154.435z"/>
</g>
<polygon fill="#7797B5" points="291.592,303.537 293.744,227.975 293.303,303.537 "/>
<rect x="241.976" y="313.663" fill="#8188C3" width="57.718" height="6.075"/>
<polygon fill="#8893C9" points="294.756,347.797 246.914,347.797 245.393,319.738 296.275,319.738 "/>
<path opacity="0.28" fill="#392161" d="M296.275,319.738h-50.882l1.521,28.059h6.292c0.619-4.365,1.852-9.018,4.213-12.75
	c4.266-6.745,25.322-9.396,38.594-10.408L296.275,319.738z"/>
<path fill="#686E9C" d="M337.918,362.986H207.801l0,0c0-8.389,6.8-15.189,15.189-15.189h99.74
	C331.119,347.797,337.918,354.598,337.918,362.986L337.918,362.986z"/>
<path fill="#F15F5C" d="M197.591,164.298l-4.42-15.826l-19.428,4.982c0,0,2.77,8.62,4.704,9.804
	c1.423,0.869,5.709,3.492,7.876,4.818l0,0l17.368,34.453l12.497-15.438L197.591,164.298z"/>
<path fill="#27114A" d="M289.438,75.668c0,0,14.811-1.811,21.139,1.207c6.328,3.019,18.732,15.215,15.441,38.882
	c0,0,2.658,0.846,3.418,4.468s0.822,10.083-5.443,16.06s-16.834,5.313-22.277,5.313s-20.758-4.588-24.682-13.042
	C273.109,120.104,289.438,75.668,289.438,75.668z"/>
<path fill="#180F24" d="M296.609,79.11c-3.971-0.374-7.279,1.451-9.939,4.445c-3.359,9.89-8.736,26.809-9.982,37.25
	c0.551,4.2,1.936,8.366,3.936,11.662c0.348,0.574,0.713,1.122,1.094,1.644c5.248,4.128,12.971,6.623,17.715,7.299
	c14.762-1.984,18.916-15.616,18.549-30.643c-0.1-4.048,2.795-16.654-3.471-24.799C310.299,80.496,303.045,78.476,296.609,79.11z"/>
<path fill="#F37475" d="M281.848,130.892c0,0,0.758,10.252,0,14.936c-0.76,4.683-3.672,8.227-3.672,8.227l15.568,73.92l14.684-73.54
	c0,0-3.645-2.234-4.684-8.606c-1.039-6.373-1.012-22.784-1.012-22.784L281.848,130.892z"/>
<path fill="#2A3280" d="M293.744,227.975l11.43-57.246c-8.715,0.948-17.361-0.147-23.797-1.472L293.744,227.975z"/>
<path fill="#232664" d="M305.174,170.729c-0.08,0.009-0.162,0.017-0.244,0.025c-2.861,11.695-9.398,37.623-11.627,39.854
	c-2.143,2.141-8.674-26.427-11.91-41.348c-0.006-0.001-0.01-0.002-0.016-0.004l12.367,58.718L305.174,170.729z"/>
<path opacity="0.53" fill="#F15F5C" d="M285.135,129.657c2.234,8.713,7.654,16.893,17.971,14.181
	c0.125-0.033,0.246-0.07,0.367-0.106c-0.764-7.285-0.74-20.687-0.74-20.687L285.135,129.657z"/>
<path fill="#F37475" d="M299.438,81.148c0,0,8.986-1.392,13.922,5.822c4.938,7.215,2.658,19.366,2.658,22.404
	c0,3.037,1.457,25.061-12.912,28.479c-14.367,3.418-19.236-12.277-19.236-21.771S287.396,82.336,299.438,81.148z"/>
<path opacity="0.53" fill="#F15F5C" d="M289.508,89.62c-0.504,1.098-0.977,2.261-1.408,3.47c4.971-1.5,10.027-2.663,15.072-3.46
	c2.031,7.02,6.314,11.839,13.355,11.839c0.066-2.804-0.074-5.957-0.793-8.913C307.496,89.184,298.148,84.362,289.508,89.62z"/>
<path fill="#F37475" d="M194.695,149.45c-0.173-0.212-14.551-13.898-17.395-13.041c-4.731,1.233,5.783,9.079,6.922,10.55
	c0.569,0.736,1.078,1.66,1.517,2.535c-0.372,0.106-0.721,0.203-1.034,0.279c-2.708,0.652-9.934,2.001-10.961,3.681
	c0,0-0.194,9.464,2.292,9.517c2.486,0.052,5.001-0.857,7.67-0.589c1.334,0.135,2.706-0.522,3.745-1.212
	c0.167-0.109,0.324-0.221,0.472-0.33c-0.345,0.58-0.434,1.232-0.083,1.945c1.275,2.591,10.094-1.877,10.477-3.531
	S196.73,151.954,194.695,149.45z M192.676,158.008c-0.81,0.195-2.369,0.755-3.543,1.596c-0.34-0.893-2.027-5.444-1.75-7.26
	c0,0,0.001,0,0.002-0.001c1.228-1.298,3.909-1.336,5.221-0.774l0,0c0.175,0.161,0.301,0.371,0.367,0.64
	C193.388,153.931,194.276,157.623,192.676,158.008z"/>
<path fill="#BDD9F2" d="M193.625,185.065c0,0,20.504,52.654,28.352,56.704c7.847,4.05,36.608-39.747,36.608-39.747
	s1.111-41.513-2.434-41.513s-18.114,17.332-22.306,27.755c-4.265,10.605-4.114,15.965-9.844,5.661
	c-5.853-10.526-16.138-24.669-16.138-24.669C201.958,175.165,193.625,185.065,193.625,185.065z"/>
<path fill="#351F60" d="M310.576,76.972c0,0-5.063-0.634-8.1,1.772c-3.039,2.404-9.748,3.544-13.672,22.15
	c-3.924,18.607-0.76,20.758-0.76,20.758s4.172,8.606-1.205,15.188c-5.375,6.582-15.926,4.095-21.83,0.633
	c-8.59-5.035-7.061-22.5-3.445-33.924c0.504-1.595,0.754-2.542,1.342-3.876c1.135-2.569,1.512-5.524,3.154-8.225
	c5.316-8.746,14.994-16.739,32.109-16.307C298.17,75.142,305.893,74.693,310.576,76.972z"/>
<g>
	<path fill="#180F24" d="M263.287,98.263c-1.068,3.206-0.918,2.736-1.723,5.287c-0.174,0.542-0.34,1.098-0.502,1.667
		c3.369-1.943,4.029-2.478,7.875-4.444c7.061-3.601,14.611-6.497,22.311-8.584c0.154-0.415,0.311-0.813,0.467-1.2
		C281.834,91.917,272.023,93.702,263.287,98.263z"/>
</g>
<path fill="#08B3BF" d="M265.436,91.772c18.779-9.82,31.402-10.705,52.928-9.303v5.185c-18.072,0.066-35.928,4.977-50.939,12.631
	c-4.037,2.064-6.199,3.476-6.219,3.487L265.436,91.772z"/>
<ellipse fill="#8893C9" cx="317.694" cy="85.707" rx="14.222" ry="15.208"/>
<ellipse fill="#EAE8F2" cx="318.128" cy="85.707" rx="13.788" ry="15.208"/>
<g>
	<ellipse fill="#7881B7" cx="317.694" cy="85.707" rx="14.222" ry="15.208"/>
	<ellipse fill="#85B2DE" cx="318.128" cy="85.707" rx="13.788" ry="15.208"/>
	<path fill="#EAE8F2" d="M312.865,82.803c0-5.054,2.236-9.532,5.678-12.296c-0.139-0.005-0.275-0.008-0.414-0.008
		c-7.617,0-13.789,6.809-13.789,15.208c0,8.398,6.172,15.208,13.789,15.208c3.033,0,5.834-1.081,8.111-2.91
		C318.816,97.763,312.865,91.05,312.865,82.803z"/>
</g>
<ellipse fill="#8893C9" cx="318.362" cy="85.062" rx="2.048" ry="2.258"/>
<g>
	<path fill="#4459A8" d="M158.901,154.688c-0.186,0-0.375-0.054-0.539-0.168c-0.433-0.298-0.541-0.89-0.243-1.322l36.07-52.269
		c0.298-0.433,0.891-0.541,1.322-0.243c0.432,0.299,0.541,0.89,0.243,1.322l-36.07,52.269
		C159.5,154.545,159.203,154.688,158.901,154.688z"/>
</g>
<g>
	<path fill="#4459A8" d="M97.015,220.57c-0.233,0-0.466-0.085-0.649-0.257c-0.383-0.359-0.404-0.96-0.045-1.342l59.868-64.004
		c0.358-0.384,0.96-0.404,1.344-0.045c0.383,0.359,0.403,0.96,0.044,1.343L97.708,220.27
		C97.522,220.469,97.269,220.57,97.015,220.57z"/>
</g>
<g>
	<path fill="#4459A8" d="M156.882,156.566c-0.191,0-0.386-0.058-0.553-0.178l-48.154-34.515c-0.427-0.306-0.524-0.9-0.219-1.326
		c0.305-0.427,0.9-0.525,1.326-0.219l48.154,34.515c0.427,0.306,0.525,0.899,0.219,1.327
		C157.469,156.429,157.177,156.566,156.882,156.566z"/>
</g>
<g>
	<path fill="#4459A8" d="M182.565,266.707c-0.432,0-0.822-0.297-0.924-0.735l-25.684-110.14c-0.12-0.512,0.198-1.022,0.71-1.142
		c0.51-0.119,1.022,0.199,1.142,0.709l25.683,110.14c0.119,0.511-0.198,1.022-0.709,1.142
		C182.709,266.697,182.637,266.707,182.565,266.707z"/>
</g>
<circle fill="#4459A8" cx="156.882" cy="155.616" r="10.692"/>
<circle fill="#BDD9F2" cx="156.883" cy="155.088" r="6.814"/>
<g>
	<path fill="#BDD9F2" d="M106.592,145.216h-45.59c-2.733,0-4.949-2.215-4.949-4.948v-38.333c0-2.733,2.215-4.949,4.949-4.949h45.59
		c2.733,0,4.949,2.215,4.949,4.949v38.333C111.541,143,109.325,145.216,106.592,145.216z"/>
	<path fill="#4459A8" d="M108.785,97.499c0.328,0.661,0.513,1.405,0.513,2.193v38.333c0,2.732-2.215,4.948-4.949,4.948h-45.59
		c-0.788,0-1.531-0.185-2.193-0.513c0.809,1.633,2.491,2.756,4.437,2.756h45.59c2.733,0,4.949-2.215,4.949-4.948v-38.333
		C111.541,99.99,110.417,98.308,108.785,97.499z"/>
</g>
<g>
	<path fill="#BDD9F2" d="M106.592,240.179h-45.59c-2.733,0-4.949-2.217-4.949-4.95v-38.333c0-2.731,2.215-4.947,4.949-4.947h45.59
		c2.733,0,4.949,2.216,4.949,4.947v38.333C111.541,237.962,109.325,240.179,106.592,240.179z"/>
	<path fill="#4459A8" d="M108.785,192.46c0.328,0.661,0.513,1.405,0.513,2.193v38.332c0,2.733-2.215,4.948-4.949,4.948h-45.59
		c-0.788,0-1.531-0.184-2.193-0.512c0.809,1.634,2.491,2.757,4.437,2.757h45.59c2.733,0,4.949-2.217,4.949-4.95v-38.333
		C111.541,194.951,110.417,193.269,108.785,192.46z"/>
</g>
<g>
	<path fill="#BDD9F2" d="M166.334,109.822h52.738c2.919,0,5.286-2.367,5.286-5.286V66.878c0-2.92-2.367-5.287-5.286-5.287h-52.738
		c-2.919,0-5.286,2.367-5.286,5.287v37.658C161.048,107.455,163.416,109.822,166.334,109.822z"/>
	<path fill="#4459A8" d="M164.193,62.104c-0.374,0.661-0.585,1.405-0.585,2.193v38.333c0,2.732,2.528,4.948,5.646,4.948h52.018
		c0.899,0,1.748-0.185,2.502-0.513c-0.923,1.633-2.843,2.756-5.062,2.756h-52.017c-3.119,0-5.646-2.216-5.646-4.949V66.541
		C161.048,64.595,162.33,62.913,164.193,62.104z"/>
</g>
<g>
	<path fill="#BDD9F2" d="M159.682,249.146h52.738c2.918,0,5.285,2.366,5.285,5.285v37.658c0,2.918-2.367,5.285-5.285,5.285h-52.738
		c-2.919,0-5.286-2.367-5.286-5.285v-37.658C154.396,251.513,156.763,249.146,159.682,249.146z"/>
	<path fill="#4459A8" d="M157.542,296.862c-0.374-0.66-0.585-1.404-0.585-2.192v-38.332c0-2.733,2.528-4.949,5.646-4.949h52.018
		c0.898,0,1.748,0.185,2.502,0.514c-0.923-1.635-2.842-2.756-5.062-2.756h-52.017c-3.119,0-5.646,2.215-5.646,4.948v38.332
		C154.396,294.372,155.678,296.054,157.542,296.862z"/>
</g>
<g>
	<circle fill="#7983C0" cx="74.501" cy="111.445" r="1.637"/>
	<circle fill="#7983C0" cx="93.47" cy="106.845" r="1.028"/>
	<path fill="#7983C0" d="M82.724,136.386c-7.869,0-14.271-6.402-14.271-14.27c0-3.545,1.301-6.937,3.662-9.55l0.359-0.397
		l0.266,0.466c0.158,0.279,0.384,0.52,0.651,0.697l0.375,0.246l-0.298,0.335c-2.004,2.253-3.11,5.166-3.11,8.204
		c0,6.817,5.547,12.364,12.365,12.364c6.475,0,11.825-4.974,12.326-11.386c-2.377-0.466-4.126-2.565-4.126-5.021v-9.083l1.105-1.684
		l0.333,0.419c0.188,0.236,0.452,0.41,0.743,0.488l0.517,0.138l-0.792,1.208v8.514c0,1.771,1.44,3.212,3.211,3.212
		c1.772,0,3.213-1.441,3.213-3.212v-8.485l-0.913-1.231l0.509-0.168c0.285-0.094,0.539-0.283,0.714-0.53l0.309-0.437l1.287,1.737
		v9.114c0,2.488-1.783,4.598-4.2,5.035C96.448,130.58,90.254,136.386,82.724,136.386z"/>
	<circle fill="#7983C0" cx="98.407" cy="106.845" r="1.028"/>
	<polygon fill="#7983C0" points="88.619,119.221 84.749,119.221 84.749,115.351 80.477,115.351 80.477,119.221 76.606,119.221 
		76.606,123.494 80.477,123.494 80.477,127.364 84.749,127.364 84.749,123.494 88.619,123.494 	"/>
</g>
<g>
	<g>
		<path fill="#7983C0" d="M202.259,86.426h-1.235l-2.56-3.531l-1.935,7.967l-1.489-13.825l-4.004,9.007l-1.756-3.192l-2.243,4.022
			l-3.054-3.733l-1.375,6.798l-1.291-11.687l-4.394,7.933h-10.565c-0.265,0-0.48,0.215-0.48,0.481l0,0c0,0.266,0.215,0.48,0.48,0.48
			h11.595l2.396-4.327l1.829,16.561l2.661-13.156l2.452,2.998l1.979-3.55l1.914,3.479l2.969-6.68l1.813,16.828l3.203-13.189
			l0.927,1.278h2.807C202.657,87.06,202.443,86.738,202.259,86.426z"/>
		<path fill="#F26322" d="M211.606,79.962c0,0,1.641-2.275,4.883-2.275c2.891,0,4.883,2.335,4.883,5.055
			c0,3.147-2.716,6.871-9.766,10.108c-7.049-3.237-9.765-6.961-9.765-10.108c0-2.719,1.992-5.055,4.883-5.055
			C209.966,77.687,211.606,79.962,211.606,79.962z"/>
	</g>
</g>
<g>
	<path opacity="0.66" fill="#FFFFFF" d="M197.683,281.144l-25.126-3.216c-1.596-0.203-2.725-1.664-2.52-3.262l1.7-13.283
		c0.204-1.596,1.665-2.726,3.261-2.52l25.126,3.215c1.596,0.205,2.726,1.665,2.521,3.261l-1.701,13.285
		C200.739,280.221,199.279,281.349,197.683,281.144z"/>
	<path fill="#7983C0" d="M182.352,263.967l-0.686-1.546c-0.199-0.447-0.642-0.736-1.131-0.736h-11.595
		c-0.684,0-1.238,0.554-1.238,1.238v7.874h0.021v14.838c0,0.685,0.554,1.237,1.237,1.237h34.205c0.684,0,1.238-0.553,1.238-1.237
		v-19.693c0-0.684-0.554-1.237-1.238-1.237h-19.681C182.993,264.704,182.549,264.413,182.352,263.967z"/>
	<circle fill="#EAE8F2" cx="186.692" cy="276.034" r="6.833"/>
	<polygon fill="#F26322" points="192.017,274.17 188.585,274.17 188.585,270.739 184.798,270.739 184.798,274.17 181.368,274.17 
		181.368,277.957 184.798,277.957 184.798,281.388 188.585,281.388 188.585,277.957 192.017,277.957 	"/>
</g>
<g>
	<circle fill="#08B3BF" cx="81.096" cy="208.578" r="3.396"/>
	<rect x="86.269" y="213.063" fill="#7983C0" width="4.921" height="4.735"/>
	<rect x="86.997" y="218.073" fill="#7983C0" width="3.466" height="1.332"/>
	<path fill="#7983C0" d="M85.724,209.132c0-1.071-0.326-2.066-0.885-2.893v-3.267c0.786,0,1.423-0.637,1.423-1.423v-2.593h4.935
		v2.593c0,0.786,0.636,1.423,1.423,1.423v8.405c0,0.733-0.595,1.326-1.327,1.326h-5.125c-0.558,0-1.034-0.343-1.231-0.829
		C85.435,211.078,85.724,210.139,85.724,209.132z"/>
	<rect x="85.081" y="197.211" fill="#7983C0" width="7.298" height="1.746"/>
	<path fill="#7983C0" d="M75.384,208.637c-0.016,0.163-0.023,0.329-0.023,0.495c0,2.483,1.757,4.565,4.094,5.066
		c-0.723,0.516-1.288,1.216-1.618,2.092c-0.57,1.516-0.299,3.224,0.394,4.65c0.828,1.708,2.25,3.07,3.875,4.018l-0.613,2.164
		C72.992,224.708,69.381,215.278,75.384,208.637z"/>
	<rect x="77.54" y="224.889" fill="#7983C0" width="7.114" height="4.773"/>
	<path fill="#8188C3" d="M71.603,232.209H98.01v-0.787c0-0.973-0.787-1.76-1.759-1.76H73.362c-0.972,0-1.759,0.787-1.759,1.76
		V232.209z"/>
	<rect x="81.976" y="221.047" fill="#FFFFFF" width="13.586" height="2.389"/>
</g>
<path fill="#BDD9F2" d="M320.301,160.434c0,0-2.609,28.935,1.332,50.971c0.99,5.537,16.277,7.994,24.629,14.283
	c13.92,10.479,23.623,24.625,26.098,30.246c5.643-2.547,5.609-27.959,2.52-38.055C371.52,211.171,320.301,160.434,320.301,160.434z"
	/>
<polygon fill="#2A3280" points="401.598,196.892 347.75,190.38 314.018,254.646 357.689,254.646 "/>
<path opacity="0.44" fill="#232664" d="M357.689,254.646l43.908-57.754l-53.848-6.512l-0.963,1.833
	c8.418,2.204,24.705,7.37,27.123,14.85c2.584,7.987-16.213,35.991-24.357,47.583H357.689z"/>
<polygon fill="#384EA1" points="345.77,187.457 311.447,253.498 314.018,254.646 347.75,190.38 401.598,196.892 398.316,194.321 "/>
<g>
	<polygon fill="#F37475" points="441.438,186.033 444.455,197.549 454.148,193.794 452.406,183.595 	"/>
	<g>
		<path fill="#F37475" d="M398.135,159.935c-0.834-1.19-6.514-8.472-7.48-7.795s2.525,5.577,3.047,6.322
			c0,0-1.994-0.158-2.977,2.082c-0.658,1.501,3.48,8.646,5.217,11.487c1.516-0.475,3.752-2.288,3.676-3.85
			C399.621,165.236,398.771,160.848,398.135,159.935z"/>
		<path opacity="0.53" fill="#F15F5C" d="M449.908,184.15l-8.471,1.883l1.1,4.197c2.121-0.373,4.338-1.525,5.664-3.808
			C448.533,185.849,449.197,185.055,449.908,184.15z"/>
		<polygon fill="#F37475" points="438.604,358.652 437.438,365.251 432.244,365.622 433.129,354.055 		"/>
		<path fill="#0F163F" d="M438.342,364.234c0,0-4.803,0.087-5.854-0.744c-1.051-0.83-2.164,0.774-3.863,2.925
			c-1.695,2.15-8.033,1.889-8.807,3.585c-0.586,1.282,18.221,0.905,19.172,0.879C439.66,370.858,438.342,364.234,438.342,364.234z"
			/>
		<polygon fill="#F37475" points="452.701,357.62 451.535,364.219 446.344,364.59 447.229,353.023 		"/>
		<path fill="#0F163F" d="M452.439,363.203c0,0-4.801,0.086-5.854-0.744c-1.049-0.831-2.162,0.774-3.859,2.924
			c-1.699,2.15-7.688,2.462-8.535,4.122c-0.846,1.661,18.068,1.392,18.482,0.866C453.09,369.846,452.439,363.203,452.439,363.203z"
			/>
		<path fill="#273476" d="M441.705,267.846l0.545,47.226l3.674,45.921l6.889,1.176c0,0,5.738-81.126,11.674-90.089
			c5.932-8.953-0.789-23.737-0.818-23.764c0-0.002,0,0,0,0L441.705,267.846z"/>
		<path fill="#1F265A" d="M461.236,270.467c2.553-3.855,4.439-8.968,3.967-14.785c-0.154-1.885-3.18-3.975-3.559-5.565
			l-19.939,17.729l0.545,47.226l2.045,25.576c3.676-22.031,10.508-53.67,11.877-62.73
			C456.758,277.104,458.709,274.282,461.236,270.467z"/>
		<path fill="#384EA1" d="M433.781,245.779c0,0-3.5,43.093-3.781,57.493c-0.291,14.719,1.559,58.859,1.559,58.859l8.111,0.036
			c0,0,12.045-71.805,14.057-85.23c0,0-1.148,1.934,4.789-7.03c5.932-8.953,1.588-21.565,1.559-21.592
			c0-0.002-10.549,3.937-10.549,3.937L433.781,245.779z"/>
		<path fill="#BE4B27" d="M470.352,224.867l-7.488,12.564l3.264,7.482c0,0,19.865-15.631,18.158-19.913
			c-1.438-3.606-21.291-24.923-26.656-30.778c-0.971-1.061-2.475-1.437-3.834-0.965l-9.211,3.191
			C444.584,196.449,471.164,222.102,470.352,224.867z"/>
		<g>
			<path fill="#F47B2D" d="M436.518,193.112c0,0-2.359,60.625-8.408,72.915c0,0,27.445-4.044,40.043-4.041
				c0,0-0.299-51.351-6.389-62.742C455.676,187.854,442.441,189.947,436.518,193.112z"/>
		</g>
		<path fill="#AA3823" d="M450.393,215.46c5.875-3.122,7.762-7.435,7.875-12.926c0.082-3.992-13.318-1.905-22.129-1.354
			c-0.162,3.115-0.377,6.961-0.65,11.218C438.869,216.106,446.145,217.719,450.393,215.46z"/>
		<path fill="#F47B2D" d="M405.527,195.668c0,0,19.002,16.287,34.15,15.675c15.15-0.612,17.133-4.253,18.434-8.293
			c1.301-4.039-7.336-9.574-15.994-11.237c-8.658-1.66-24.102-1.492-26.473-3.683c-2.375-2.19-14.559-18.631-15.586-21.491
			l-7.348,3.126L405.527,195.668z"/>
		<path fill="#F37475" d="M445.379,167.269c0,0-2.572,1.272-4.758,4.521c-2.188,3.247-4.539,4.988-4.539,4.988l1.029,1.659
			c0,0-2.344,1.689-2.119,4.26c0.496,5.663,9.252,6.655,13.609,3.368c1.184-0.894,4.857-2.013,6.059-4.028
			C457.877,176.637,456.93,168.329,445.379,167.269z"/>
		<path fill="#351F60" d="M449.668,179.382c0,0-2.912-5.394-1.537-9.188c0,0-3.188-0.063-5.742-1.507
			c-4.615-2.606,0.992-12.311,7.92-5.393c0,0-0.596-4.692,4.313-3.856c4.908,0.838,6.701,2.795,5.814,7.456
			c-0.885,4.66,1.148,2.597,2.643,5.317c1.492,2.723-6.373,12.502-10.055,12.862s-3.682,0.36-3.682,0.36s5.256-2.943,3.781-5.172
			C451.65,178.033,449.668,179.382,449.668,179.382z"/>
	</g>
</g>
<path fill="#F37475" d="M336.061,232.46c0.979-0.781,9.178,4.313,13.887,7.359c0.01-0.065,0.02-0.128,0.029-0.191
	c-4.434-3.287-12.191-7.212-10.416-8.341c0.91-0.578,20.385,7.269,20.389,7.271c2.051,0.929,2.143,1.018,4.26,1.952
	c-0.502-1.222-5.598-9.519-2.16-9.111l11.377,14.875c1.928,3.163,1.861,5.082,1.383,6.732c-0.59,2.029-3.443,7.475-8.092,8.57
	c-4.477,1.052-16.613-5.802-18.514-7.577c-2.041-1.755-15.955-13.918-13.734-17.307c0,0,11.602,11.324,12.834,9.92
	c0.072-0.324-11.471-7.989-12.373-10.983c-0.648-2.145,9.445,4.391,13.867,7.666C344.832,240.041,335.385,232.999,336.061,232.46z"
	/>
<g>
	<path fill="#4459A8" d="M124.74,370.688H89.024c-7.806,0-14.134-6.328-14.134-14.135v-90.742c0-7.806,6.328-14.134,14.134-14.134
		h35.716c7.806,0,14.134,6.328,14.134,14.134v90.742C138.874,364.36,132.546,370.688,124.74,370.688z"/>
	<path fill="#33439B" d="M124.74,251.678h-1.816c7.806,0,14.134,6.328,14.134,14.134v90.742c0,7.807-6.328,14.135-14.134,14.135
		h1.816c7.806,0,14.134-6.328,14.134-14.135v-90.742C138.874,258.006,132.546,251.678,124.74,251.678z"/>
	<path fill="#CED3EB" d="M89.024,368.872c-6.792,0-12.317-5.525-12.317-12.318v-90.742c0-6.792,5.525-12.317,12.317-12.317h35.716
		c6.792,0,12.317,5.525,12.317,12.317v90.742c0,6.793-5.525,12.318-12.317,12.318H89.024z"/>
	<g>
		<path fill="#8188C3" d="M113.411,259.822h-12.026c-0.366,0-0.664-0.297-0.664-0.663s0.297-0.664,0.664-0.664h12.026
			c0.366,0,0.664,0.298,0.664,0.664S113.777,259.822,113.411,259.822z"/>
	</g>
	<g>
		<path fill="#8188C3" d="M114.631,264.237h-14.467c-0.402,0-0.728-0.325-0.728-0.728c0-0.401,0.326-0.728,0.728-0.728h14.467
			c0.402,0,0.728,0.326,0.728,0.728C115.359,263.912,115.034,264.237,114.631,264.237z"/>
	</g>
	<circle fill="#8188C3" cx="95.148" cy="263.51" r="0.999"/>
	<circle fill="#737687" cx="106.882" cy="361.111" r="5.449"/>
	<circle fill="#E0E4F3" cx="105.986" cy="361.111" r="5.449"/>
	<path fill="#686E9C" d="M130.574,352.529H82.972c-1.602,0-2.9-1.298-2.9-2.899v-73.427c0-1.603,1.298-2.9,2.9-2.9h47.603
		c1.601,0,2.9,1.298,2.9,2.9v73.427C133.474,351.231,132.175,352.529,130.574,352.529z"/>
	<path fill="#FFFFFF" d="M81.283,349.521v-73.211c0-0.876,0.711-1.589,1.588-1.589h47.803c0.877,0,1.589,0.713,1.589,1.589v73.211
		c0,0.876-0.711,1.588-1.589,1.588H82.871C81.994,351.109,81.283,350.397,81.283,349.521z"/>
	<path fill="#BDD9F2" d="M130.796,274.722H82.75c-0.809,0-1.467,0.772-1.467,1.721v11.059h50.98v-11.059
		C132.263,275.494,131.605,274.722,130.796,274.722z"/>
	<g>
		<rect x="93.19" y="289.852" fill="#6B9ECE" width="28.981" height="1.949"/>
	</g>
	<polygon fill="#6B9ECE" points="86.36,290.826 89.098,292.68 89.098,288.973 	"/>
	<polygon fill="#6B9ECE" points="127,290.826 124.262,292.68 124.262,288.973 	"/>
	<path fill="#08B3BF" d="M97.804,283.951H85.217c-1.303,0-2.36-1.057-2.36-2.359v-1.243c0-1.305,1.057-2.361,2.36-2.361h12.587
		c1.304,0,2.36,1.057,2.36,2.361v1.243C100.165,282.895,99.108,283.951,97.804,283.951z"/>
	<path fill="#6B9ECE" d="M128.532,283.951h-3.063c-0.67,0-1.213-0.542-1.213-1.213v-3.537c0-0.67,0.543-1.214,1.213-1.214h3.063
		c0.67,0,1.213,0.544,1.213,1.214v3.537C129.745,283.409,129.202,283.951,128.532,283.951z"/>
	<rect x="126.562" y="278.964" fill="#FFFFFF" width="0.877" height="3.869"/>
	<rect x="125.35" y="280.385" fill="#FFFFFF" width="3.3" height="1.029"/>
	<rect x="83.826" y="299.669" opacity="0.18" fill="#6B9ECE" width="5.638" height="48.759"/>
	<rect x="90.593" y="299.669" opacity="0.18" fill="#6B9ECE" width="5.638" height="48.759"/>
	<rect x="97.412" y="299.669" opacity="0.18" fill="#6B9ECE" width="5.638" height="48.759"/>
	<rect x="104.23" y="299.669" opacity="0.18" fill="#6B9ECE" width="5.638" height="48.759"/>
	<rect x="111.05" y="299.669" opacity="0.18" fill="#6B9ECE" width="5.638" height="48.759"/>
	<rect x="117.869" y="299.669" opacity="0.18" fill="#6B9ECE" width="5.638" height="48.759"/>
	<rect x="124.688" y="299.669" opacity="0.18" fill="#6B9ECE" width="5.638" height="48.759"/>
	<rect x="83.826" y="294.077" fill="#6B9ECE" width="5.638" height="3.703"/>
	<rect x="90.593" y="294.077" fill="#6B9ECE" width="5.638" height="3.703"/>
	<rect x="97.412" y="294.077" fill="#6B9ECE" width="5.638" height="3.703"/>
	<rect x="104.23" y="294.077" fill="#6B9ECE" width="5.638" height="3.703"/>
	<rect x="111.05" y="294.077" fill="#6B9ECE" width="5.638" height="3.703"/>
	<rect x="117.869" y="294.077" fill="#F26322" width="5.638" height="3.703"/>
	<rect x="124.688" y="294.077" fill="#F26322" width="5.638" height="3.703"/>
	<rect x="82.857" y="305.287" fill="#FFFFFF" width="48.042" height="1.211"/>
	<rect x="82.857" y="312.563" fill="#FFFFFF" width="48.042" height="1.212"/>
	<rect x="82.857" y="319.84" fill="#FFFFFF" width="48.042" height="1.211"/>
	<rect x="82.857" y="327.116" fill="#FFFFFF" width="48.042" height="1.212"/>
	<rect x="82.857" y="334.393" fill="#FFFFFF" width="48.042" height="1.211"/>
	<rect x="82.752" y="341.669" fill="#FFFFFF" width="48.042" height="1.21"/>
	<path fill="#EE2C2C" d="M106.131,314.222l-4.626-1.992c0.165,0.202,5.958,7.293,5.797,7.095c1.168-2.619,3.75-8.414,4.949-11.104
		L106.131,314.222z"/>
</g>
</svg>
