<?xml version="1.0" encoding="utf-8"?>
<!-- Generator: Adobe Illustrator 16.0.0, SVG Export Plug-In . SVG Version: 6.00 Build 0)  -->
<!DOCTYPE svg PUBLIC "-//W3C//DTD SVG 1.1//EN" "http://www.w3.org/Graphics/SVG/1.1/DTD/svg11.dtd">
<svg version="1.1" id="Layer_1" xmlns="http://www.w3.org/2000/svg" xmlns:xlink="http://www.w3.org/1999/xlink" x="0px" y="0px"
	 width="500px" height="406px" viewBox="0 0 500 406" enable-background="new 0 0 500 406" xml:space="preserve">
<g>
	<g>
		<g>
			<path fill="#5981C2" d="M397.734,210.891c0,0,16.712-1.526,32.55-8.014c0.501-0.205,0.805,3.198,0.805,3.198
				s2.331-4.551,3.142-4.933c8.572-4.043,16.434-9.677,20.647-17.476c0,0,2.076,47.823-59.397,58.444L397.734,210.891z"/>
		</g>
		<g>
			<path fill="#5981C2" d="M418.178,265.443c0,0,20.288,10.754,59.961,12.623c0,0-26.989,24.631-88.743,16.15l2.025-28.051
				L418.178,265.443z"/>
		</g>
		<g>
			<path fill="#628DC9" d="M389.796,238.141c0,0,9.157-5.85,24.023-10.902c0.593-0.201,1.847,3.303,1.847,3.303
				s2.031-4.563,3.104-4.885c17.759-5.318,42.06-8.789,68.231-1.402c0,0-7.929,11.045-24.158,23.137
				c-0.691,0.516-5.275,0.109-5.275,0.109s1.925,2.318,1.292,2.758c-15.421,10.725-37.285,21.648-65.843,25.975L389.796,238.141z"/>
		</g>
		<g opacity="0.4">
			<g>
				<path fill="#5981C2" d="M487.001,224.254c-7.651,4.938-15.699,9.246-23.89,13.234c-8.189,4.002-16.609,7.518-25.136,10.74
					c-4.257,1.635-8.609,3-12.925,4.463l-6.551,1.963c-1.093,0.32-2.18,0.664-3.278,0.965l-3.316,0.832
					c-8.802,2.385-17.794,3.984-26.798,5.27l6.684-1.377l3.342-0.674c1.109-0.246,2.208-0.539,3.313-0.805l6.628-1.58l6.566-1.816
					c4.388-1.168,8.697-2.607,13.041-3.924c4.287-1.494,8.606-2.895,12.833-4.555c8.532-3.105,16.911-6.627,25.165-10.418
					c4.132-1.887,8.226-3.859,12.281-5.91C479.025,228.629,483.039,226.494,487.001,224.254z"/>
			</g>
			<g>
				<path fill="#5981C2" d="M431.504,249.893c1.693-1.582,3.336-3.193,4.977-4.795c1.625-1.619,3.229-3.25,4.771-4.936
					c1.559-1.672,3.017-3.426,4.453-5.201c1.403-1.803,2.728-3.664,3.995-5.611c-0.804,2.174-1.865,4.271-3.157,6.215
					c-1.295,1.939-2.745,3.773-4.317,5.492C439.049,244.453,435.506,247.529,431.504,249.893z"/>
			</g>
			<g>
				<path fill="#5981C2" d="M406.933,257.266c1.836-1.199,3.516-2.563,5.122-3.99c1.594-1.439,3.1-2.967,4.438-4.633
					c1.363-1.643,2.607-3.391,3.682-5.246c1.123-1.836,2.021-3.797,2.944-5.793c-0.43,2.143-1.028,4.299-2.032,6.277
					c-0.923,2.021-2.174,3.881-3.574,5.604c-1.413,1.717-3.024,3.268-4.805,4.588C410.942,255.406,409.003,256.523,406.933,257.266z
					"/>
			</g>
			<g>
				<path fill="#5981C2" d="M431.504,249.893c3.193,0.127,6.3,0.174,9.403-0.047c1.552-0.08,3.094-0.264,4.635-0.486
					c1.552-0.201,3.068-0.559,4.653-0.844c-1.384,0.799-2.878,1.453-4.438,1.854c-1.553,0.441-3.155,0.689-4.764,0.797
					c-1.608,0.092-3.225,0.074-4.819-0.139C434.581,250.828,432.997,250.492,431.504,249.893z"/>
			</g>
			<g>
				<path fill="#5981C2" d="M407.432,257.301c1.909,0.23,3.803,0.412,5.687,0.607c1.886,0.172,3.766,0.33,5.647,0.412
					c1.881,0.094,3.758,0.082,5.64,0.033c1.879-0.1,3.752-0.271,5.659-0.566c-1.755,0.787-3.643,1.318-5.563,1.594
					c-1.921,0.266-3.864,0.334-5.796,0.26C414.852,259.424,411.011,258.742,407.432,257.301z"/>
			</g>
		</g>
		<g opacity="0.2278">
			<g>
				<path opacity="0.5" fill="#615FAA" d="M448.563,196.094c-1.637,4.486-4.523,8.439-7.797,11.919
					c-3.295,3.494-7.183,6.386-11.304,8.833l-3.171,1.695c-1.053,0.576-2.182,0.99-3.271,1.482c-2.177,1.008-4.47,1.709-6.742,2.443
					c-1.125,0.406-2.305,0.621-3.461,0.912l-3.478,0.828c-2.355,0.369-4.712,0.713-7.065,1.01c2.308-0.594,4.629-1.063,6.92-1.643
					l3.401-1c1.128-0.348,2.279-0.617,3.369-1.076c2.193-0.865,4.448-1.561,6.552-2.621c1.059-0.51,2.17-0.912,3.192-1.49
					l3.092-1.686c4.048-2.369,7.854-5.153,11.246-8.401c0.844-0.817,1.695-1.63,2.453-2.529c0.388-0.441,0.793-0.87,1.167-1.323
					l1.09-1.389C446.207,200.204,447.515,198.226,448.563,196.094z"/>
			</g>
		</g>
		<g>
			<g>
				<path fill="#6499D1" d="M465.179,281.443c-2.779,0.535-5.593,0.863-8.405,1.193c-2.817,0.273-5.643,0.479-8.474,0.623
					c-5.661,0.275-11.341,0.146-17.004-0.242c-2.828-0.24-5.652-0.564-8.457-1.016c-2.807-0.426-5.606-0.941-8.354-1.676
					c-5.495-1.424-10.895-3.41-15.731-6.367c2.552,1.221,5.159,2.297,7.84,3.154c2.666,0.895,5.383,1.627,8.128,2.223
					c5.488,1.201,11.071,1.951,16.678,2.363c5.604,0.496,11.238,0.605,16.872,0.547
					C453.906,282.178,459.545,281.926,465.179,281.443z"/>
			</g>
			<g>
				<path fill="#6499D1" d="M438.588,291.355c-3.693,0.293-7.469-0.506-10.859-2.146c-1.681-0.859-3.237-1.99-4.539-3.363
					c-1.321-1.369-2.215-3.086-2.795-4.828c1.053,1.529,2.164,2.928,3.516,4.088c1.359,1.135,2.821,2.133,4.414,2.922
					c1.587,0.797,3.26,1.43,4.975,1.979C435.021,290.527,436.775,291.006,438.588,291.355z"/>
			</g>
			<g>
				<path fill="#6499D1" d="M423.798,292.234c-3.669-0.514-7.182-2.109-10.137-4.447c-1.455-1.201-2.729-2.643-3.703-4.266
					c-0.994-1.621-1.494-3.492-1.685-5.318c0.697,1.723,1.48,3.326,2.548,4.752c1.081,1.402,2.294,2.693,3.677,3.809
					c1.377,1.121,2.873,2.102,4.429,3.008C420.495,290.652,422.104,291.502,423.798,292.234z"/>
			</g>
		</g>
	</g>
	<g>
		<path fill="#63C5B5" d="M261.666,332.662c-6.174-7.113-15.564-11.328-24.985-11.203c-6.955,0.09-13.784,2.402-20.726,1.977
			c-7.29-0.438-14.343-4.051-18.954-9.725c-4.611-5.672-6.721-13.303-5.668-20.537c0.804-5.5,3.68-11.021,8.659-13.482
			c2.714-1.338,5.851-1.672,8.865-1.4c2.782,0.25,5.446,1.004,7.963,2.129c5.758,2.557,10.766,7.061,14.77,12.033
			c3.633,4.521,11.934,11.174,17.544,15.469c3.291,2.508,5.662,4.205,5.662,4.205C258.752,315.785,258.958,328.002,261.666,332.662z
			"/>
		<path fill="none" stroke="#01AD9F" stroke-linecap="round" stroke-linejoin="round" stroke-miterlimit="10" d="M200.721,295.139
			c17.48,4.979,36.788,12.035,50.437,24.037"/>
	</g>
	<g>
		<path fill="#628DC9" d="M313.372,292.678c-0.258,2.904-0.854,5.873-2.263,8.512c-0.975,1.818-2.293,3.41-3.784,4.824
			c-0.769,0.732-1.591,1.414-2.425,2.053c-3.248,2.475-6.86,4.369-10.611,5.566c-5.466,1.74-11.318,2.063-16.342,5.143
			c-2.305,1.412-4.325,3.377-5.877,5.668c-0.973,1.424-1.757,2.975-2.315,4.594l-0.021-4.896c0.535-5.42,1.084-10.939,3.104-16.121
			c1.303-3.355,3.187-6.484,5.246-9.453c3.291-4.752,7.073-9.18,11.438-12.861c3.528-2.977,7.57-5.504,11.885-6.146
			c4.308-0.646,8.894,0.949,10.867,4.746C313.542,286.744,313.634,289.766,313.372,292.678z"/>
		<path opacity="0.31" fill="none" stroke="#14489F" stroke-linecap="round" stroke-linejoin="round" stroke-miterlimit="10" d="
			M272.768,319.566c3.074-7.273,8.383-13.682,14.859-17.936c4.035-2.648,8.459-4.459,12.579-6.943
			c4.119-2.482,8.087-5.857,10.019-10.385"/>
	</g>
	<g>
		<path fill="#63C5B5" d="M266.042,324.023c7.689-7.629,18.596-11.123,29.317-12.662c8.943-1.281,18.336-1.33,26.7,2.084
			c2.621,1.07,5.205,2.557,6.755,4.924c1.55,2.369,1.77,5.787-0.123,7.893c-1.597,1.773-4.19,2.207-6.577,2.293
			c-7.854,0.281-15.537-2.002-23.229-3.613c-13.221-2.771-27.618-3.441-39.637,2.727"/>
		<path fill="none" stroke="#01AD9F" stroke-linecap="round" stroke-linejoin="round" stroke-miterlimit="10" d="M275.629,320.012
			c15.914-6.713,38.9-4.551,48.926,2.387"/>
	</g>
	<g>
		<path fill="#5382C2" d="M87.397,241.955c-7.191-3.455-10.638-12.662-16.546-14.641c-7.322-2.531-9.376,5.648-21.215,3.625
			c-9.936-1.697-12.955-12.871-29.565-9.414c-5.072,1.055-8.438,5.344-6.534,10.486c1.425,5.117,8.472,8.355,12.666,10.969
			c3.719,2.1,7.012,3.225,9.216,7.131c0.022,0.041,0.046,0.084,0.065,0.127c1.482,3.174,0.891,6.004,4.354,8.326
			c8.112,5.934,18.218-3.49,27.446-3.215c6.509,0.195,6.326,6.955,14.152,8.912c7.751,1.938,5.209-5.002,21.469,1.301
			c0.584,0.227,1.243-0.066,1.468-0.652l0,0c0.157-0.408,0.063-0.873-0.239-1.188C92.754,251.811,97.982,247.041,87.397,241.955z"/>
		<path fill="#01AD9F" d="M87.397,241.955c-7.191-3.455-10.638-12.662-16.546-14.641c-7.322-2.531-9.376,5.648-21.215,3.625
			c-9.936-1.697-12.955-12.871-29.565-9.414c-5.072,1.055-8.438,5.344-6.534,10.486c1.425,5.117,8.472,8.355,12.666,10.969
			c3.719,2.1,7.012,3.225,9.216,7.131c0.022,0.041,0.046,0.084,0.065,0.127c1.482,3.174,0.891,6.004,4.354,8.326
			c8.112,5.934,18.218-3.49,27.446-3.215c6.509,0.195,6.326,6.955,14.152,8.912c7.751,1.938,5.209-5.002,21.469,1.301
			c0.584,0.227,1.243-0.066,1.468-0.652l0,0c0.157-0.408,0.063-0.873-0.239-1.188C92.754,251.811,97.982,247.041,87.397,241.955z"/>
		<g opacity="0.5">
			<g>
				<path fill="#6499D1" d="M96.6,257.48c-6.152-3.18-9.723-10.098-16.273-12.602c-3.434-1.314-6.253-0.625-9.773-0.18
					c-4.087,0.516-6.162-2.799-9.523-4.227c-3.256-1.381-6.375,0.379-9.735-0.068c-3.609-0.48-6.721-3.275-9.474-5.438
					c-5.814-4.566-12.366-7.182-19.824-7.16c-0.373,0.002-0.206,0.979,0.213,0.977c8.024-0.021,14.527,3.191,20.711,8.039
					c2.367,1.855,4.805,3.59,7.731,4.412c3.309,0.932,6.546-1.074,9.815-0.047c2.842,0.895,4.752,3.539,7.678,4.375
					c1.377,0.393,2.961,0.092,4.33-0.137c2.211-0.369,4.227-0.617,6.436-0.082c7.264,1.76,11.141,9.715,17.582,13.043
					C96.949,258.623,96.928,257.648,96.6,257.48L96.6,257.48z"/>
			</g>
		</g>
	</g>
	<g>
		<path fill="#8ED2C8" d="M157.402,290.305c-23.658,2.502-27.443,4.545-33.115,2.094c-7.229-3.125-14.824-2.35-22.111-5.336
			c-7.285-2.988-15.199-5.27-22.972-4.008c-2.458,0.4-5.185,1.398-5.527,4.281c-0.138,1.156,0.235,2.326,0.913,3.271
			c1.713,2.389,4.51,3.189,7.186,3.928l8.943,2.467c2.908,0.803,2.723,5.086-0.264,5.516c-0.025,0.004-0.051,0.006-0.075,0.01
			c-2.505,0.34-5.042-0.156-7.511-0.703c-5.371-1.189-10.752-2.635-16.254-2.643c-6.656-0.01-13.713,2.395-17.006,8.602
			c-1.168,2.201-1.605,4.758-1.19,7.213c1.159,6.865,7.581,9.156,13.272,8.643c4.004-0.361,7.789-1.908,11.569-3.275
			c9.235-3.342,17.137,0.344,26.954,0.6C127.309,321.668,157.402,290.305,157.402,290.305z"/>
		<path fill="none" stroke="#01AD9F" stroke-linecap="round" stroke-linejoin="round" stroke-miterlimit="10" d="M55.772,311.957
			c16.845-1.924,33.813-3.873,49.976-8.996c4.74-1.502,10.848-1.918,24.228-11.793"/>
	</g>
	<g>
		<path fill="#8ED2C8" d="M83.059,214.265c0.561,0.438,1.148,0.798,1.762,1.091c2.891,1.426,6.201,1.623,8.502,4.219
			c1.535,1.633,2.367,3.82,3.515,5.764c0.233,0.432,0.498,0.84,0.787,1.232c3.556,4.877,7.056,5.443,10.799,5.359
			c1.536-0.037,3.126-0.184,4.76-0.184c2.501-0.002,5.161,0.32,8.027,1.895c1.81,0.975,3.7,2.451,5.698,4.639
			c0.359,0.389,1.004,0.424,1.514,0.098c0.455-0.299,0.688-0.83,0.588-1.309c-1.002-4.502-2.96-7.457-5.316-9.678
			c-6.627-6.27-16.41-6.768-17.002-19.714c-0.125-2.772,0.463-4.739,0.021-6.715c-0.228-0.995-0.72-1.995-1.694-3.105
			c-2.004-2.159-4.886-3.114-7.453-4.84c-6.949-4.957-3.637-13.07-4.254-20.787c-0.414-6.301-6.078-10.402-10.711-13.97
			c-5.791-4.263-5.778-11.948-9.687-17.662c-3.9-5.718-13.61-8.021-18.777-0.338c-5.485,7.669-2.473,17.259-0.896,25.036
			c0.412,2.033,1.129,3.84,2.076,5.482c2.891,5.05,7.854,8.646,12.141,12.923c2.644,2.626,4.843,5.601,6.383,8.959
			c0.898,1.963,1.574,4.048,1.981,6.276c0.093,0.519,0.192,1.031,0.294,1.545C77.116,205.877,78.296,210.682,83.059,214.265z"/>
		<g opacity="0.5">
			<g>
				<path fill="#6499D1" d="M58.417,140.371c0.184,4.669,0.446,9.348,2.117,13.759c1.538,4.062,4.815,6.8,8.067,9.482
					c1.9,1.568,3.727,3.183,5.135,5.221c1.518,2.194,1.648,4.914,2.686,7.312c0.779,1.8,2.516,2.72,4.117,3.666
					c2.359,1.394,3.816,3.646,4.961,6.066c1.584,3.351,2.479,7.125,4.74,10.126c1.66,2.205,4.337,3.541,5.393,6.156
					c1.001,2.477,0.707,5.48,1.332,8.082c2.39,9.942,12.749,14.946,21.14,18.897c0.468,0.221,0.44-0.75,0.107-0.906
					c-5.046-2.377-10.13-4.791-14.367-8.484c-4.304-3.75-6.405-8.424-6.96-14.029c-0.154-1.563-0.33-3.31-1.077-4.721
					c-0.995-1.878-2.602-2.872-4.101-4.323c-3.162-3.063-4.152-7.892-5.98-11.756c-1.636-3.458-3.924-5.198-7.06-7.221
					c-2.513-1.619-2.524-5.026-3.522-7.574c-0.604-1.54-1.666-2.878-2.764-4.092c-2.813-3.115-6.514-5.259-9.197-8.518
					c-3.811-4.628-3.931-11.315-4.154-17.005C59.01,140.001,58.391,139.704,58.417,140.371L58.417,140.371z"/>
			</g>
		</g>
		<path opacity="0.37" fill="#5B5AA7" d="M113.183,231.746c2.501-0.002,5.161,0.32,8.027,1.895c0.255-3.971,1.591-4.797,2.483-6.25
			c-6.627-6.27-16.41-6.768-17.002-19.714c-0.125-2.772,0.463-4.739,0.021-6.715c-1.977,4.151-5.524,5.003-5.245,9.24
			c0.241,4.371,5.832,8.419,6.834,13.933C109.125,228.689,110.805,229.852,113.183,231.746z"/>
	</g>
	<g>
		<path fill="#5981C2" d="M177.304,296.984c-4.47-1.764-10.438-2.49-13.304,1.369c-2.4,3.229-1.158,7.807,0.5,11.473
			c1.398,3.096,3.176,6.242,6.127,7.924c2.016,1.15,4.378,1.496,6.682,1.77c6.426,0.764,12.898,1.139,19.371,1.121
			c7.5-0.021,16.586,3.041,22.793,7.719C211.508,313.555,192.346,302.926,177.304,296.984z"/>
		<path opacity="0.31" fill="none" stroke="#14489F" stroke-linecap="round" stroke-linejoin="round" stroke-miterlimit="10" d="
			M169.462,306.609c5.688,0.242,11.431,0.641,16.891,2.256c5.584,1.652,27.064,11.51,30.422,15.705"/>
	</g>
	<g>
		<path fill="#8ED2C8" d="M395.695,186.896c-0.138,0.666-0.195,1.323-0.186,1.973c0.01,3.084,1.249,6.005,0.005,9.079
			c-0.745,2.01-2.266,3.655-3.442,5.465c-0.27,0.383-0.507,0.784-0.72,1.198c-2.665,5.122-1.66,8.361,0.005,11.532
			c0.686,1.301,1.487,2.6,2.182,4c1.067,2.141,1.922,4.559,1.793,7.684c-0.064,1.965-0.524,4.213-1.547,6.857
			c-0.182,0.473,0.063,1.039,0.559,1.336c0.45,0.266,1.005,0.236,1.372-0.053c3.431-2.773,5.129-5.709,6.028-8.672
			c2.551-8.348-1.186-16.94,9.652-22.957c2.322-1.287,4.258-1.62,5.762-2.84c0.756-0.619,1.402-1.466,1.938-2.774
			c0.998-2.636,0.59-5.51,0.976-8.443c1.289-8.064,9.648-8.679,15.998-12.492c5.222-3.035,6.324-9.635,7.408-15.121
			c1.187-6.775,7.778-10.036,11.009-15.815c3.239-5.775,1.079-15.073-7.702-16.23c-8.904-1.435-15.837,5.227-21.83,9.889
			c-1.566,1.218-2.808,2.601-3.813,4.112c-3.096,4.625-4.064,10.407-5.903,15.9c-1.125,3.382-2.737,6.531-4.959,9.28
			c-1.299,1.606-2.798,3.072-4.534,4.368c-0.404,0.301-0.802,0.605-1.198,0.91C400.352,178.235,396.737,181.29,395.695,186.896z"/>
		<g opacity="0.5">
			<g>
				<path fill="#6499D1" d="M448.404,134.174c-3.795,2.075-7.896,4.229-10.746,7.575c-3.006,3.525-3.839,7.702-4.911,12.088
					c-0.555,2.271-1.313,4.438-2.645,6.377c-1.212,1.765-3.167,2.886-4.543,4.516c-1.328,1.573-1.188,3.826-1.394,5.737
					c-0.267,2.489-1.851,4.669-3.382,6.55c-2.381,2.924-5.185,5.424-6.762,8.92c-1.095,2.428-0.939,4.766-3.022,6.739
					c-1.771,1.677-4.131,2.661-5.999,4.236c-7.416,6.255-7.211,17.335-7.029,26.121c0.011,0.512,0.627,0.805,0.613,0.139
					c-0.115-5.572-0.207-11.187,1.386-16.584c1.491-5.056,4.657-8.576,9.039-11.321c1.461-0.916,2.766-1.898,3.775-3.305
					c1.1-1.532,1.128-3.696,1.795-5.423c1.475-3.813,5.037-6.604,7.49-9.763c0.938-1.207,1.668-2.527,2.216-3.95
					c0.926-2.403,0.246-5.091,1.748-7.316c1.179-1.747,3.228-2.841,4.543-4.516c1.169-1.487,1.817-3.38,2.356-5.164
					c1.266-4.194,1.663-8.467,4.259-12.147c2.777-3.937,7.45-6.348,11.569-8.601C449.091,134.902,448.804,133.955,448.404,134.174
					L448.404,134.174z"/>
			</g>
		</g>
	</g>
	<g>
		<path fill="#5382C2" d="M369.854,310.34c6.812,3.842,9.59,13.066,15.24,15.381c6.999,2.945,9.532-4.92,20.98-2.182
			c9.607,2.297,11.842,13.42,28.309,11.107c5.028-0.707,8.596-4.684,7.064-9.834c-1.065-5.098-7.748-8.717-11.683-11.543
			c-3.502-2.291-6.649-3.605-8.555-7.564c-0.02-0.043-0.039-0.086-0.056-0.129c-1.246-3.199-0.484-5.93-3.723-8.422
			c-7.553-6.326-18.04,2.24-27.048,1.377c-6.353-0.607-5.74-7.207-13.269-9.623c-7.455-2.393-5.415,4.557-20.91-2.652
			c-0.557-0.258-1.221-0.014-1.478,0.543l0,0c-0.18,0.389-0.118,0.85,0.157,1.178C365.25,300.357,359.83,304.686,369.854,310.34z"/>
		<path fill="#01AD9F" d="M369.854,310.34c6.812,3.842,9.59,13.066,15.24,15.381c6.999,2.945,9.532-4.92,20.98-2.182
			c9.607,2.297,11.842,13.42,28.309,11.107c5.028-0.707,8.596-4.684,7.064-9.834c-1.065-5.098-7.748-8.717-11.683-11.543
			c-3.502-2.291-6.649-3.605-8.555-7.564c-0.02-0.043-0.039-0.086-0.056-0.129c-1.246-3.199-0.484-5.93-3.723-8.422
			c-7.553-6.326-18.04,2.24-27.048,1.377c-6.353-0.607-5.74-7.207-13.269-9.623c-7.455-2.393-5.415,4.557-20.91-2.652
			c-0.557-0.258-1.221-0.014-1.478,0.543l0,0c-0.18,0.389-0.118,0.85,0.157,1.178C365.25,300.357,359.83,304.686,369.854,310.34z"/>
		<g opacity="0.5">
			<g>
				<path fill="#6499D1" d="M361.881,294.578c6.049,3.66,9.182,10.645,15.724,13.65c2.933,1.348,5.854,0.699,8.934,0.514
					c4.079-0.244,6.26,3.354,9.545,5.01c2.955,1.49,6.533-0.258,9.681,0.619c3.414,0.951,6.17,3.9,8.727,6.18
					c5.184,4.619,11.408,7.393,18.367,7.832c0.455,0.029,0.322-0.951-0.051-0.975c-7.849-0.496-13.993-3.992-19.738-9.141
					c-2.047-1.834-4.154-3.553-6.701-4.641c-3.543-1.51-7.337,0.65-10.761-1.076c-2.454-1.238-4.068-3.561-6.723-4.512
					c-1.321-0.473-2.894-0.273-4.246-0.139c-2.186,0.219-4.172,0.326-6.296-0.338c-6.975-2.182-10.288-10.221-16.354-13.891
					C361.555,293.41,361.566,294.389,361.881,294.578L361.881,294.578z"/>
			</g>
		</g>
	</g>
	<g>
		<g>
			<path fill="#5981C2" d="M126.544,291.686c0,0-29.694-6.496-52.532-4.051c-0.722,0.076,0.158-4.424,0.158-4.424
				s-4.705,4.994-5.893,5.186c-12.559,2.006-24.797,6.33-33.142,14.809c0,0,15.192-62.414,98.396-53.135L126.544,291.686z"/>
		</g>
		<g>
			<path fill="#628DC9" d="M143.807,295.033c0,0-13.305-5.971-29.912-18.939c-0.663-0.518,2.348-4.502,2.348-4.502
				s-6.616,1.078-7.766,0.111c-19.035-16.018-40.813-40.736-51.778-75.543c0,0,18.229,0.771,43.742,10.088
				c1.087,0.396,4.003,5.841,4.003,5.841s1.188-3.867,2.145-3.48c23.383,9.417,51.73,25.915,77.599,54.782L143.807,295.033z"/>
		</g>
		<g opacity="0.4">
			<g>
				<path fill="#5981C2" d="M56.698,197.009c11.171,4.954,21.928,10.814,32.431,17.072c10.516,6.247,20.658,13.108,30.549,20.308
					c4.966,3.574,9.699,7.455,14.518,11.221l7.021,5.908c1.164,0.992,2.351,1.957,3.496,2.969l3.375,3.109
					c9.15,8.125,17.563,17.039,25.632,26.197l-6.464-6.488l-3.216-3.252c-1.091-1.064-2.229-2.084-3.341-3.127l-6.648-6.277
					l-6.871-6.031c-4.539-4.064-9.326-7.842-13.998-11.748c-4.832-3.711-9.582-7.529-14.555-11.051
					c-9.764-7.289-19.881-14.102-30.209-20.578c-5.158-3.248-10.384-6.39-15.669-9.433C67.477,202.74,62.127,199.807,56.698,197.009
					z"/>
			</g>
			<g>
				<path fill="#5981C2" d="M126.307,240.428c-3.023-0.736-6.039-1.395-9.045-2.057c-3.012-0.633-6.022-1.232-9.049-1.723
					c-3.021-0.52-6.063-0.865-9.113-1.17c-3.056-0.25-6.117-0.367-9.236-0.357c3.031-0.695,6.168-1.049,9.297-1.027
					c3.129,0.025,6.256,0.305,9.34,0.803C114.65,235.961,120.709,237.676,126.307,240.428z"/>
			</g>
			<g>
				<path fill="#5981C2" d="M97.092,220.42c-2.153-0.129-4.292-0.205-6.424-0.285c-2.134-0.061-4.262-0.098-6.387-0.059
					c-2.125,0.018-4.242,0.156-6.361,0.326c-2.115,0.207-4.219,0.504-6.346,0.896c1.982-0.85,4.078-1.477,6.217-1.85
					c2.138-0.369,4.305-0.564,6.471-0.604C88.589,218.813,92.934,219.234,97.092,220.42z"/>
			</g>
			<g>
				<path fill="#5981C2" d="M152.66,262.578c-2.695-1.178-5.463-2.061-8.246-2.813c-2.789-0.73-5.611-1.295-8.467-1.57
					c-2.846-0.322-5.723-0.434-8.596-0.273c-2.886,0.09-5.746,0.527-8.667,0.959c2.721-1.094,5.581-2.01,8.54-2.338
					c2.946-0.451,5.955-0.418,8.918-0.113c2.966,0.324,5.894,0.99,8.685,2.018C147.621,259.447,150.303,260.801,152.66,262.578z"/>
			</g>
			<g>
				<path fill="#5981C2" d="M126.307,240.428c-2.209-3.678-4.44-7.199-6.972-10.52c-1.231-1.682-2.571-3.277-3.958-4.842
					c-1.365-1.596-2.883-3.033-4.37-4.604c1.916,0.967,3.75,2.16,5.347,3.619c1.638,1.416,3.096,3.033,4.398,4.758
					c1.287,1.738,2.456,3.566,3.393,5.512C125.092,236.285,125.881,238.311,126.307,240.428z"/>
			</g>
			<g>
				<path fill="#5981C2" d="M152.334,261.992c-1.148-2.313-2.338-4.57-3.504-6.828c-1.194-2.244-2.4-4.471-3.693-6.641
					c-1.279-2.18-2.672-4.279-4.113-6.355c-1.494-2.035-3.064-4.012-4.798-5.936c2.175,1.391,4.159,3.119,5.882,5.072
					c1.711,1.961,3.217,4.092,4.557,6.313C149.256,252.104,151.316,256.914,152.334,261.992z"/>
			</g>
		</g>
		<g opacity="0.5">
			<g>
				<path fill="#6499D1" d="M47.918,289.549c3.785-5.172,8.984-9.189,14.503-12.451c5.552-3.271,11.645-5.545,17.869-7.16l4.722-1
					c1.572-0.35,3.182-0.461,4.771-0.689c3.182-0.484,6.398-0.533,9.602-0.629c1.602-0.102,3.203,0.061,4.802,0.117l4.792,0.232
					c3.174,0.404,6.34,0.842,9.483,1.34c-3.195-0.1-6.362-0.361-9.532-0.469l-4.758,0.018c-1.584,0.025-3.168-0.057-4.744,0.129
					c-3.151,0.295-6.316,0.348-9.426,0.93c-1.555,0.262-3.137,0.365-4.671,0.727l-4.614,1.018
					c-6.103,1.541-12.047,3.707-17.635,6.627c-1.393,0.736-2.793,1.467-4.106,2.342c-0.664,0.424-1.347,0.826-1.998,1.271
					l-1.924,1.381C52.49,285.131,50.066,287.191,47.918,289.549z"/>
			</g>
		</g>
		<g opacity="0.5">
			<g>
				<path fill="#6499D1" d="M99.275,268.416c-1.73,2.758-3.416,5.367-4.824,8.125c-0.723,1.369-1.308,2.787-1.864,4.229
					c-0.53,1.459-0.897,2.955-1.271,4.559c-0.767-3.219,0.072-6.682,1.555-9.596c0.775-1.455,1.68-2.836,2.754-4.07
					C96.691,270.426,97.883,269.289,99.275,268.416z"/>
			</g>
		</g>
	</g>
	<g>
		<rect x="230.4" y="288.457" fill="#3D60AD" width="49.178" height="33.822"/>
		<rect x="230.4" y="288.457" opacity="0.5" fill="#615FAA" width="49.178" height="12.258"/>
		<path fill="#3D60AD" d="M304.899,321.746h-99.82c-3.152,0-5.708,2.557-5.708,5.709s2.556,5.707,5.708,5.707h99.82
			c3.152,0,5.708-2.555,5.708-5.707l0,0C310.607,324.303,308.052,321.746,304.899,321.746z"/>
		<path opacity="0.5" fill="#615FAA" d="M310.609,327.459c0,3.146-2.557,5.703-5.711,5.703H205.08c-3.154,0-5.711-2.557-5.711-5.703
			c0-0.48,0.056-0.945,0.182-1.385c0.605,2.486,2.855,4.326,5.529,4.326h99.818c2.675,0,4.924-1.84,5.53-4.326
			C310.554,326.514,310.609,326.979,310.609,327.459z"/>
		<g>
			<g>
				<g>
					<path fill="#FFFFFF" d="M101.117,293.174c-1.93,0-3.5-1.57-3.5-3.5V86.445c0-1.93,1.57-3.5,3.5-3.5h307.744
						c1.93,0,3.5,1.57,3.5,3.5v203.229c0,1.93-1.57,3.5-3.5,3.5H101.117z"/>
					<path fill="#3D60AD" d="M408.861,85.445c0.551,0,1,0.449,1,1v203.229c0,0.553-0.449,1-1,1H101.117c-0.551,0-1-0.447-1-1V86.445
						c0-0.551,0.449-1,1-1H408.861 M408.861,80.445H101.117c-3.313,0-6,2.687-6,6v203.229c0,3.314,2.688,6,6,6h307.744
						c3.313,0,6-2.686,6-6V86.445C414.861,83.132,412.175,80.445,408.861,80.445L408.861,80.445z"/>
				</g>
			</g>
			<g>
				<path fill="#3D60AD" d="M414.86,289.262v-19.869H95.118v19.869c0,3.744,3.035,6.768,6.77,6.768h306.203
					C411.825,296.029,414.86,293.006,414.86,289.262z"/>
			</g>
		</g>
		<g>
			<circle fill="#CAEBF7" cx="254.99" cy="126.319" r="24.646"/>
			<g>
				<defs>
					<circle id="SVGID_1_" cx="254.99" cy="126.319" r="24.646"/>
				</defs>
				<clipPath id="SVGID_2_">
					<use xlink:href="#SVGID_1_"  overflow="visible"/>
				</clipPath>
				<path clip-path="url(#SVGID_2_)" fill="#5981C2" d="M264.514,120.694c0,5.26-4.265,9.524-9.524,9.524s-9.524-4.265-9.524-9.524
					s4.265-9.524,9.524-9.524S264.514,115.435,264.514,120.694z M269.362,160.575v-16.643c0-6.324-5.128-11.451-11.452-11.451
					h-5.841c-6.325,0-11.452,5.127-11.452,11.451v16.643c0,1.753,1.42,3.174,3.174,3.174h22.397
					C267.941,163.749,269.362,162.328,269.362,160.575z"/>
			</g>
		</g>
		<path fill="#CAEBF7" d="M313.958,179.001H196.021c-5.387,0-9.753-4.365-9.753-9.752l0,0c0-5.386,4.366-9.752,9.753-9.752h117.937
			c5.386,0,9.752,4.366,9.752,9.752l0,0C323.71,174.636,319.344,179.001,313.958,179.001z"/>
		<path fill="#5981C2" d="M309.864,171.796h-109.75c-1.406,0-2.546-1.141-2.546-2.547l0,0c0-1.406,1.14-2.547,2.546-2.547h109.75
			c1.406,0,2.547,1.141,2.547,2.547l0,0C312.411,170.655,311.271,171.796,309.864,171.796z"/>
		<path fill="#CAEBF7" d="M314.053,214.079H196.115c-5.386,0-9.752-4.365-9.752-9.752l0,0c0-5.386,4.366-9.752,9.752-9.752h117.938
			c5.386,0,9.752,4.366,9.752,9.752l0,0C323.805,209.714,319.438,214.079,314.053,214.079z"/>
		<path fill="#5981C2" d="M199.133,207.046L199.133,207.046c-1.406,0-2.547-1.141-2.547-2.547l0,0c0-1.406,1.141-2.547,2.547-2.547
			l0,0c1.406,0,2.547,1.141,2.547,2.547l0,0C201.68,205.905,200.539,207.046,199.133,207.046z M209.252,204.499L209.252,204.499
			c0-1.406-1.14-2.547-2.546-2.547l0,0c-1.407,0-2.547,1.141-2.547,2.547l0,0c0,1.406,1.14,2.547,2.547,2.547l0,0
			C208.112,207.046,209.252,205.905,209.252,204.499z M216.825,204.499L216.825,204.499c0-1.406-1.14-2.547-2.546-2.547l0,0
			c-1.407,0-2.547,1.141-2.547,2.547l0,0c0,1.406,1.14,2.547,2.547,2.547l0,0C215.686,207.046,216.825,205.905,216.825,204.499z
			 M224.398,204.499L224.398,204.499c0-1.406-1.141-2.547-2.547-2.547l0,0c-1.406,0-2.547,1.141-2.547,2.547l0,0
			c0,1.406,1.141,2.547,2.547,2.547l0,0C223.258,207.046,224.398,205.905,224.398,204.499z M231.971,204.499L231.971,204.499
			c0-1.406-1.141-2.547-2.547-2.547l0,0c-1.406,0-2.547,1.141-2.547,2.547l0,0c0,1.406,1.141,2.547,2.547,2.547l0,0
			C230.83,207.046,231.971,205.905,231.971,204.499z M239.543,204.499L239.543,204.499c0-1.406-1.14-2.547-2.547-2.547l0,0
			c-1.406,0-2.546,1.141-2.546,2.547l0,0c0,1.406,1.14,2.547,2.546,2.547l0,0C238.403,207.046,239.543,205.905,239.543,204.499z
			 M247.116,204.499L247.116,204.499c0-1.406-1.14-2.547-2.547-2.547l0,0c-1.406,0-2.546,1.141-2.546,2.547l0,0
			c0,1.406,1.14,2.547,2.546,2.547l0,0C245.977,207.046,247.116,205.905,247.116,204.499z"/>
		<path fill="#5981C2" d="M271.738,250.826H238.24c-5.386,0-9.752-4.365-9.752-9.752l0,0c0-5.387,4.366-9.752,9.752-9.752h33.498
			c5.386,0,9.752,4.365,9.752,9.752l0,0C281.49,246.461,277.124,250.826,271.738,250.826z"/>
	</g>
	<path opacity="0.09" fill="#010101" d="M378.636,295.49v-11.146c0-3.668-2.974-6.641-6.641-6.641h-0.579v-10.33
		c0-15.188-12.354-27.543-27.541-27.543s-27.542,12.355-27.542,27.543v10.33h-0.578c-3.668,0-6.641,2.973-6.641,6.641v11.146
		H378.636z M325.435,267.373c0-10.168,8.272-18.441,18.44-18.441s18.44,8.273,18.44,18.441v10.33h-36.881V267.373z"/>
	<path opacity="0.09" fill="#010101" d="M391.65,191.021c-2.68-2.241-6.01-3.6-9.971-3.948c-0.012-0.366-0.011-0.728,0.006-1.196
		c2.038-0.327,3.781-2.109,4.795-4.514c2.749-2.648,4.617-5.927,3.715-10.059c-0.053-0.239-0.001-0.441,0.1-0.607
		c-1.183-2.115-3.363-3.133-5.782-5.324c-8.13-7.367-17.793,2.869-14.134,7.084c0.287,0.33,0.687,1.203,1.024,2.322
		c-0.007,0.025-0.017,0.043-0.022,0.07c-0.174,0.791-0.023,2.123,0.598,2.781c0.043,0.414,0.072,0.831,0.072,1.244
		c0.014,0.042,0.039,0.07,0.048,0.118c0.119,0.649,0.364,1.218,0.684,1.733c0.49,1.967,1.666,4.034,4.143,4.865
		c0.193,0.064,0.391,0.127,0.6,0.176c0.138,0.553,0.156,0.871,0.087,1.328c-2.398,0.268-4.569,1.018-6.505,2.178
		c-15.543,7.513-30.907,31.722-29.215,37.058c1.693,5.338,5.992,11.586,8.877,15.76l0.453-0.08c0.233,0.805,0.466,1.609,0.698,2.414
		c0.116,0.402,0.247,0.826,0.563,1.102c0.421,0.367,1.04,0.361,1.598,0.336c0.688-0.033,1.438-0.09,1.945-0.555
		c0.294-0.27,0.469-0.648,0.566-1.035c0.266-1.045-0.002-2.162-0.516-3.115l0.338-0.059c0,0-6.699-10.027-6.455-16.141
		c0.089-2.232,5.319-7.496,9.572-11.418c-0.098,1.361-0.151,2.748-0.151,4.154l-2.038,48.723c0,0,1.76,0.348,4.579,0.799
		l2.736,29.098h11.014l0.262-27.41c0.144,0.012,0.288,0.021,0.432,0.031c0.127,0.01,0.255,0.018,0.383,0.027
		c0.542,0.039,1.085,0.074,1.632,0.105c0.185,0.012,0.369,0.021,0.554,0.031c0.198,0.012,0.396,0.023,0.594,0.033l1.081,27.182
		h10.858l2.225-27.684c0.014-0.002,0.026-0.004,0.041-0.006c0.448-0.074,0.889-0.15,1.318-0.238c0.19-0.039,0.375-0.082,0.562-0.123
		c0.36-0.08,0.713-0.164,1.058-0.256c0.187-0.051,0.372-0.102,0.554-0.154c0.346-0.1,0.679-0.209,1.006-0.322
		c0.151-0.053,0.308-0.104,0.454-0.158c0.461-0.174,0.906-0.357,1.321-0.561l-0.223-52.703c0-1.138-0.035-2.242-0.099-3.319
		c-0.005-0.081-0.012-0.16-0.017-0.241c-0.064-1.005-0.157-1.982-0.276-2.933c-0.013-0.095-0.024-0.188-0.037-0.283
		c-0.012-0.085-0.021-0.172-0.033-0.258c2.148,0.426,4.943,0.939,8.6,1.557c2.376,0.401,4.688,0.199,6.898-0.427v-10.665
		C405.723,198.577,395.538,193.368,391.65,191.021z"/>
	<g>
		<circle opacity="0.3" fill="#A1DDF1" cx="243.306" cy="203.518" r="16.939"/>
		<circle opacity="0.5" fill="#A1DDF1" cx="243.306" cy="203.518" r="9.193"/>
	</g>
	<g>
		<path fill="#F37151" d="M337.006,239.83c-15.188,0-27.542,12.355-27.542,27.543v26.484h55.083v-26.484
			C364.547,252.186,352.191,239.83,337.006,239.83z M318.564,284.756v-17.383c0-10.168,8.272-18.441,18.441-18.441
			c10.167,0,18.439,8.273,18.439,18.441v17.383H318.564z"/>
		<path opacity="0.4" fill="#F37151" d="M337.006,245.273c-12.127,0-21.992,9.865-21.992,21.992v21.148h43.983v-21.148
			C358.997,255.139,349.131,245.273,337.006,245.273z M355.445,284.756h-36.881v-17.383c0-10.168,8.272-18.441,18.441-18.441
			c10.167,0,18.439,8.273,18.439,18.441V284.756z"/>
		<path fill="#FBB157" d="M364.999,333.162h-55.988c-3.737,0-6.767-3.029-6.767-6.766v-41.928c0-3.736,3.029-6.766,6.767-6.766
			h55.988c3.737,0,6.767,3.029,6.767,6.766v41.928C371.766,330.133,368.736,333.162,364.999,333.162z"/>
		<path fill="#F37151" d="M347.112,301.592c0-5.582-4.525-10.107-10.107-10.107s-10.106,4.525-10.106,10.107
			c0,3.902,2.215,7.281,5.454,8.967v10.926h9.305v-10.926C344.896,308.873,347.112,305.494,347.112,301.592z"/>
		<path opacity="0.4" fill="#FBB157" d="M365.125,277.703h-16.701c-3.645,11.332-9.318,22.053-16.545,31.441
			c-6.717,8.729-17.293,19.805-29.256,19.572c0.907,2.588,3.364,4.445,6.262,4.445h56.24c3.668,0,6.641-2.973,6.641-6.641v-42.178
			C371.766,280.676,368.793,277.703,365.125,277.703z"/>
	</g>
	<g>
		<path fill="#F9C1D3" d="M343.725,239.844c0.442,1.527,0.884,3.053,1.326,4.58c0.116,0.402,0.246,0.826,0.562,1.102
			c0.421,0.367,1.04,0.361,1.598,0.336c0.688-0.033,1.438-0.09,1.945-0.555c0.295-0.27,0.47-0.648,0.567-1.035
			c0.284-1.123-0.042-2.334-0.635-3.33c-0.593-0.998-1.433-1.82-2.263-2.631"/>
		<path fill="#F9C1D3" d="M426.044,187.115c0.536-2.131,1.266-4.214,2.176-6.214c0.474,0.602,0.42,1.449,0.344,2.211
			c0.461-1.116,1.347-2.051,2.436-2.573c0.131-0.062,0.282-0.119,0.415-0.063c0.149,0.063,0.211,0.236,0.251,0.394
			c0.414,1.636,0.215,3.417-0.55,4.921c-0.765,1.503-2.088,2.714-3.652,3.343"/>
		<path fill="#5981C2" d="M381.068,329.467c3.891,0.949,7.147,2.094,8.934,3.695h-14.997l0.287-3.48L381.068,329.467z"/>
		<path fill="#5981C2" d="M362.728,329.467c-3.89,0.949-7.147,2.094-8.934,3.695h14.997l-0.287-3.48L362.728,329.467z"/>
		<g>
			<g>
				<path fill="#303084" d="M388.954,242.078l-7.071,88.002c0,0-2.47,0.604-3.324,0.604c-0.422,0-1.218-0.141-1.943-0.27
					c-0.819-0.168-1.534-0.334-1.534-0.334l-2.646-66.521h-3.32l-0.636,66.521c0,0-1.768,0.527-3.605,0.527
					c-1.791,0-3.91-0.527-3.91-0.527l-8.487-90.25L388.954,242.078z"/>
			</g>
		</g>
		<g opacity="0.3">
			<path opacity="0.5" fill="#303084" d="M375.398,241.244l-12.455-0.768c-0.151,16.207,2.286,74.127,2.535,90.109
				c1.602-0.092,3-0.506,3-0.506l0.636-66.521h3.32l2.646,66.521c0,0,0.715,0.166,1.534,0.334c0.242,0.043,0.488,0.086,0.729,0.125
				C377.345,312.422,375.71,248.693,375.398,241.244z"/>
		</g>
		<g>
			<path fill="#212A60" d="M365.181,178.874c0.015,0.042,0.039,0.07,0.048,0.118c0.535,2.909,3.297,4.401,6.366,5.248
				c2.495,0.688,3.074,0.99,5.077-0.456c4.156-3,7.853-6.986,6.653-12.48c-0.052-0.239-0.001-0.441,0.1-0.607
				c-1.183-2.115-3.362-3.133-5.781-5.324c-8.131-7.367-17.794,2.869-14.135,7.084C364.103,173.14,365.185,176.116,365.181,178.874z
				"/>
		</g>
		<path fill="#97BFE6" d="M392.911,214.107c0-16.729-6.924-27.131-20.184-27.131c-13.261,0-20.218,13.988-20.218,30.717
			l-2.038,48.723c0,0,30.912,6.131,42.662,0.395L392.911,214.107z"/>
		<path opacity="0.3" fill="#97BFE6" d="M392.911,214.107c0-4.68-0.543-8.863-1.613-12.463
			c-1.176,18.205-2.772,66.672-29.868,66.479c10.071,1.258,24.492,2.207,31.704-1.313L392.911,214.107z"/>
		<path fill="#F9C1D3" d="M379.536,176.911c-0.496-3.291-3.429-6.594-7.011-4.882c-2.299,1.099-4.677,1.224-6.553,0.221
			c-0.055,0.634-0.133,1.558-0.203,2.528c-0.396-0.728-1.06-0.84-1.259,0.07c-0.213,0.974,0.051,2.783,1.098,3.123
			c-0.002,0.17-0.004,0.34-0.001,0.483c0.05,2.461,1.055,6.376,5.048,7.312c0.215,0.868,0.14,1.152-0.108,2.309
			c0.221,0.774,3.325,1.271,4.351,0.36c-0.088-1.067-0.116-1.58-0.082-2.56c2.361-0.379,4.333-2.707,5.225-5.699
			C383.603,178.18,381.054,174.536,379.536,176.911z"/>
		<path opacity="0.3" fill="#F9C1D3" d="M379.536,176.911c-0.195-1.299-0.774-2.594-1.619-3.588
			c0.099,5.721-2.337,11.038-7.861,12.268c0.193,0.064,0.39,0.127,0.6,0.176c0.215,0.868,0.14,1.152-0.108,2.309
			c0.221,0.773,3.325,1.271,4.351,0.36c-0.088-1.067-0.116-1.58-0.082-2.56c2.361-0.379,4.333-2.707,5.225-5.699
			C383.603,178.18,381.054,174.536,379.536,176.911z"/>
		<path fill="#97BFE6" d="M364.236,189.272c-15.542,7.513-30.906,31.722-29.214,37.058c1.692,5.338,5.992,11.586,8.876,15.76
			l5.646-0.992c0,0-6.699-10.027-6.455-16.141c0.15-3.771,14.969-16.188,14.969-16.188L364.236,189.272z"/>
		<path fill="#97BFE6" d="M383.386,190.124c2.434,1.75,22.74,13.917,33.907,3.172c8.064-7.762,8.877-9.26,8.877-9.26l2.767,4.898
			c0,0-12.62,22.271-27.888,19.695c-15.267-2.576-15.653-3.368-15.653-3.368L383.386,190.124z"/>
	</g>
	<g>
		<path opacity="0.09" fill="#010101" d="M132.366,285.432c-5.813,1.68-10.731,5.477-13.88,10.49h41.253
			c-3.149-5.014-8.067-8.811-13.88-10.49V184.364h-13.493v1.648h-14.409v12.166h14.409v2.896h-14.409v12.165h14.409V285.432z"/>
		<g>
			<rect x="126.79" y="186.013" fill="#FBB157" width="17.283" height="12.166"/>
			<rect x="126.79" y="201.075" fill="#FBB157" width="17.283" height="12.165"/>
			<rect x="139.668" y="186.013" opacity="0.5" fill="#FEC97D" width="4.405" height="12.166"/>
			<rect x="139.668" y="201.075" opacity="0.5" fill="#FEC97D" width="4.405" height="12.165"/>
			<rect x="141.199" y="184.364" fill="#FBB157" width="13.492" height="105.739"/>
			<path opacity="0.5" fill="#FEC97D" d="M147.735,293.744h0.419c0.455,0,0.822-0.367,0.822-0.822V188.827
				c0-0.453-0.367-0.822-0.822-0.822h-0.419c-0.454,0-0.822,0.369-0.822,0.822v104.095
				C146.913,293.377,147.281,293.744,147.735,293.744z"/>
			<g>
				<path fill="#FBB157" d="M123.6,308.818c0-13.424,10.922-24.346,24.346-24.346s24.346,10.922,24.346,24.346
					s-10.922,24.344-24.346,24.344S123.6,322.242,123.6,308.818z M136.154,308.818c0,6.502,5.289,11.791,11.791,11.791
					s11.791-5.289,11.791-11.791s-5.289-11.793-11.791-11.793S136.154,302.316,136.154,308.818z"/>
			</g>
			<path opacity="0.5" fill="#FEC97D" d="M135.007,308.818c0,7.133,5.804,12.938,12.938,12.938c7.134,0,12.938-5.805,12.938-12.938
				c0-7.135-5.805-12.939-12.938-12.939C140.811,295.879,135.007,301.684,135.007,308.818z M136.154,308.818
				c0-6.502,5.289-11.793,11.791-11.793s11.791,5.291,11.791,11.793s-5.289,11.791-11.791,11.791S136.154,315.32,136.154,308.818z"
				/>
		</g>
		<g>
			<path opacity="0.09" fill="#010101" d="M236.479,207.046c-4.271,3.784-19.663,19.905-22.485,11.132
				c-2.233-6.946-6.918-16.503-9.662-19.709c-1.807-2.069-4.121-3.427-6.66-4.084v-1.11c2.67-0.013,6.844-0.534,6.844-10.153
				c0-2.907-0.276-4.823-0.775-6.079c0.797-0.803,0.744-2.382,0.18-3.311c-0.746-1.23-2.709-2.299-4.013-2.877
				c-3.087-1.367-7.119-2.004-10.081-0.087c-1.037-1.423-2.707-2.696-3.724-3.255c-1.261-0.691-2.628-1.281-4.065-1.311
				c-2.846-0.056-5.318,2.127-6.633,4.651c-1.066,2.046-1.568,4.433-1.129,6.697s1.891,4.372,3.98,5.351
				c0.613,0.288,1.296,0.479,1.968,0.387c0.892-0.121,1.643-0.721,2.267-1.369c1.52-1.58,1.778-3.467,2.895-5.177
				c0.17-0.261,0.387-0.437,0.621-0.581c-0.333,1.111-0.516,2.273-0.523,3.426c-0.026,3.318,1.139,6.543,2.674,9.486
				c0.408,0.781,0.866,1.574,1.59,2.076c0.695,0.481,2.492,0.953,3.227,0.481l-0.309,2.357c-2.101,0.184-4.229,0.793-6.258,1.827
				c0-0.002-0.002-0.007-0.002-0.007c-11.568,2.66-20.296,31.066-35.771,29.184v0.039c-1.881-0.525-3.946-0.674-4.055,1.168
				c-0.213,3.607,2.029,4.068,4.055,3.771v0.076c6.478,0,15.067-1.869,22.611-10.207c-4.162,23.463-2.5,54.188-2.5,54.188
				c1.116,0.16,2.227,0.307,3.334,0.443l1.896,21.496h9.854l0.023-20.51c1.989,0.08,3.965,0.121,5.923,0.107l0.23,20.402h11.428
				l2.208-21.395c2.024-0.285,4.031-0.627,6.012-1.043c-0.407-12.904-0.46-29.771-1.317-44.383c0.605,0.57,1.294,1.012,2.117,1.215
				c1.343,0.332,7.128,7.004,11.29,1.932c4.221-5.145,13.041-15.764,16.273-21.236C239.316,209.252,237.453,208.717,236.479,207.046
				z"/>
			<polygon fill="#F6ACC7" points="198.974,190.763 198.323,195.742 203.56,196.316 203.56,191.064 			"/>
			<path opacity="0.1" fill="#010101" d="M158.617,227.182c0,0-6.932-3.416-7.133,0c-0.382,6.469,7.133,2.822,7.133,2.822V227.182z"
				/>
			<path fill="#F9C1D3" d="M159.599,226.199c0,0-6.931-3.416-7.133,0c-0.382,6.469,7.133,2.824,7.133,2.824V226.199z"/>
			<g>
				<path fill="#F9C1D3" d="M194.244,183.121c0,4.526,4.674,10.155,9.199,10.155c2.664,0,6.961-0.398,6.961-10.155
					c0-10.257-3.439-8.194-7.965-8.194S194.244,178.595,194.244,183.121z"/>
			</g>
			<path opacity="0.3" fill="#F9C1D3" d="M201.133,186.926c0.014-3.807,0.503-8.327,1.907-12.012
				c-0.198,0.007-0.397,0.013-0.601,0.013c-4.525,0-8.195,3.668-8.195,8.194c0,4.44,4.498,9.928,8.941,10.136
				C201.738,191.593,201.123,189.508,201.133,186.926z"/>
			<path fill="#FBB157" d="M208.676,177.638c-0.726,0.107-1.5-0.238-2.181,0.035c-1.089,0.439-1.162,2.1-2.167,2.711
				c-1.253,0.762-3.143-0.557-4.238,0.422c-0.645,0.577-0.57,1.593-0.502,2.461c0.176,2.287-0.078,4.609-0.748,6.801
				c-0.156,0.511,0.517,1.424,0.115,1.771c-0.668,0.579-2.597,0.072-3.32-0.435c-0.725-0.506-1.183-1.309-1.59-2.097
				c-1.535-2.973-2.701-6.23-2.675-9.583s1.396-6.814,4.103-8.754c2.98-2.135,7.152-1.486,10.323-0.068
				c1.304,0.584,3.267,1.664,4.013,2.908C210.541,175.028,210.427,177.376,208.676,177.638z"/>
			<path opacity="0.5" fill="#FEC97D" d="M207.811,171.981c-1.068,0.956-2.145,2.68-2.949,3.242
				c-1.112,0.777-2.445,0.934-3.711,1.322c-5.828,1.791-6.23,10.729-3.686,15.5c0.604,0.09,1.182,0.059,1.49-0.208
				c0.401-0.348-0.271-1.26-0.115-1.771c0.67-2.192,0.924-4.514,0.748-6.801c-0.068-0.868-0.143-1.884,0.502-2.461
				c1.096-0.979,2.985,0.34,4.238-0.422c1.005-0.611,1.078-2.271,2.167-2.711c0.681-0.273,1.455,0.072,2.181-0.035
				c1.751-0.262,1.865-2.609,1.133-3.828C209.402,173.132,208.635,172.509,207.811,171.981z"/>
			<path fill="#FBB157" d="M191.99,167.526c-1.26-0.699-2.627-1.295-4.064-1.324c-2.846-0.057-5.319,2.149-6.634,4.699
				c-1.065,2.066-1.567,4.477-1.128,6.766c0.439,2.287,1.891,4.416,3.979,5.405c0.614,0.29,1.297,0.483,1.968,0.392
				c0.893-0.124,1.643-0.729,2.267-1.385c1.521-1.597,1.778-3.502,2.896-5.229c0.902-1.397,2.883-0.823,4.205-1.735
				C198.834,172.802,194.056,168.671,191.99,167.526z"/>
			<path opacity="0.5" fill="#FEC97D" d="M193.506,173.692c-0.609-0.314-1.086-0.885-1.691-1.188
				c-0.863-0.94-5.289-1.433-6.213,4.731c-0.275,1.842-1.695,3.748-3.146,4.658c0.502,0.475,1.063,0.883,1.688,1.178
				c0.614,0.291,1.297,0.484,1.968,0.393c0.893-0.124,1.643-0.729,2.267-1.385c1.521-1.597,1.778-3.502,2.896-5.229
				c0.902-1.397,2.883-0.823,4.205-1.735c0.477-0.328,0.773-0.695,0.953-1.082C195.561,174.331,194.625,174.27,193.506,173.692z"/>
			<path fill="#F37151" d="M190.586,329.467c3.891,0.949,7.147,2.094,8.934,3.695h-14.997l0.287-3.48L190.586,329.467z"/>
			<path fill="#F37151" d="M204.03,329.467c3.89,0.949,7.147,2.094,8.934,3.695h-14.997l0.287-3.48L204.03,329.467z"/>
			<path opacity="0.1" fill="#010101" d="M242.914,203.691c-0.082-0.043-0.225-0.116-0.314-0.141
				c-0.559-0.15-1.084,0.237-1.548,0.582c-0.818,0.609-2.364,1.862-3.042,2.625c0.002,0,0.004,0,0.006,0
				c-0.222,0.196-0.422,0.412-0.582,0.646c-0.523,0.758-0.672,1.821-0.182,2.6c0.381,0.605,1.077,1.058,1.793,1.053
				c1.043-0.007,2.451-0.56,3.148-1.375c0.699-0.815,0.643-1.726,0.137-2.673c-0.342-0.637-0.833-0.992-1.381-1.136
				c0.635-0.386,1.241-0.818,1.791-1.317c0.129-0.117,0.26-0.243,0.315-0.407C243.112,203.983,243.068,203.771,242.914,203.691z"/>
			<g>
				<g>
					<path fill="#F9C1D3" d="M242.556,205.86c0.507,0.947,0.563,1.857-0.136,2.673c-0.697,0.814-2.105,1.368-3.148,1.375
						c-0.716,0.004-1.412-0.447-1.793-1.053c-0.49-0.778-0.342-1.843,0.181-2.6C238.75,204.674,241.449,203.789,242.556,205.86z"/>
				</g>
				<g>
					<path fill="#F9C1D3" d="M240.792,204.967c0.781-0.434,1.513-0.959,2.175-1.56c0.129-0.117,0.259-0.243,0.315-0.407
						c0.056-0.165,0.013-0.377-0.142-0.457c-0.083-0.044-0.225-0.116-0.314-0.141c-0.559-0.15-1.084,0.237-1.549,0.582
						c-0.818,0.609-2.363,1.862-3.041,2.625C238.777,205.771,240.298,205.241,240.792,204.967z"/>
				</g>
			</g>
			<g>
				<path fill="#F37151" d="M221.693,218.74c5.564-3.699,9.968-7.667,15.006-12.14c0.318-0.283,0.811-0.251,1.086,0.075
					c0.924,1.099,2.432,2.734,2.272,3.424c-0.089,0.384-0.361,0.692-0.624,0.984c-4.703,5.213-9.406,10.424-14.108,15.635
					c-0.927,1.027-1.868,2.068-3.035,2.811s-2.606,1.164-3.95,0.832c-2.263-0.559-3.529-2.889-4.762-4.869
					c-6.077-9.76-5.076-13.287-4.334-16.293c0.517-2.092,1.169-4.154,1.547-6.278c0.119-0.672-1.486-4.405-0.571-4.452
					c2.744,3.206,6.858,12.973,9.663,19.709C220.18,218.889,221.053,219.168,221.693,218.74z"/>
			</g>
			<g>
				<g>
					<path fill="#5050A2" d="M177.805,249.941l7.07,80.191c0,0,2.471,0.551,3.324,0.551c0.422,0,1.219-0.129,1.943-0.246
						c0.82-0.152,1.533-0.305,1.533-0.305l0.071-60.617h5.847l0.686,60.617c0,0,1.768,0.48,3.605,0.48c1.791,0,3.91-0.48,3.91-0.48
						l8.487-82.24L177.805,249.941z"/>
				</g>
				<g>
					<path fill="#5D8DC9" d="M195.993,255.951c0.042,2.717-0.146,5.168,0.8,7.635c0.738,1.928,2.42,3.186,4.823,3.137
						c3.501-0.072,5.931-1.98,5.943-5.516c0.002-0.455,0.226-5.248,0.455-5.258C208.012,255.949,195.993,255.951,195.993,255.951z"
						/>
				</g>
				<g>
					<path fill="#5D8DC9" d="M179.391,255.955c0.041,2.717-0.078,5.168,0.592,7.639c0.523,1.932,1.701,3.195,3.374,3.158
						c2.438-0.055,3.798-2.766,4.114-5.488c0.053-0.449,0.133-5.248,0.293-5.256C187.762,256.008,179.391,255.955,179.391,255.955z"
						/>
				</g>
				<g>
					<path fill="#659BD2" d="M191.743,269.508c0.009,0,0.017-0.002,0.025-0.002c0.079-0.014,0.133-0.09,0.119-0.17
						c-0.938-5.449-0.294-15.877-0.287-15.982c0.002-0.041-0.013-0.082-0.042-0.111c-0.03-0.029-0.068-0.045-0.111-0.045
						c-0.095,0.006-9.437,0.439-13.356-0.551c-0.074-0.025-0.157,0.027-0.177,0.105s0.027,0.158,0.105,0.178
						c3.67,0.928,12.008,0.621,13.279,0.568c-0.078,1.354-0.578,10.781,0.301,15.889
						C191.611,269.457,191.674,269.508,191.743,269.508z"/>
				</g>
				<g>
					<path fill="#659BD2" d="M192.914,269.508c0.004,0,0.008,0,0.013,0c0.081-0.008,0.141-0.08,0.134-0.158
						c-0.557-6.371-0.622-11.396-0.206-15.799c5.578-0.053,12.346-0.785,20.12-2.176c0.078-0.014,0.131-0.09,0.117-0.17
						s-0.08-0.131-0.17-0.119c-7.818,1.4-14.615,2.131-20.201,2.172c-0.075,0-0.137,0.059-0.145,0.133
						c-0.432,4.453-0.371,9.531,0.191,15.982C192.775,269.451,192.838,269.508,192.914,269.508z"/>
				</g>
				<g opacity="0.16">
					<path fill="#5682C2" d="M190.143,330.438c0.82-0.152,1.533-0.305,1.533-0.305l0.071-60.617h0.491
						c-0.117-0.188-0.281-0.246-0.491-0.152c-1.147,0.516-1.687,1.313-2.4,2.248c-0.562,0.762-0.89,1.686-0.913,2.635
						C187.966,292.93,189.055,307.152,190.143,330.438z"/>
				</g>
				<g>
					<path fill="#659BD2" d="M205.195,328.449c-0.08-0.008-0.141-0.08-0.131-0.16l0.122-1.201c0.009-0.08,0.083-0.146,0.16-0.131
						c0.08,0.008,0.138,0.08,0.13,0.16l-0.121,1.201c-0.008,0.076-0.072,0.133-0.146,0.133
						C205.205,328.451,205.199,328.451,205.195,328.449z M205.557,324.918c-0.08-0.008-0.141-0.08-0.131-0.16l0.238-2.328
						c0.006-0.08,0.08-0.154,0.159-0.131c0.081,0.008,0.14,0.08,0.13,0.16l-0.236,2.328c-0.008,0.076-0.072,0.133-0.146,0.133
						C205.566,324.92,205.561,324.92,205.557,324.918z M206.031,320.26c-0.08-0.008-0.139-0.08-0.13-0.16l0.237-2.328
						c0.008-0.08,0.088-0.15,0.16-0.131c0.08,0.008,0.14,0.08,0.131,0.16l-0.238,2.328c-0.007,0.076-0.07,0.131-0.145,0.131
						C206.042,320.26,206.036,320.26,206.031,320.26z M206.508,315.602c-0.08-0.008-0.141-0.08-0.131-0.16l0.238-2.33
						c0.008-0.08,0.085-0.154,0.159-0.129c0.08,0.008,0.14,0.08,0.13,0.158l-0.236,2.33c-0.008,0.076-0.072,0.133-0.146,0.133
						C206.518,315.604,206.512,315.604,206.508,315.602z M206.984,310.943c-0.08-0.008-0.141-0.08-0.131-0.16l0.238-2.33
						c0.006-0.08,0.082-0.15,0.16-0.131c0.08,0.008,0.139,0.08,0.13,0.16l-0.237,2.33c-0.008,0.076-0.071,0.131-0.146,0.131
						C206.994,310.943,206.988,310.943,206.984,310.943z M207.459,306.285c-0.08-0.008-0.139-0.08-0.13-0.16l0.237-2.33
						c0.008-0.08,0.08-0.154,0.16-0.129c0.08,0.008,0.141,0.08,0.131,0.16l-0.238,2.328c-0.006,0.076-0.07,0.131-0.145,0.131
						C207.47,306.285,207.464,306.285,207.459,306.285z M207.936,301.625c-0.08-0.008-0.141-0.08-0.131-0.16l0.238-2.328
						c0.009-0.08,0.088-0.15,0.16-0.131c0.08,0.008,0.141,0.08,0.131,0.16l-0.238,2.33c-0.008,0.074-0.071,0.131-0.146,0.131
						C207.945,301.627,207.939,301.627,207.936,301.625z M208.412,296.967c-0.08-0.008-0.14-0.08-0.131-0.16l0.238-2.328
						c0.008-0.08,0.084-0.156,0.16-0.131c0.08,0.008,0.139,0.08,0.13,0.16l-0.237,2.328c-0.008,0.076-0.071,0.133-0.146,0.133
						C208.422,296.969,208.416,296.969,208.412,296.967z M208.888,292.309c-0.08-0.008-0.14-0.08-0.131-0.16l0.238-2.328
						c0.007-0.08,0.082-0.152,0.159-0.131c0.08,0.008,0.141,0.08,0.131,0.16l-0.238,2.33c-0.006,0.074-0.07,0.131-0.145,0.131
						C208.897,292.311,208.893,292.311,208.888,292.309z M209.363,287.65c-0.08-0.008-0.14-0.08-0.131-0.16l0.239-2.33
						c0.007-0.074,0.071-0.131,0.146-0.131c0.004,0,0.01,0,0.014,0.002c0.081,0.008,0.141,0.08,0.131,0.16l-0.238,2.328
						c-0.008,0.076-0.071,0.133-0.146,0.133C209.373,287.652,209.367,287.652,209.363,287.65z M209.84,282.992
						c-0.08-0.008-0.14-0.08-0.131-0.16l0.238-2.328c0.008-0.08,0.086-0.154,0.16-0.131c0.08,0.008,0.139,0.08,0.13,0.16
						L210,282.861c-0.008,0.076-0.071,0.133-0.146,0.133C209.85,282.994,209.844,282.994,209.84,282.992z M210.315,278.334
						c-0.08-0.008-0.14-0.08-0.13-0.16l0.237-2.33c0.007-0.08,0.083-0.148,0.16-0.129c0.079,0.008,0.14,0.08,0.13,0.16l-0.237,2.328
						c-0.007,0.076-0.071,0.131-0.146,0.131C210.326,278.334,210.32,278.334,210.315,278.334z M210.791,273.676
						c-0.08-0.008-0.14-0.08-0.131-0.16l0.239-2.33c0.007-0.08,0.08-0.154,0.16-0.131c0.08,0.008,0.14,0.08,0.13,0.16l-0.238,2.33
						c-0.008,0.076-0.071,0.133-0.146,0.133C210.801,273.678,210.795,273.678,210.791,273.676z M211.268,269.018
						c-0.08-0.008-0.14-0.08-0.131-0.16l0.238-2.33c0.008-0.08,0.088-0.15,0.16-0.131c0.08,0.008,0.14,0.08,0.131,0.16l-0.238,2.33
						c-0.007,0.076-0.071,0.131-0.145,0.131C211.277,269.018,211.271,269.018,211.268,269.018z M211.743,264.357
						c-0.08-0.008-0.14-0.078-0.13-0.158l0.237-2.33c0.009-0.08,0.086-0.156,0.16-0.129c0.08,0.008,0.14,0.08,0.13,0.158
						l-0.237,2.33c-0.007,0.074-0.071,0.131-0.146,0.131C211.754,264.359,211.748,264.359,211.743,264.357z M212.219,259.699
						c-0.08-0.008-0.14-0.08-0.131-0.16l0.239-2.328c0.007-0.08,0.083-0.152,0.16-0.131c0.08,0.008,0.14,0.08,0.13,0.16l-0.238,2.33
						c-0.007,0.074-0.07,0.131-0.146,0.131C212.229,259.701,212.223,259.701,212.219,259.699z M212.695,255.041
						c-0.08-0.008-0.139-0.08-0.131-0.16l0.238-2.328c0.007-0.08,0.08-0.156,0.16-0.131c0.08,0.008,0.14,0.08,0.131,0.16
						l-0.238,2.328c-0.007,0.076-0.07,0.133-0.145,0.133C212.706,255.043,212.7,255.043,212.695,255.041z"/>
				</g>
			</g>
			<path fill="#F37151" d="M192.293,195.809c-11.569,2.66-20.297,31.066-35.771,29.184v5.055c7.244,0,17.133-2.313,25.242-13.426
				C193.49,200.551,192.293,195.809,192.293,195.809z"/>
			<path opacity="0.3" fill="#F37151" d="M192.293,195.809c-11.569,2.66-20.297,31.066-35.771,29.184v5.055
				c7.244,0,17.133-2.313,25.242-13.426C193.49,200.551,192.293,195.809,192.293,195.809z"/>
			<path fill="#F37151" d="M210.22,198.469c7.104,8.142,6.513,49.424,7.321,75.061c-12.805,2.688-26.532,2.574-40.908,0.498
				c0,0-2.236-41.309,4.965-64.706C186.486,193.437,202.723,189.877,210.22,198.469z"/>
			<path opacity="0.3" fill="#F37151" d="M186.432,252.914c-2.656-8.742-3.854-17.711-3.828-26.84
				c0.021-7.666,0.211-15.99,2.223-23.557c-1.319,1.94-2.428,4.203-3.229,6.804c-7.201,23.397-4.965,64.706-4.965,64.706
				c7.269,1.051,14.37,1.596,21.271,1.533C192.688,268.949,188.945,261.18,186.432,252.914z"/>
		</g>
	</g>
	<g>
		<path fill="#01AD9F" d="M73.393,185.577c1.045-0.057,8.164-5.329,10.905-7.106c0.771-0.5,1.556-1.024,2.094-1.769
			c0.539-0.745,0.79-1.767,0.397-2.598c-0.486-1.031-1.293-2.063-3.331-2.059c-3.548,0.008-4.778,1.174-6.503,2.957
			C71.25,180.901,73.393,185.577,73.393,185.577z"/>
		<path fill="#01AD9F" d="M105.311,206.846c3.1,1.393,6.412,2.781,9.783,2.35c1.307-0.167,2.734-0.761,3.17-2.005
			c0.371-1.063-0.141-2.282-0.984-3.029s-1.955-1.108-3.049-1.375c-4.127-1.008-9.919-0.45-14.006,0.71
			C100.225,203.496,103.461,206.014,105.311,206.846z"/>
		<path fill="#01AD9F" d="M125.727,161.06c-1.383-0.873-2.91-2.041-2.908-3.676c0.001-1.641,1.711-2.891,3.352-2.898
			c1.639-0.008,3.161,0.887,4.394,1.969c5.216,4.578,4.565,9.8,4.565,9.8S127.267,162.032,125.727,161.06z"/>
		<path fill="#01AD9F" d="M129.84,147.093c-1.213-0.521-2.466-1.15-3.178-2.264c-0.346-0.541-0.543-1.227-0.329-1.832
			c0.357-1.016,0.993-1.927,3.55-1.463c8.097,1.469,9.86,7.014,9.86,7.014S131.988,148.017,129.84,147.093z"/>
		<path fill="#01AD9F" d="M153.561,159.356c3.248-0.279,6.601-1.896,8.648-4.434c0.771-0.958,1.48-2.015,1.737-3.218
			s-0.017-2.583-0.948-3.386c-1.138-0.98-2.941-0.823-4.193,0.004c-1.253,0.826-2.057,2.174-2.709,3.526
			C155.229,153.651,153.561,159.356,153.561,159.356z"/>
		<path fill="none" stroke="#0C6457" stroke-linecap="round" stroke-linejoin="round" stroke-miterlimit="10" d="M95.572,277.775
			c-7.863-6.934-15.727-13.865-23.591-20.797c-4.19-3.693-8.47-7.496-11.124-12.412c-5.705-10.568-2.416-24.299,5.289-33.511
			c7.706-9.212,18.993-14.65,30.332-18.609c11.338-3.958,23.141-6.736,33.949-11.971c6.779-3.283,13.594-8.174,15.453-15.473
			c1.119-4.391,0.178-9.26-2.494-12.918c-2.672-3.659-7.025-6.035-11.548-6.306"/>
		<path fill="none" stroke="#0C6457" stroke-linecap="round" stroke-linejoin="round" stroke-miterlimit="10" d="M159.054,151.819
			c-2.148,6.598-10.518,10.611-14.337,16.326"/>
		<path fill="none" stroke="#0C6457" stroke-linecap="round" stroke-linejoin="round" stroke-miterlimit="10" d="M129.005,159.407
			c1.648,1.74,3.622,3.179,5.06,5.096c3.039,4.053,3.293,10.635-1.203,14.719"/>
		<path fill="none" stroke="#0C6457" stroke-linecap="round" stroke-linejoin="round" stroke-miterlimit="10" d="M86.66,196.344
			c6.938,5.346,16.057,8.909,24.809,9.249"/>
		<path fill="none" stroke="#0C6457" stroke-linecap="round" stroke-linejoin="round" stroke-miterlimit="10" d="M70.777,206.081
			c-3.195-9.419,0.286-20.703,8.232-26.686"/>
	</g>
	<g>
		<path fill="#01AD9F" d="M345.706,76.695c-0.376-1.166-0.356-2.598,0.502-3.469c0.682-0.691,1.824-1,2.711-0.609
			c6.878,3.034,6.134,13.796,6.134,13.796S348.529,85.468,345.706,76.695z"/>
		<path fill="#01AD9F" d="M345.539,96.854c-4.449,8.065,11.364,7.45,17.066,2.7C362.605,99.555,349.369,89.912,345.539,96.854z"/>
		<path fill="#01AD9F" d="M365.532,77.307c-1.073-1.476-1.455-3.675-0.286-5.076c0.87-1.043,2.387-1.366,3.719-1.108
			c1.332,0.257,3.328,1.494,4.178,2.554c5.204,6.494,2.759,12.849,2.759,12.849S367.291,79.724,365.532,77.307z"/>
		<path fill="#01AD9F" d="M428.33,97.277c-0.385-1.256-0.294-2.789,0.68-3.669c0.614-0.555,1.488-0.756,2.313-0.694
			c0.825,0.063,1.613,0.364,2.366,0.708c1.612,0.74,2.866,2.031,3.642,3.631c1.955,4.041,0.627,9.042,0.627,9.042
			S429.287,100.408,428.33,97.277z"/>
		<path fill="#01AD9F" d="M408.576,112.078c-2.796-2.463-7.078-3.192-10.485-1.693c-0.866,0.381-1.688,0.919-2.242,1.688
			c-1.249,1.733-0.812,4.266,0.484,5.964c1.296,1.697,3.262,2.73,5.203,3.614c3.52,1.602,8.98,1.923,12.726,2.881
			C414.262,124.532,414.246,117.073,408.576,112.078z"/>
		<path fill="none" stroke="#0C6457" stroke-linecap="round" stroke-linejoin="round" stroke-miterlimit="10" d="M350.635,78.425
			c2.326,7.638,8.91,13.402,16.241,16.52c7.33,3.118,15.404,3.941,23.35,4.457c7.946,0.516,15.986,0.772,23.671,2.865
			c7.488,2.039,14.945,6.286,18.159,13.37c3.912,8.623,0.448,18.935-5.043,26.642c-5.492,7.707-12.887,13.918-18.2,21.75
			c-2.439,3.598-4.477,7.808-3.983,12.129c0.657,5.762,5.497,10.006,9.994,13.65"/>
		<path fill="none" stroke="#0C6457" stroke-linecap="round" stroke-linejoin="round" stroke-miterlimit="10" d="M368.949,75.624
			c5.266,5.843,9.475,14.981,10.499,22.79"/>
		<path fill="none" stroke="#0C6457" stroke-linecap="round" stroke-linejoin="round" stroke-miterlimit="10" d="M351.244,98.192
			c3.011,0.801,6.062,1.608,9.177,1.616c3.114,0.008,6.723-1.723,8.962-3.894"/>
		<path fill="none" stroke="#0C6457" stroke-linecap="round" stroke-linejoin="round" stroke-miterlimit="10" d="M433.481,97.752
			c2.821,2.732,4.535,6.582,4.683,10.512c0.146,3.931-2.027,8.694-4.637,11.63"/>
		<path fill="none" stroke="#0C6457" stroke-linecap="round" stroke-linejoin="round" stroke-miterlimit="10" d="M403.969,115.59
			c5.633,5.203,10.538,9.409,16.802,13.827c2.859,2.018,8.536,4.604,11.055,3.938"/>
	</g>
</g>
</svg>
