<?xml version="1.0" encoding="utf-8"?>
<!-- Generator: Adobe Illustrator 16.0.0, SVG Export Plug-In . SVG Version: 6.00 Build 0)  -->
<!DOCTYPE svg PUBLIC "-//W3C//DTD SVG 1.1//EN" "http://www.w3.org/Graphics/SVG/1.1/DTD/svg11.dtd">
<svg version="1.1" id="Layer_1" xmlns="http://www.w3.org/2000/svg" xmlns:xlink="http://www.w3.org/1999/xlink" x="0px" y="0px"
	 width="500px" height="188.136px" viewBox="0 0 500 188.136" enable-background="new 0 0 500 188.136" xml:space="preserve">
<g>
	<path fill="#F89838" d="M428.727,59.454h-51.706c-1.078,0-1.951-0.873-1.951-1.947c0-1.081,0.873-1.954,1.951-1.954h51.706
		c1.081,0,1.953,0.873,1.953,1.954C430.68,58.582,429.808,59.454,428.727,59.454z"/>
</g>
<g>
	<path fill="#F89838" d="M173.823,174.809h-57.297c-1.081,0-1.954-0.873-1.954-1.953c0-1.078,0.874-1.952,1.954-1.952h57.297
		c1.075,0,1.948,0.874,1.948,1.952C175.771,173.936,174.898,174.809,173.823,174.809z"/>
</g>
<g>
	<path fill="#F89838" d="M79.815,85.211H47.232c-1.081,0-1.954-0.873-1.954-1.954c0-1.079,0.873-1.951,1.954-1.951h32.583
		c1.078,0,1.951,0.873,1.951,1.951C81.766,84.338,80.894,85.211,79.815,85.211z"/>
</g>
<g>
	<path fill="#F89838" d="M357.075,34.24h-58.944c-1.082,0-1.955-0.873-1.955-1.953c0-1.078,0.873-1.951,1.955-1.951h58.944
		c1.077,0,1.951,0.874,1.951,1.951C359.026,33.367,358.152,34.24,357.075,34.24z"/>
</g>
<g>
	<path fill="#F89838" d="M448.84,147.425h-21.714c-1.078,0-1.951-0.872-1.951-1.953c0-1.075,0.873-1.948,1.951-1.948h21.714
		c1.081,0,1.955,0.873,1.955,1.948C450.795,146.553,449.921,147.425,448.84,147.425z"/>
</g>
<g>
	<path fill="#F89838" d="M60.705,45.954H38.99c-1.081,0-1.954-0.873-1.954-1.952c0-1.078,0.873-1.951,1.954-1.951h21.715
		c1.078,0,1.951,0.873,1.951,1.951C62.656,45.081,61.782,45.954,60.705,45.954z"/>
</g>
<g>
	<path fill="#F89838" d="M110.379,10.645H73.28c-1.078,0-1.951-0.871-1.951-1.95c0-1.08,0.873-1.953,1.951-1.953h37.099
		c1.081,0,1.954,0.873,1.954,1.953C112.333,9.774,111.46,10.645,110.379,10.645z"/>
</g>
<g>
	<path fill="#F89838" d="M209.381,38.143h-67.217c-1.078,0-1.951-0.873-1.951-1.952c0-1.078,0.874-1.951,1.951-1.951h67.217
		c1.079,0,1.951,0.873,1.951,1.951C211.332,37.271,210.459,38.143,209.381,38.143z"/>
</g>
<g>
	<path fill="#F89838" d="M459.979,92.079h-32.282c-1.078,0-1.952-0.873-1.952-1.951c0-1.081,0.874-1.954,1.952-1.954h32.282
		c1.081,0,1.954,0.873,1.954,1.954C461.933,91.206,461.06,92.079,459.979,92.079z"/>
</g>
<g>
	<path fill="#F89838" d="M385.397,163.063h-52.743c-1.077,0-1.95-0.873-1.95-1.951s0.873-1.951,1.95-1.951h52.743
		c1.077,0,1.95,0.873,1.95,1.951S386.475,163.063,385.397,163.063z"/>
</g>
<g>
	<path fill="#F89838" d="M288.699,177.488c-2.461-3.877-3.916-9.324-3.916-15.627c0-2.611,0.261-5.061,0.727-7.326l-21.121,19.695
		C272.697,176.752,281.899,177.42,288.699,177.488z"/>
	<path fill="#F89838" d="M265.564,33.037h-33.863c-1.375,0-2.224,1.502-1.514,2.681l12.478,20.747l14.993-0.881l32.392-1.91
		l-20.407-19.031C268.534,33.612,267.076,33.037,265.564,33.037z"/>
	<path fill="#F89838" d="M107.665,92.553c6.568-4.965,14.539-7.486,23.692-7.486c7.525,0,14.212,1.722,18.497,3.168
		c2.833,0.957,5.113,3.082,6.256,5.841c1.152,2.782,1.042,5.93-0.3,8.641c-3.373,6.8-10.594,13.538-21.48,20.023
		c-1.663,0.992-3.355,1.862-5.063,2.667c1.624,0.664,3.287,1.246,5.021,1.648c21.486,4.973,48.492,8.084,76.871,9.973l14.098-23.437
		c1.227-2.042,3.142-3.596,5.393-4.374c14.632-5.071,29.691-7.643,44.754-7.643c17.992,0,31.888,3.744,38.569,5.974
		c3.424,1.14,5.921,3.925,6.687,7.447c0.767,3.521-0.353,7.094-2.993,9.556l-16.197,15.102c36.286-0.018,67.007-1.068,81.711-1.576
		c48.415-1.672,38.492-32.892,26.569-37.702c-11.919-4.814-24.954-7.72-33.176-22.55c-7.724-13.926-22.03-20.441-36.378-20.441
		c-0.936,0-1.867,0.03-2.801,0.083c-15.259,0.897-51.884,3.053-79.354,4.671c-27.469,1.618-112.928,6.648-112.928,6.648
		l-18.671-29.147c-3.67-5.728-9.996-9.161-16.745-9.161c-0.389,0-0.781,0.012-1.173,0.036l-27.924,1.644
		c-4.567,0.269-7.344,5.146-5.218,9.198c6.506,12.4,18.859,35.811,29.163,54.577l1.185-1.488
		C106.302,93.729,106.953,93.093,107.665,92.553z"/>
	<path fill="#F89838" d="M130.969,117.097c12.263-7.311,17.071-13.493,18.956-17.294c1.037-2.093,0.042-4.602-2.167-5.345
		c-3.578-1.208-9.636-2.827-16.4-2.827c-6.446,0-13.531,1.47-19.731,6.159c-0.282,0.214-0.541,0.469-0.757,0.742l-13.347,16.759
		c-2.477,3.103-0.63,7.697,3.302,8.249c1.788,0.25,3.819,0.416,6.045,0.416C113.545,123.957,121.993,122.451,130.969,117.097z"/>
	<path fill="#F89838" d="M313.19,119.746c1.976-1.84,1.269-5.113-1.295-5.968c-6.844-2.287-19.737-5.636-36.49-5.636
		c-12.388,0-26.882,1.829-42.607,7.278c-0.793,0.276-1.482,0.834-1.916,1.553l-35.06,58.295c-2.39,3.977,0.473,9.039,5.111,9.039
		h38.417c2.958,0,5.809-1.123,7.973-3.143L313.19,119.746z"/>
	<ellipse fill="#F89838" cx="298.751" cy="161.862" rx="7.403" ry="15.3"/>
	<path fill="#FFFFFF" d="M376.575,77.824c-0.754-1.36-1.619-2.589-2.492-3.807c-0.35,0.285-7.521,5.837-32.107,5.087
		c-3.76-0.116-6.1,4.192-3.827,7.191c3.967,5.241,9.288,9.87,15.613,11.017c8.86,1.606,31.354-0.113,37.36-4.843
		C385.599,89.316,380.526,84.954,376.575,77.824z"/>
	<path fill="#FFFFFF" d="M183.776,85.96h-5.256c-1.517,0-2.75,1.229-2.75,2.747v9.107c0,1.518,1.232,2.75,2.75,2.75h5.256
		c1.517,0,2.75-1.232,2.75-2.75v-9.107C186.526,87.19,185.293,85.96,183.776,85.96z"/>
	<path fill="#FFFFFF" d="M213.702,85.96h-5.253c-1.517,0-2.75,1.229-2.75,2.747v9.107c0,1.518,1.232,2.75,2.75,2.75h5.253
		c1.52,0,2.75-1.232,2.75-2.75v-9.107C216.452,87.19,215.222,85.96,213.702,85.96z"/>
	<path fill="#FFFFFF" d="M243.63,85.96h-5.256c-1.517,0-2.747,1.229-2.747,2.747v9.107c0,1.518,1.229,2.75,2.747,2.75h5.256
		c1.517,0,2.747-1.232,2.747-2.75v-9.107C246.377,87.19,245.146,85.96,243.63,85.96z"/>
	<path fill="#FFFFFF" d="M273.559,85.96h-5.256c-1.518,0-2.75,1.229-2.75,2.747v9.107c0,1.518,1.232,2.75,2.75,2.75h5.256
		c1.518,0,2.746-1.232,2.746-2.75v-9.107C276.305,87.19,275.076,85.96,273.559,85.96z"/>
	<path fill="#FFFFFF" d="M303.484,85.96h-5.256c-1.519,0-2.747,1.229-2.747,2.747v9.107c0,1.518,1.229,2.75,2.747,2.75h5.256
		c1.517,0,2.749-1.232,2.749-2.75v-9.107C306.233,87.19,305.001,85.96,303.484,85.96z"/>
</g>
</svg>
