<?xml version="1.0" encoding="utf-8"?>
<!-- Generator: Adobe Illustrator 16.0.0, SVG Export Plug-In . SVG Version: 6.00 Build 0)  -->
<!DOCTYPE svg PUBLIC "-//W3C//DTD SVG 1.1//EN" "http://www.w3.org/Graphics/SVG/1.1/DTD/svg11.dtd">
<svg version="1.1" id="Layer_1" xmlns="http://www.w3.org/2000/svg" xmlns:xlink="http://www.w3.org/1999/xlink" x="0px" y="0px"
	 width="500px" height="188.136px" viewBox="0 0 500 188.136" enable-background="new 0 0 500 188.136" xml:space="preserve">
<g>
	<path fill="#673695" d="M404.86,55.53h-44.016c-0.921,0-1.661-0.741-1.661-1.661c0-0.92,0.74-1.661,1.661-1.661h44.016
		c0.916,0,1.661,0.741,1.661,1.661C406.521,54.79,405.776,55.53,404.86,55.53z"/>
</g>
<g>
	<path fill="#673695" d="M376.112,158.018h-44.012c-0.92,0-1.665-0.745-1.665-1.661s0.745-1.66,1.665-1.66h44.012
		c0.92,0,1.661,0.744,1.661,1.66S377.032,158.018,376.112,158.018z"/>
</g>
<g>
	<path fill="#673695" d="M143.227,179.332H94.456c-0.92,0-1.662-0.74-1.662-1.661c0-0.919,0.741-1.661,1.662-1.661h48.771
		c0.92,0,1.661,0.742,1.661,1.661C144.888,178.592,144.147,179.332,143.227,179.332z"/>
</g>
<g>
	<path fill="#673695" d="M106.66,72.053H78.924c-0.916,0-1.661-0.745-1.661-1.665c0-0.916,0.745-1.661,1.661-1.661h27.736
		c0.92,0,1.661,0.745,1.661,1.661C108.321,71.308,107.581,72.053,106.66,72.053z"/>
</g>
<g>
	<path fill="#673695" d="M137.722,140.018h-27.74c-0.916,0-1.661-0.741-1.661-1.662c0-0.92,0.745-1.661,1.661-1.661h27.74
		c0.916,0,1.661,0.741,1.661,1.661C139.383,139.276,138.638,140.018,137.722,140.018z"/>
</g>
<g>
	<path fill="#673695" d="M319.191,30.324h-50.179c-0.92,0-1.661-0.741-1.661-1.661c0-0.921,0.741-1.662,1.661-1.662h50.179
		c0.916,0,1.66,0.741,1.66,1.662C320.852,29.583,320.107,30.324,319.191,30.324z"/>
</g>
<g>
	<path fill="#673695" d="M416.906,135.054h-25.131c-0.92,0-1.661-0.741-1.661-1.661s0.741-1.661,1.661-1.661h25.131
		c0.92,0,1.66,0.741,1.66,1.661S417.826,135.054,416.906,135.054z"/>
</g>
<g>
	<path fill="#673695" d="M257.732,6.918h-18.487c-0.916,0-1.661-0.745-1.661-1.665c0-0.917,0.745-1.657,1.661-1.657h18.487
		c0.92,0,1.66,0.741,1.66,1.657C259.393,6.173,258.652,6.918,257.732,6.918z"/>
</g>
<g>
	<path fill="#673695" d="M139.104,48.467h-35.101c-0.92,0-1.661-0.745-1.661-1.661c0-0.92,0.741-1.665,1.661-1.665h35.101
		c0.916,0,1.661,0.745,1.661,1.665C140.765,47.723,140.021,48.467,139.104,48.467z"/>
</g>
<g>
	<path fill="#673695" d="M118.132,20.812h-31.58c-0.92,0-1.662-0.741-1.662-1.661c0-0.92,0.741-1.661,1.662-1.661h31.58
		c0.916,0,1.661,0.741,1.661,1.661C119.793,20.07,119.048,20.812,118.132,20.812z"/>
</g>
<g>
	<path fill="#673695" d="M425.665,81.223H398.18c-0.915,0-1.66-0.745-1.66-1.665c0-0.916,0.745-1.661,1.66-1.661h27.485
		c0.916,0,1.662,0.745,1.662,1.661C427.327,80.478,426.581,81.223,425.665,81.223z"/>
</g>
<g>
	<path fill="#673695" d="M301.695,177.671h-44.895c-0.922,0-1.662-0.744-1.662-1.661c0-0.915,0.74-1.66,1.662-1.66h44.895
		c0.917,0,1.662,0.745,1.662,1.66C303.357,176.927,302.612,177.671,301.695,177.671z"/>
</g>
<g>
	<path fill="#673695" d="M390.449,111.337c8.358-6.453,8.358-17.734,0-24.187c-19.67-15.192-61.002-38.718-124.086-33.783
		C204.111,58.235,162.57,75.785,162.57,75.785v46.912c0,0,41.541,17.551,103.793,22.419
		C329.447,150.046,370.779,126.525,390.449,111.337z"/>
	<path fill="#673695" d="M168.419,133.393v50.035c44.278,0,66.458-17.706,77.161-32.022
		C207.658,146.494,179.908,137.556,168.419,133.393z"/>
	<path fill="#673695" d="M168.419,65.09V15.06c44.278,0,66.458,17.702,77.161,32.019C207.658,51.989,179.908,60.932,168.419,65.09z"
		/>
	<path fill="#673695" d="M156.963,99.244c0,0,0-17.925,0-22.661c-13.904,0-21.164,6.576-21.164,6.576s7.26,0.789,9.374,4.214
		c-13.003,1.84-23.104,11.871-23.104,11.871s10.101,10.025,23.104,11.87c-2.114,3.418-9.374,4.207-9.374,4.207
		s7.26,6.581,21.164,6.581C156.963,117.165,156.963,99.244,156.963,99.244z"/>
	<path fill="#FFFFFF" d="M196.408,170.409c0.865,0.694,2.266,0.296,2.498-0.708l0.944-4.007c0.086-0.375,0.357-0.694,0.737-0.886
		l4.092-2.015c1.021-0.507,1.021-1.785,0-2.291l-4.092-2.02c-0.38-0.184-0.65-0.51-0.737-0.88l-0.944-4.012
		c-0.232-1.003-1.633-1.397-2.498-0.709l-3.47,2.766c-0.324,0.258-0.755,0.382-1.19,0.337l-4.677-0.461
		c-1.167-0.115-2.033,0.92-1.542,1.853l1.945,3.729c0.183,0.342,0.183,0.74,0,1.087l-1.945,3.725
		c-0.491,0.933,0.375,1.968,1.542,1.855l4.677-0.462c0.435-0.043,0.866,0.08,1.19,0.335L196.408,170.409z"/>
	<path fill="#FFFFFF" d="M196.408,28.073c0.865-0.689,2.266-0.295,2.498,0.705l0.944,4.016c0.086,0.37,0.357,0.692,0.737,0.88
		l4.092,2.02c1.021,0.501,1.021,1.784,0,2.286l-4.092,2.016c-0.38,0.191-0.65,0.51-0.737,0.884l-0.944,4.011
		c-0.232,1-1.633,1.398-2.498,0.705l-3.47-2.764c-0.324-0.255-0.755-0.375-1.19-0.334l-4.677,0.462
		c-1.167,0.115-2.033-0.924-1.542-1.853l1.945-3.724c0.183-0.351,0.183-0.745,0-1.092l-1.945-3.729
		c-0.491-0.927,0.375-1.967,1.542-1.848l4.677,0.462c0.435,0.04,0.866-0.08,1.19-0.338L196.408,28.073z"/>
	<path fill="#FFFFFF" d="M242.933,100.51c1.52-0.382,1.52-2.156,0-2.538c-9.364-2.358-31.027-7.178-51.61-7.178
		c-10.202,0-17.191,1.565-21.1,2.785c-2.256,0.708-3.753,2.477-3.753,4.477v1.187l0,0v1.183c0,1.996,1.497,3.764,3.753,4.473
		c3.909,1.228,10.898,2.789,21.1,2.789C211.905,107.688,233.568,102.868,242.933,100.51z"/>
	<g>
		<path fill="#FFFFFF" d="M321.54,99.244c0-7.457-6.973-13.527-15.54-13.527c-8.573,0-15.544,6.07-15.544,13.527
			s6.971,13.523,15.544,13.523C314.567,112.767,321.54,106.701,321.54,99.244z"/>
		<path fill="#FFFFFF" d="M335.568,99.244c0-14.213-13.242-25.732-29.568-25.732c-16.33,0-29.567,11.52-29.567,25.732
			c0,14.212,13.237,25.732,29.567,25.732C322.326,124.976,335.568,113.456,335.568,99.244z M283.98,99.244
			c0-10.568,9.876-19.161,22.02-19.161c12.137,0,22.016,8.593,22.016,19.161c0,10.564-9.879,19.16-22.016,19.16
			C293.856,118.403,283.98,109.808,283.98,99.244z"/>
	</g>
	<path fill="#FFFFFF" d="M374.688,76.522c-1.868-1.1-3.826-2.199-5.877-3.294c-1.602,6.748-3.104,15.771-3.104,26.016
		c0,10.202,1.492,19.239,3.085,26.023c2.051-1.096,4.01-2.195,5.877-3.294c-1.333-6.214-2.485-14.061-2.485-22.729
		C372.184,90.556,373.346,82.713,374.688,76.522z"/>
</g>
</svg>
